STARTFONT 2.1
COMMENT
COMMENT Converted from OpenType font "OldStandard-Bold.ttf" by "otf2bdf 3.0".
COMMENT
FONT -FreeType-Old Standard TT-Bold-R-Normal--38-380-72-72-P-206-ISO10646-1
SIZE 38 72 72
FONTBOUNDINGBOX 107 49 -33 -11
STARTPROPERTIES 19
FOUNDRY "FreeType"
FAMILY_NAME "Old Standard TT"
WEIGHT_NAME "Bold"
SLANT "R"
SETWIDTH_NAME "Normal"
ADD_STYLE_NAME ""
PIXEL_SIZE 38
POINT_SIZE 380
RESOLUTION_X 72
RESOLUTION_Y 72
SPACING "P"
AVERAGE_WIDTH 206
CHARSET_REGISTRY "ISO10646"
CHARSET_ENCODING "1"
FONT_ASCENT 36
FONT_DESCENT 11
COPYRIGHT "Copyright (C) 2006-2008 Alexey Kryukov <alexios@thessalonica.org.ru>"
_OTF_FONTFILE "OldStandard-Bold.ttf"
_OTF_PSNAME "OldStandardTT-Bold"
ENDPROPERTIES
CHARS 1376
STARTCHAR 0020
ENCODING 32
SWIDTH 289 0
DWIDTH 11 0
BBX 0 0 0 0
BITMAP
ENDCHAR
STARTCHAR 0021
ENCODING 33
SWIDTH 263 0
DWIDTH 10 0
BBX 6 28 2 1
BITMAP
78
FC
FC
FC
FC
FC
FC
78
78
78
78
78
30
30
30
30
30
30
30
30
00
00
78
FC
FC
FC
FC
78
ENDCHAR
STARTCHAR 0022
ENCODING 34
SWIDTH 421 0
DWIDTH 16 0
BBX 10 9 3 20
BITMAP
F3C0
F3C0
F3C0
F3C0
F3C0
F3C0
6180
6180
6180
ENDCHAR
STARTCHAR 0023
ENCODING 35
SWIDTH 736 0
DWIDTH 28 0
BBX 22 28 3 0
BITMAP
01C0E0
01C0E0
01C0E0
01C0E0
0180C0
0180C0
0180C0
0381FC
FFFFFC
FFFFFC
038180
030180
030180
070380
070380
070380
070380
060300
FFFFFC
FFFFFC
FFFFFC
0E0700
0E0700
0E0600
0C0600
0C0600
1C0E00
1C0E00
ENDCHAR
STARTCHAR 0024
ENCODING 36
SWIDTH 578 0
DWIDTH 22 0
BBX 18 34 2 -3
BITMAP
011000
011000
011000
07FC00
1D1300
391180
3110C0
7110C0
7111C0
7113C0
7917C0
7F1780
7F1300
3F9000
3FF000
1FF000
0FFC00
07FE00
01FF00
01FF80
013F80
791FC0
F917C0
F913C0
F911C0
E111C0
C111C0
611180
611300
391600
0F3C00
01D000
011000
011000
ENDCHAR
STARTCHAR 0025
ENCODING 37
SWIDTH 842 0
DWIDTH 32 0
BBX 26 29 3 0
BITMAP
04000C00
1B000800
31801800
71C01000
71C03000
F1E06000
F1E06000
F1E0C000
F1E08000
F1E18000
F1E10000
71C30000
71C20000
3B860000
1E0C0000
000C1C00
00187700
0010E380
0030E380
0021E3C0
0061E3C0
0041E3C0
00C1E3C0
0181E3C0
0181E3C0
0301E380
0200E380
06006300
04003E00
ENDCHAR
STARTCHAR 0026
ENCODING 38
SWIDTH 815 0
DWIDTH 31 0
BBX 27 28 2 1
BITMAP
00FE0000
01C30000
03810000
07818000
07818000
07818000
07838000
07C30000
07C60000
03EC0000
03F80000
01F00000
00F80000
01FC1FE0
077C0380
0E3E0300
1C3F0300
381F8600
780F8600
7807C400
F807E800
F803F800
F801F000
FC01F800
FE00F820
7F01FC40
3FFE7FC0
1FF81F80
ENDCHAR
STARTCHAR 0027
ENCODING 39
SWIDTH 263 0
DWIDTH 10 0
BBX 4 9 3 20
BITMAP
F0
F0
F0
F0
F0
F0
60
60
60
ENDCHAR
STARTCHAR 0028
ENCODING 40
SWIDTH 342 0
DWIDTH 13 0
BBX 11 35 2 -7
BITMAP
0060
00C0
0180
0300
0600
0C00
1C00
1800
3800
3800
7800
7800
7800
F800
F800
F800
F800
F800
F800
F800
F800
F800
7800
7800
7800
7800
3800
3800
1C00
0C00
0E00
0700
0300
0180
0060
ENDCHAR
STARTCHAR 0029
ENCODING 41
SWIDTH 368 0
DWIDTH 14 0
BBX 11 36 1 -7
BITMAP
C000
6000
3000
1800
0C00
0E00
0700
0700
0380
0380
03C0
03C0
03C0
03C0
03E0
03E0
03E0
03E0
03E0
03E0
03E0
03E0
03C0
03C0
03C0
0380
0380
0700
0700
0600
0C00
1C00
3800
7000
C000
8000
ENDCHAR
STARTCHAR 002A
ENCODING 42
SWIDTH 500 0
DWIDTH 19 0
BBX 14 16 3 12
BITMAP
0300
0780
0780
C718
E33C
F27C
7AF8
0780
0780
FAF8
F27C
E33C
C718
0780
0780
0300
ENDCHAR
STARTCHAR 002B
ENCODING 43
SWIDTH 973 0
DWIDTH 37 0
BBX 33 33 2 -5
BITMAP
0001C00000
0001C00000
0001C00000
0001C00000
0001C00000
0001C00000
0001C00000
0001C00000
0001C00000
0001C00000
0001C00000
0001C00000
0001C00000
0001C00000
0001C00000
FFFFFFFF80
FFFFFFFF80
FFFFFFFF80
0001C00000
0001C00000
0001C00000
0001C00000
0001C00000
0001C00000
0001C00000
0001C00000
0001C00000
0001C00000
0001C00000
0001C00000
0001C00000
0001C00000
0001C00000
ENDCHAR
STARTCHAR 002C
ENCODING 44
SWIDTH 263 0
DWIDTH 10 0
BBX 7 13 2 -7
BITMAP
78
FC
FC
FE
FE
7E
06
04
04
08
18
60
C0
ENDCHAR
STARTCHAR 002D
ENCODING 45
SWIDTH 368 0
DWIDTH 14 0
BBX 10 4 2 8
BITMAP
FFC0
FFC0
FFC0
FFC0
ENDCHAR
STARTCHAR 002E
ENCODING 46
SWIDTH 263 0
DWIDTH 10 0
BBX 6 6 2 0
BITMAP
78
FC
FC
FC
FC
78
ENDCHAR
STARTCHAR 002F
ENCODING 47
SWIDTH 447 0
DWIDTH 17 0
BBX 13 37 2 -8
BITMAP
0018
0038
0038
0030
0070
0070
0060
0060
00E0
00E0
00C0
01C0
01C0
0180
0380
0380
0380
0300
0700
0700
0600
0E00
0E00
0C00
0C00
1C00
1C00
1800
3800
3800
3000
7000
7000
7000
6000
E000
E000
ENDCHAR
STARTCHAR 0030
ENCODING 48
SWIDTH 578 0
DWIDTH 22 0
BBX 18 28 2 1
BITMAP
03F000
0E1C00
0E1C00
1C0E00
3C0F00
3C0F00
7C0F80
7C0F80
7C0F80
FC0FC0
FC0FC0
FC0FC0
FC0FC0
FC0FC0
FC0FC0
FC0FC0
FC0FC0
FC0FC0
FC0FC0
7C0F80
7C0F80
7C0F80
3C0F00
3C0F00
1C0E00
0C1C00
0E1C00
03F000
ENDCHAR
STARTCHAR 0031
ENCODING 49
SWIDTH 578 0
DWIDTH 22 0
BBX 13 28 5 0
BITMAP
0380
0780
0F80
FF80
1F80
1F80
1F80
1F80
1F80
1F80
1F80
1F80
1F80
1F80
1F80
1F80
1F80
1F80
1F80
1F80
1F80
1F80
1F80
1F80
1F80
1F80
1F80
FFF8
ENDCHAR
STARTCHAR 0032
ENCODING 50
SWIDTH 578 0
DWIDTH 22 0
BBX 17 28 2 1
BITMAP
0FF800
183E00
303F00
701F00
F01F80
F01F80
FC1F80
FC1F80
FE1F80
7E3F00
3C3F00
007E00
00FC00
00F800
01E000
038000
060000
0C0080
180080
100080
200080
2F0180
7FFF80
7FFF80
47FF00
43FF00
41FE00
40FC00
ENDCHAR
STARTCHAR 0033
ENCODING 51
SWIDTH 578 0
DWIDTH 22 0
BBX 17 28 2 1
BITMAP
0FF800
183E00
303F00
301F00
701F80
781F80
7C1F80
7C1F80
7C1F80
3C1F00
001F00
003E00
007800
0FC000
007800
003E00
003F00
001F00
101F80
7C1F80
FC1F80
FC1F80
FC1F80
F81F80
F03F00
703E00
387C00
1FF800
ENDCHAR
STARTCHAR 0034
ENCODING 52
SWIDTH 578 0
DWIDTH 22 0
BBX 18 28 2 0
BITMAP
007C00
007C00
00FC00
00FC00
01FC00
01FC00
03FC00
03FC00
06FC00
06FC00
0CFC00
0CFC00
18FC00
18FC00
30FC00
30FC00
60FC00
60FC00
C0FC00
FFFFC0
00FC00
00FC00
00FC00
00FC00
00FC00
00FC00
00FC00
0FFFC0
ENDCHAR
STARTCHAR 0035
ENCODING 53
SWIDTH 578 0
DWIDTH 22 0
BBX 17 29 3 0
BITMAP
000600
701C00
7FFC00
7FF800
7FE000
7FC000
7E0000
600000
600000
600000
600000
67E000
787800
703E00
603E00
601F00
001F00
001F80
001F80
381F80
7C1F80
FC1F80
FC1F80
F81F00
F01F00
E01E00
603E00
307C00
1FF000
ENDCHAR
STARTCHAR 0036
ENCODING 54
SWIDTH 578 0
DWIDTH 22 0
BBX 18 29 3 0
BITMAP
002000
03DC00
070600
0E0600
1E0F00
3C1F00
3C3F00
7C3F00
7C3E00
7C1C00
FC0000
FC0000
FC0000
FDF800
FF1E00
FE1F00
FC0F80
FC0F80
FC0FC0
FC0FC0
FC0FC0
7C0FC0
7C0FC0
7C0FC0
3C0F80
1C0F80
1E0F00
0E1E00
03FC00
ENDCHAR
STARTCHAR 0037
ENCODING 55
SWIDTH 578 0
DWIDTH 22 0
BBX 17 28 3 0
BITMAP
678700
6FC700
7FE380
7FF180
7FF980
7FFF80
607D80
400100
400300
400300
C00600
000400
000C00
001800
003800
007000
007000
00F000
01F000
03E000
03E000
03E000
07E000
07E000
07E000
07E000
07E000
03C000
ENDCHAR
STARTCHAR 0038
ENCODING 56
SWIDTH 578 0
DWIDTH 22 0
BBX 19 29 2 0
BITMAP
004000
07B800
1C0600
380300
700100
700180
F00180
F00180
F80180
FC0300
FF0200
7FC400
7FF800
3FFC00
1FFF00
0FFF80
1BFF80
30FFC0
603FC0
600FC0
E003E0
E001C0
E001C0
E001C0
E001C0
700180
380100
1C0600
0FFC00
ENDCHAR
STARTCHAR 0039
ENCODING 57
SWIDTH 578 0
DWIDTH 22 0
BBX 18 28 3 1
BITMAP
0FF000
1E1C00
3C1E00
7C0E00
7C0F00
FC0F80
FC0F80
FC0F80
FC0F80
FC0FC0
FC0FC0
7C0FC0
7C0FC0
3E1FC0
1E3FC0
07EFC0
000FC0
000FC0
000FC0
1E0F80
1F0F80
3F0F80
3F0F00
3E0F00
381E00
181C00
183800
0FF000
ENDCHAR
STARTCHAR 003A
ENCODING 58
SWIDTH 263 0
DWIDTH 10 0
BBX 6 19 2 0
BITMAP
78
FC
FC
FC
FC
78
00
00
00
00
00
00
00
78
FC
FC
FC
FC
78
ENDCHAR
STARTCHAR 003B
ENCODING 59
SWIDTH 263 0
DWIDTH 10 0
BBX 7 26 2 -7
BITMAP
78
FC
FC
FC
FC
78
00
00
00
00
00
00
00
78
FC
FC
FE
FE
7E
06
04
04
08
10
60
C0
ENDCHAR
STARTCHAR 003C
ENCODING 60
SWIDTH 947 0
DWIDTH 36 0
BBX 29 33 3 -6
BITMAP
00000018
00000078
000001F0
000007C0
00001F80
00003E00
0000F800
0003E000
000FC000
001F0000
007C0000
01F00000
07C00000
0F800000
3E000000
F8000000
F0000000
7C000000
3E000000
0F800000
03E00000
00F80000
007C0000
001F0000
0007C000
0001F000
0000FC00
00003E00
00000F80
000003E0
000001F8
00000078
00000010
ENDCHAR
STARTCHAR 003D
ENCODING 61
SWIDTH 947 0
DWIDTH 36 0
BBX 32 11 2 5
BITMAP
FFFFFFFF
FFFFFFFF
FFFFFFFF
00000000
00000000
00000000
00000000
00000000
FFFFFFFF
FFFFFFFF
FFFFFFFF
ENDCHAR
STARTCHAR 003E
ENCODING 62
SWIDTH 947 0
DWIDTH 36 0
BBX 29 33 4 -6
BITMAP
C0000000
F0000000
7C000000
1F000000
0FC00000
03E00000
00F80000
003E0000
001F8000
0007C000
0001F000
00007C00
00001F00
00000F80
000003E0
000000F8
00000078
000001F0
000003E0
00000F80
00003E00
0000F800
0001F000
0007C000
001F0000
007C0000
01F80000
03E00000
0F800000
3E000000
FC000000
F0000000
40000000
ENDCHAR
STARTCHAR 003F
ENCODING 63
SWIDTH 473 0
DWIDTH 18 0
BBX 12 28 3 1
BITMAP
3F80
77E0
41E0
81F0
81F0
81F0
81F0
81E0
C1E0
43C0
0380
0700
0600
0C00
0800
1800
1040
1040
1040
1880
0F00
0000
0780
0FC0
0FC0
0FC0
0FC0
0780
ENDCHAR
STARTCHAR 0040
ENCODING 64
SWIDTH 842 0
DWIDTH 32 0
BBX 28 29 2 0
BITMAP
00020000
007DF000
01C01C00
03000600
06000300
0C000180
180F3DC0
381CBCC0
3038F8E0
707078E0
70F07860
E1E07870
E1E0F870
E1E0F070
E3E0F070
E3C0F070
E3C0F070
E3C1E060
E3C1E0E0
63C1E0C0
63C3E0C0
73C2E180
31E4E300
38787C00
1C000000
0C000000
07000000
03801800
00FFE000
ENDCHAR
STARTCHAR 0041
ENCODING 65
SWIDTH 763 0
DWIDTH 29 0
BBX 26 29 2 0
BITMAP
00040000
00060000
000E0000
000E0000
000F0000
001F0000
001F0000
001F8000
003F8000
002F8000
002FC000
006FC000
004FC000
0047C000
00C7E000
0087E000
0083E000
0183F000
0103F000
0301F000
03FFF800
0201F800
0600F800
0600FC00
0400FC00
0C00FC00
0C007C00
1E00FE00
FFC7FFC0
ENDCHAR
STARTCHAR 0042
ENCODING 66
SWIDTH 710 0
DWIDTH 27 0
BBX 22 28 3 0
BITMAP
FFFF00
1F83C0
1F83E0
1F81F0
1F81F8
1F81F8
1F81F8
1F81F8
1F81F8
1F81F0
1F81F0
1F83C0
1F8380
1FFC00
1F8380
1F81E0
1F80F0
1F80F8
1F80FC
1F80FC
1F80FC
1F80FC
1F80FC
1F80F8
1F80F8
1F81F0
1F83E0
FFFF80
ENDCHAR
STARTCHAR 0043
ENCODING 67
SWIDTH 684 0
DWIDTH 26 0
BBX 21 28 3 1
BITMAP
01FE30
070330
0E01F0
1E00F0
3C00F0
3C0070
7C0070
7C0030
7C0030
FC0030
FC0030
FC0010
FC0000
FC0000
FC0000
FC0000
FC0000
FC0018
FC0018
7C0010
7C0010
7C0010
3C0030
3C0020
1E0060
0E00C0
070180
01FE00
ENDCHAR
STARTCHAR 0044
ENCODING 68
SWIDTH 789 0
DWIDTH 30 0
BBX 25 28 3 0
BITMAP
FFFF8000
1F80E000
1F807000
1F803800
1F803C00
1F801E00
1F801E00
1F801F00
1F801F00
1F801F00
1F801F80
1F801F80
1F801F80
1F801F80
1F801F80
1F801F80
1F801F80
1F801F80
1F801F00
1F801F00
1F801F00
1F801E00
1F801E00
1F803C00
1F803800
1F807000
1F80E000
FFFF8000
ENDCHAR
STARTCHAR 0045
ENCODING 69
SWIDTH 684 0
DWIDTH 26 0
BBX 22 28 2 0
BITMAP
FFFFFC
0FC07C
0FC03C
0FC01C
0FC01C
0FC00C
0FC00C
0FC00C
0FC104
0FC100
0FC300
0FC300
0FC700
0FFF00
0FC700
0FC300
0FC300
0FC104
0FC104
0FC104
0FC00C
0FC00C
0FC00C
0FC01C
0FC01C
0FC03C
0FC0FC
FFFFFC
ENDCHAR
STARTCHAR 0046
ENCODING 70
SWIDTH 657 0
DWIDTH 25 0
BBX 22 28 2 0
BITMAP
FFFFFC
1F80FC
1F807C
1F803C
1F801C
1F801C
1F801C
1F800C
1F810C
1F810C
1F830C
1F8300
1F8700
1FFF00
1F8F00
1F8700
1F8300
1F8100
1F8100
1F8100
1F8000
1F8000
1F8000
1F8000
1F8000
1F8000
1F8000
FFFC00
ENDCHAR
STARTCHAR 0047
ENCODING 71
SWIDTH 736 0
DWIDTH 28 0
BBX 24 29 3 0
BITMAP
001000
01EF18
030398
0E00F8
1E00F8
1C0078
3C0038
3C0038
7C0018
7C0018
7C0018
FC0008
FC0000
FC0000
FC0000
FC1FFF
FC01F8
FC01F8
FC01F8
FC01F8
7C01F8
7C01F8
7C01F8
3C01F8
3C01F8
1E0398
0E0318
070618
01DC18
ENDCHAR
STARTCHAR 0048
ENCODING 72
SWIDTH 815 0
DWIDTH 31 0
BBX 27 28 2 0
BITMAP
FFFBFFE0
1F803F00
1F803F00
1F803F00
1F803F00
1F803F00
1F803F00
1F803F00
1F803F00
1F803F00
1F803F00
1F803F00
1F803F00
1FFFFF00
1F803F00
1F803F00
1F803F00
1F803F00
1F803F00
1F803F00
1F803F00
1F803F00
1F803F00
1F803F00
1F803F00
1F803F00
1F803F00
FFFBFFE0
ENDCHAR
STARTCHAR 0049
ENCODING 73
SWIDTH 447 0
DWIDTH 17 0
BBX 13 28 2 0
BITMAP
FFF8
1F80
1F80
1F80
1F80
1F80
1F80
1F80
1F80
1F80
1F80
1F80
1F80
1F80
1F80
1F80
1F80
1F80
1F80
1F80
1F80
1F80
1F80
1F80
1F80
1F80
1F80
FFF8
ENDCHAR
STARTCHAR 004A
ENCODING 74
SWIDTH 526 0
DWIDTH 20 0
BBX 18 28 1 0
BITMAP
07FFC0
007E00
007E00
007E00
007E00
007E00
007E00
007E00
007E00
007E00
007E00
007E00
007E00
007E00
007E00
007E00
007E00
107E00
7C7E00
FC7E00
FC7E00
FC7E00
F87E00
F07C00
E07C00
607800
20F000
1FE000
ENDCHAR
STARTCHAR 004B
ENCODING 75
SWIDTH 763 0
DWIDTH 29 0
BBX 26 28 2 0
BITMAP
FFF1FF00
1F807800
1F807000
1F806000
1F804000
1F80C000
1F818000
1F830000
1F860000
1F860000
1F8E0000
1F9F0000
1FBF0000
1FFF8000
1FDF8000
1F9FC000
1F8FC000
1F8FE000
1F87E000
1F87F000
1F83F000
1F83F800
1F81F800
1F81FC00
1F80FC00
1F80FE00
1F80FE00
FFF3FFC0
ENDCHAR
STARTCHAR 004C
ENCODING 76
SWIDTH 657 0
DWIDTH 25 0
BBX 22 28 2 0
BITMAP
FFF800
1F8000
1F8000
1F8000
1F8000
1F8000
1F8000
1F8000
1F8000
1F8000
1F8000
1F8000
1F8000
1F8000
1F8000
1F8000
1F800C
1F800C
1F800C
1F800C
1F801C
1F801C
1F803C
1F803C
1F807C
1F80FC
1F81FC
FFFFFC
ENDCHAR
STARTCHAR 004D
ENCODING 77
SWIDTH 894 0
DWIDTH 34 0
BBX 31 28 2 0
BITMAP
FF800FFE
0F800FE0
0FC00FE0
0FC00FE0
0FC00FE0
0FE017E0
0FE017E0
0FF017E0
0DF017E0
0DF027E0
0DF827E0
0CF827E0
0CF827E0
0CFC47E0
0C7C47E0
0C7C47E0
0C7E47E0
0C3E87E0
0C3F87E0
0C3F87E0
0C1F87E0
0C1F07E0
0C1F07E0
0C0F07E0
0C0F07E0
1C0E07E0
3E0607E0
FF863FFE
ENDCHAR
STARTCHAR 004E
ENCODING 78
SWIDTH 789 0
DWIDTH 30 0
BBX 27 28 2 0
BITMAP
FF80FFE0
1FC03F00
1FC01E00
0FE00C00
07F00C00
07F00C00
07F80C00
07F80C00
06FC0C00
06FE0C00
067E0C00
063F0C00
063F8C00
061F8C00
061FCC00
060FEC00
0607EC00
0607FC00
0603FC00
0601FC00
0601FC00
0600FC00
0600FC00
06007C00
06003C00
0F003C00
1F801C00
FFE00C00
ENDCHAR
STARTCHAR 004F
ENCODING 79
SWIDTH 710 0
DWIDTH 27 0
BBX 22 28 3 1
BITMAP
01FE00
030300
060180
0E01C0
1C00E0
3C00F0
3C00F0
7C00F8
7C00F8
7C00F8
FC00FC
FC00FC
FC00FC
FC00FC
FC00FC
FC00FC
FC00FC
FC00FC
7C00F8
7C00F8
7C00F8
3C00F0
3C00F0
1C00E0
0E01C0
060180
030300
01FE00
ENDCHAR
STARTCHAR 0050
ENCODING 80
SWIDTH 710 0
DWIDTH 27 0
BBX 23 28 2 0
BITMAP
FFFF80
1F81F0
1F80F8
1F80FC
1F807C
1F807E
1F807E
1F807E
1F807E
1F807E
1F807C
1F80FC
1F80F8
1F81E0
1FFF80
1F8000
1F8000
1F8000
1F8000
1F8000
1F8000
1F8000
1F8000
1F8000
1F8000
1F8000
1F8000
FFF800
ENDCHAR
STARTCHAR 0051
ENCODING 81
SWIDTH 710 0
DWIDTH 27 0
BBX 22 37 3 -8
BITMAP
01FE00
030300
060180
0E01C0
1C00E0
3C00F0
3C00F0
7C00F8
7C00F8
7C00F8
FC00FC
FC00FC
FC00FC
FC00FC
FC00FC
FC00FC
FC00FC
FC00FC
7C00F8
7C00F8
7C00F8
3C38F0
3C4CF0
1E85E0
0E87E0
0787C0
038784
01EE04
001604
000604
00070C
00070C
0007FC
0007F8
0007F8
0003F0
0001E0
ENDCHAR
STARTCHAR 0052
ENCODING 82
SWIDTH 736 0
DWIDTH 28 0
BBX 25 28 2 0
BITMAP
FFFF0000
1F87C000
1F83E000
1F81F000
1F81F800
1F81F800
1F81F800
1F81F800
1F81F800
1F81F000
1F83E000
1F87C000
1FFE0000
1F878000
1F83C000
1F81F000
1F81F000
1F81F800
1F81F800
1F81F800
1F81F800
1F81F880
1F81F880
1F81F880
1F81F880
1F81F900
1F80F900
FFF87E00
ENDCHAR
STARTCHAR 0053
ENCODING 83
SWIDTH 605 0
DWIDTH 23 0
BBX 18 29 3 0
BITMAP
010000
1FE180
303980
601F80
600F80
E00780
F00380
F00380
F80180
FE0180
FF0180
7FC000
7FE000
3FF800
1FFC00
07FF00
03FF00
80FF80
807F80
C01FC0
C00FC0
C007C0
E003C0
E001C0
F00180
F80180
F80300
CE0200
87BC00
ENDCHAR
STARTCHAR 0054
ENCODING 84
SWIDTH 710 0
DWIDTH 27 0
BBX 24 28 2 0
BITMAP
FFFFFF
FC7E3F
F87E1F
F07E0F
E07E0F
E07E07
C07E07
C07E03
C07E03
C07E03
807E03
807E02
007E00
007E00
007E00
007E00
007E00
007E00
007E00
007E00
007E00
007E00
007E00
007E00
007E00
007E00
007E00
07FFE0
ENDCHAR
STARTCHAR 0055
ENCODING 85
SWIDTH 789 0
DWIDTH 30 0
BBX 26 28 3 0
BITMAP
FFF07FC0
1F801F00
1F800E00
1F800600
1F800600
1F800600
1F800600
1F800600
1F800600
1F800600
1F800600
1F800600
1F800600
1F800600
1F800600
1F800600
1F800600
1F800600
1F800600
1F800600
1F800600
1F800600
0F800C00
0FC00C00
07C01800
07E03800
01FCF000
00FFC000
ENDCHAR
STARTCHAR 0056
ENCODING 86
SWIDTH 789 0
DWIDTH 30 0
BBX 27 28 2 0
BITMAP
FFF87FE0
1FC00F00
0FC00600
0FC00600
07E00400
07E00C00
07E00800
03F00800
03F00800
03F01800
01F81000
01F81000
01FC3000
00FC2000
00FC2000
00FE6000
007E4000
007E4000
007FC000
003F8000
003F8000
003F8000
001F0000
001F0000
001F0000
000E0000
000E0000
000E0000
ENDCHAR
STARTCHAR 0057
ENCODING 87
SWIDTH 1078 0
DWIDTH 41 0
BBX 38 28 2 0
BITMAP
FFF3FFCFFC
1FC07E01E0
0FC07E00C0
0FC03E00C0
07C03F0080
07E03F0080
07E03F0180
07E03F8100
03F03F8100
03F07F8300
03F06FC300
01F84FC200
01F8CFC200
01F8C7E600
00FC87E600
00FC87E400
00FD83F400
007F83FC00
007F03F800
007F03F800
007F01F800
003F01F800
003E01F000
003E00F000
001E00F000
001C00F000
001C006000
000C006000
ENDCHAR
STARTCHAR 0058
ENCODING 88
SWIDTH 763 0
DWIDTH 29 0
BBX 26 28 2 0
BITMAP
FFF1FF80
1FE07C00
0FE03800
0FE03000
07F06000
07F06000
03F8C000
03F88000
01FD8000
00FF0000
00FE0000
007E0000
007F0000
003F0000
003F8000
001F8000
003FC000
006FC000
004FE000
00C7E000
0187F000
0183F000
0303F800
0201F800
0601FC00
0E00FC00
1E01FE00
FFC7FFC0
ENDCHAR
STARTCHAR 0059
ENCODING 89
SWIDTH 736 0
DWIDTH 28 0
BBX 25 28 2 0
BITMAP
FFF0FF80
1FC03C00
1FC01800
0FC01800
0FE01800
07E01000
07E03000
03F02000
03F02000
01F86000
01F84000
01FC4000
00FCC000
00FE8000
007F8000
007F8000
003F0000
003F0000
003F0000
003F0000
003F0000
003F0000
003F0000
003F0000
003F0000
003F0000
003F0000
01FFE000
ENDCHAR
STARTCHAR 005A
ENCODING 90
SWIDTH 657 0
DWIDTH 25 0
BBX 20 28 3 0
BITMAP
7FFFF0
7E07F0
7C07E0
780FE0
700FC0
601FC0
601F80
603F80
403F00
407F00
00FE00
00FE00
01FC00
01F800
03F800
03F000
07F000
07E010
0FE010
0FC010
1FC030
1F8030
3F8070
3F0070
7F00F0
7E01F0
FE07F0
FFFFF0
ENDCHAR
STARTCHAR 005B
ENCODING 91
SWIDTH 394 0
DWIDTH 15 0
BBX 9 35 3 -7
BITMAP
FF80
F800
F800
F800
F800
F800
F800
F800
F800
F800
F800
F800
F800
F800
F800
F800
F800
F800
F800
F800
F800
F800
F800
F800
F800
F800
F800
F800
F800
F800
F800
F800
F800
F800
FF80
ENDCHAR
STARTCHAR 005C
ENCODING 92
SWIDTH 447 0
DWIDTH 17 0
BBX 13 37 2 -8
BITMAP
C000
E000
E000
6000
7000
7000
3000
3800
3800
1800
1800
1C00
1C00
0C00
0E00
0E00
0600
0600
0700
0700
0300
0380
0380
0180
01C0
01C0
00C0
00C0
00E0
00E0
0060
0070
0070
0030
0030
0038
0038
ENDCHAR
STARTCHAR 005D
ENCODING 93
SWIDTH 394 0
DWIDTH 15 0
BBX 9 35 3 -7
BITMAP
FF80
0F80
0F80
0F80
0F80
0F80
0F80
0F80
0F80
0F80
0F80
0F80
0F80
0F80
0F80
0F80
0F80
0F80
0F80
0F80
0F80
0F80
0F80
0F80
0F80
0F80
0F80
0F80
0F80
0F80
0F80
0F80
0F80
0F80
FF80
ENDCHAR
STARTCHAR 005E
ENCODING 94
SWIDTH 578 0
DWIDTH 22 0
BBX 18 14 2 15
BITMAP
00C000
00C000
01E000
03F000
03F000
073800
073800
0E1C00
1C0E00
1C0E00
380700
380700
700380
E001C0
ENDCHAR
STARTCHAR 005F
ENCODING 95
SWIDTH 526 0
DWIDTH 20 0
BBX 20 3 0 -7
BITMAP
FFFFF0
FFFFF0
FFFFF0
ENDCHAR
STARTCHAR 0060
ENCODING 96
SWIDTH 447 0
DWIDTH 17 0
BBX 7 7 3 21
BITMAP
E0
F0
F0
78
3C
0C
06
ENDCHAR
STARTCHAR 0061
ENCODING 97
SWIDTH 526 0
DWIDTH 20 0
BBX 17 19 2 0
BITMAP
0FC000
18F000
307800
707800
7C7C00
7C7C00
7C7C00
00FC00
077C00
1C7C00
387C00
787C00
F87C00
F87C80
F87C80
F87C80
FCFD80
7FBF00
3E1E00
ENDCHAR
STARTCHAR 0062
ENCODING 98
SWIDTH 526 0
DWIDTH 20 0
BBX 18 28 0 0
BITMAP
FF0000
1F0000
1F0000
1F0000
1F0000
1F0000
1F0000
1F0000
1F0000
1F3C00
1F4E00
1F8F00
1F8780
1F0780
1F0780
1F07C0
1F07C0
1F07C0
1F07C0
1F07C0
1F07C0
1F07C0
1F0780
1F0780
1F8700
198F00
10CE00
107800
ENDCHAR
STARTCHAR 0063
ENCODING 99
SWIDTH 473 0
DWIDTH 18 0
BBX 14 19 2 0
BITMAP
07E0
0E30
3C18
3C1C
783C
787C
F87C
F878
F830
F800
F800
F800
F800
7804
7804
3804
1C08
0E10
07E0
ENDCHAR
STARTCHAR 0064
ENCODING 100
SWIDTH 552 0
DWIDTH 21 0
BBX 18 28 2 0
BITMAP
00FE00
003E00
003E00
003E00
003E00
003E00
003E00
003E00
003E00
0F3E00
1CBE00
3C7E00
787E00
783E00
783E00
F83E00
F83E00
F83E00
F83E00
F83E00
F83E00
F83E00
783E00
783E00
787E00
3C7E00
1CBE00
0F3FC0
ENDCHAR
STARTCHAR 0065
ENCODING 101
SWIDTH 473 0
DWIDTH 18 0
BBX 14 19 2 0
BITMAP
07C0
1CE0
3870
3878
7878
787C
F87C
F87C
F87C
FFFC
F800
F800
F800
7804
7804
3808
3C08
1E10
07E0
ENDCHAR
STARTCHAR 0066
ENCODING 102
SWIDTH 342 0
DWIDTH 13 0
BBX 14 28 1 0
BITMAP
01F0
0718
0F1C
1E3C
1E7C
3E7C
3E38
3E00
3E00
FFC0
3E00
3E00
3E00
3E00
3E00
3E00
3E00
3E00
3E00
3E00
3E00
3E00
3E00
3E00
3E00
3E00
3E00
FFC0
ENDCHAR
STARTCHAR 0067
ENCODING 103
SWIDTH 578 0
DWIDTH 22 0
BBX 19 28 2 -9
BITMAP
07E1C0
1E7660
3C3CE0
3C3CE0
7C3EC0
7C3E00
7C3E00
7C3E00
3C3C00
3C3C00
1E7800
07E000
380000
600000
600000
7FE000
7FFE00
7FFF00
3FFF80
1FFF80
600780
C00380
800380
800300
800300
400600
301C00
0FF000
ENDCHAR
STARTCHAR 0068
ENCODING 104
SWIDTH 578 0
DWIDTH 22 0
BBX 20 28 1 0
BITMAP
FF0000
1F0000
1F0000
1F0000
1F0000
1F0000
1F0000
1F0000
1F0000
1F1E00
1F6F00
1F8780
1F87C0
1F87C0
1F07C0
1F07C0
1F07C0
1F07C0
1F07C0
1F07C0
1F07C0
1F07C0
1F07C0
1F07C0
1F07C0
1F07C0
1F07C0
FFDFF0
ENDCHAR
STARTCHAR 0069
ENCODING 105
SWIDTH 315 0
DWIDTH 12 0
BBX 8 28 2 0
BITMAP
3C
7E
7E
7E
7E
3C
00
00
00
FC
7C
7C
7C
7C
7C
7C
7C
7C
7C
7C
7C
7C
7C
7C
7C
7C
7C
FF
ENDCHAR
STARTCHAR 006A
ENCODING 106
SWIDTH 342 0
DWIDTH 13 0
BBX 12 37 -2 -9
BITMAP
01E0
03F0
03F0
03F0
03F0
01E0
0000
0000
0000
0FE0
03E0
03E0
03E0
03E0
03E0
03E0
03E0
03E0
03E0
03E0
03E0
03E0
03E0
03E0
03E0
03E0
03E0
03E0
03E0
03E0
7BE0
FBE0
FBE0
F3C0
E3C0
6780
1E00
ENDCHAR
STARTCHAR 006B
ENCODING 107
SWIDTH 552 0
DWIDTH 21 0
BBX 20 28 1 0
BITMAP
FF0000
1F0000
1F0000
1F0000
1F0000
1F0000
1F0000
1F0000
1F0000
1F1FC0
1F0700
1F0600
1F0400
1F0800
1F1000
1F1000
1F3000
1F7800
1FF800
1FBC00
1F3C00
1F1E00
1F1F00
1F0F00
1F0F80
1F0F80
1F0FC0
FFDFF0
ENDCHAR
STARTCHAR 006C
ENCODING 108
SWIDTH 315 0
DWIDTH 12 0
BBX 11 28 1 0
BITMAP
FF00
1F00
1F00
1F00
1F00
1F00
1F00
1F00
1F00
1F00
1F00
1F00
1F00
1F00
1F00
1F00
1F00
1F00
1F00
1F00
1F00
1F00
1F00
1F00
1F00
1F00
1F00
FFE0
ENDCHAR
STARTCHAR 006D
ENCODING 109
SWIDTH 789 0
DWIDTH 30 0
BBX 27 19 2 0
BITMAP
FE3C1E00
3EDE6F00
3F1F8F00
3F1F8F80
3F1F8F80
3E1F0F80
3E1F0F80
3E1F0F80
3E1F0F80
3E1F0F80
3E1F0F80
3E1F0F80
3E1F0F80
3E1F0F80
3E1F0F80
3E1F0F80
3E1F0F80
3E1F0F80
FF3FDFE0
ENDCHAR
STARTCHAR 006E
ENCODING 110
SWIDTH 578 0
DWIDTH 22 0
BBX 19 19 2 0
BITMAP
FE3C00
3EDE00
3F0F00
3F0F80
3F0F80
3E0F80
3E0F80
3E0F80
3E0F80
3E0F80
3E0F80
3E0F80
3E0F80
3E0F80
3E0F80
3E0F80
3E0F80
3E0F80
FFBFE0
ENDCHAR
STARTCHAR 006F
ENCODING 111
SWIDTH 526 0
DWIDTH 20 0
BBX 16 19 2 0
BITMAP
07C0
0C70
1C38
383C
781E
781E
F81E
F81F
F81F
F81F
F81F
F81F
F81E
781E
781E
383C
1C38
0C70
07C0
ENDCHAR
STARTCHAR 0070
ENCODING 112
SWIDTH 552 0
DWIDTH 21 0
BBX 18 28 1 -9
BITMAP
FF3C00
1F4E00
1F8F00
1F8780
1F0780
1F0780
1F07C0
1F07C0
1F07C0
1F07C0
1F07C0
1F07C0
1F07C0
1F0780
1F0780
1F8780
1F8F00
1F4E00
1F3C00
1F0000
1F0000
1F0000
1F0000
1F0000
1F0000
1F0000
1F0000
FFC000
ENDCHAR
STARTCHAR 0071
ENCODING 113
SWIDTH 526 0
DWIDTH 20 0
BBX 17 28 2 -9
BITMAP
078200
1CC200
3C6600
787E00
783E00
783E00
F83E00
F83E00
F83E00
F83E00
F83E00
F83E00
F83E00
783E00
783E00
787E00
3C7E00
1CBE00
0F3E00
003E00
003E00
003E00
003E00
003E00
003E00
003E00
003E00
00FF80
ENDCHAR
STARTCHAR 0072
ENCODING 114
SWIDTH 447 0
DWIDTH 17 0
BBX 14 19 2 0
BITMAP
FE30
3E78
3EBC
3F3C
3F7C
3E7C
3E38
3E00
3E00
3E00
3E00
3E00
3E00
3E00
3E00
3E00
3E00
3E00
FF80
ENDCHAR
STARTCHAR 0073
ENCODING 115
SWIDTH 421 0
DWIDTH 16 0
BBX 13 19 2 0
BITMAP
1F10
61D0
6070
E030
E030
F010
F800
7E00
7F80
3FE0
0FF0
87F0
C1F8
C078
E038
E018
F010
9C30
87C0
ENDCHAR
STARTCHAR 0074
ENCODING 116
SWIDTH 368 0
DWIDTH 14 0
BBX 12 27 1 0
BITMAP
0600
0600
0600
0600
0600
0E00
1E00
3E00
FFE0
3E00
3E00
3E00
3E00
3E00
3E00
3E00
3E00
3E00
3E10
3E10
3E10
3E10
3E10
3E20
3E20
1FC0
0780
ENDCHAR
STARTCHAR 0075
ENCODING 117
SWIDTH 552 0
DWIDTH 21 0
BBX 19 19 1 0
BITMAP
FE3F80
3E0F80
3E0F80
3E0F80
3E0F80
3E0F80
3E0F80
3E0F80
3E0F80
3E0F80
3E0F80
3E0F80
3E0F80
3E0F80
3E1F80
3E1F80
1E2F80
1E4F80
078FE0
ENDCHAR
STARTCHAR 0076
ENCODING 118
SWIDTH 526 0
DWIDTH 20 0
BBX 18 19 1 0
BITMAP
FF8FC0
3E0300
1E0200
1E0200
1F0200
0F0400
0F0400
0F8400
078800
07C800
07D800
03D000
03F000
03F000
01E000
01E000
00E000
00C000
00C000
ENDCHAR
STARTCHAR 0077
ENCODING 119
SWIDTH 789 0
DWIDTH 30 0
BBX 28 19 1 0
BITMAP
FF3FE7F0
3E0F81C0
1E078180
1E078180
1F07C100
0F07C100
0F07C300
0F8FE200
0789E200
0789E600
07D9F400
03D0F400
03F0F800
03F0F800
01E0F800
01E07000
01C07000
00C07000
00C02000
ENDCHAR
STARTCHAR 0078
ENCODING 120
SWIDTH 526 0
DWIDTH 20 0
BBX 18 19 1 0
BITMAP
FF3F80
7E0E00
3E0C00
1F0800
1F1000
0FB000
0FA000
07C000
03C000
03E000
01F000
03F000
02F800
04F800
0C7C00
087E00
183E00
383F00
FE7FC0
ENDCHAR
STARTCHAR 0079
ENCODING 121
SWIDTH 526 0
DWIDTH 20 0
BBX 19 28 0 -9
BITMAP
FFCFE0
3F0380
1F0300
1F0200
0F0200
0F8200
0F8200
07C400
07C400
03C400
03E800
03E800
01F800
01F800
00F000
00F000
007000
006000
006000
002000
004000
0C4000
1E4000
3E4000
3E8000
3C8000
1D0000
0E0000
ENDCHAR
STARTCHAR 007A
ENCODING 122
SWIDTH 447 0
DWIDTH 17 0
BBX 14 19 1 0
BITMAP
7FFC
787C
70F8
60F8
41F0
41E0
43E0
03C0
07C0
0780
0F80
1F04
1F04
3E04
3E0C
7C0C
781C
F83C
FFFC
ENDCHAR
STARTCHAR 007B
ENCODING 123
SWIDTH 421 0
DWIDTH 16 0
BBX 12 35 2 -7
BITMAP
01F0
0780
0F00
0F00
1F00
1F00
1F00
1F00
1F00
1F00
1F00
1F00
1F00
1F00
1E00
1E00
3800
E000
3800
1E00
1E00
1F00
1F00
1F00
1F00
1F00
1F00
1F00
1F00
1F00
1F00
0F00
0F00
0780
01F0
ENDCHAR
STARTCHAR 007C
ENCODING 124
SWIDTH 289 0
DWIDTH 11 0
BBX 3 36 4 -8
BITMAP
E0
E0
E0
E0
E0
E0
E0
E0
E0
E0
E0
E0
E0
E0
E0
E0
E0
E0
E0
E0
E0
E0
E0
E0
E0
E0
E0
E0
E0
E0
E0
E0
E0
E0
E0
E0
ENDCHAR
STARTCHAR 007D
ENCODING 125
SWIDTH 421 0
DWIDTH 16 0
BBX 12 37 2 -8
BITMAP
8000
F000
1C00
0F00
0F00
0F80
0F80
0F80
0F80
0F80
0F80
0F80
0F80
0F80
0F80
0F80
0780
03C0
0070
03C0
0780
0F80
0F80
0F80
0F80
0F80
0F80
0F80
0F80
0F80
0F80
0F80
0F00
0F00
1C00
F800
8000
ENDCHAR
STARTCHAR 007E
ENCODING 126
SWIDTH 657 0
DWIDTH 25 0
BBX 21 8 2 6
BITMAP
3E0030
7FC010
FFF008
87FC08
81FF18
807FF8
C01FF0
6003E0
ENDCHAR
STARTCHAR 00A0
ENCODING 160
SWIDTH 289 0
DWIDTH 11 0
BBX 0 0 0 0
BITMAP
ENDCHAR
STARTCHAR 00A1
ENCODING 161
SWIDTH 263 0
DWIDTH 10 0
BBX 6 29 2 -9
BITMAP
78
FC
FC
FC
FC
78
00
00
20
30
30
30
30
30
30
30
70
78
78
78
78
FC
FC
FC
FC
FC
FC
78
78
ENDCHAR
STARTCHAR 00A2
ENCODING 162
SWIDTH 578 0
DWIDTH 22 0
BBX 14 28 4 -5
BITMAP
0180
0180
0180
0180
03C0
0FB0
1D98
3D98
79B8
79B8
F9B8
F9B8
F980
F980
F980
F980
F980
F984
7984
7984
3D88
1D98
0FB0
03C0
0180
0180
0180
0180
ENDCHAR
STARTCHAR 00A3
ENCODING 163
SWIDTH 710 0
DWIDTH 27 0
BBX 23 29 2 0
BITMAP
000100
001EE0
007810
00F818
00F01C
01F03C
01F07C
03F07C
03F078
03F000
03F000
03F000
03F000
1FF040
01FF80
01F800
00F800
00F800
00F800
007800
007800
007000
007006
3C7004
7FE01C
83FFF8
81FFF0
C33FE0
7C1FC0
ENDCHAR
STARTCHAR 00A4
ENCODING 164
SWIDTH 552 0
DWIDTH 21 0
BBX 18 20 2 3
BITMAP
000080
C3E180
EFF9C0
FFFF80
780F00
700700
600300
E00180
C00180
C00180
C00180
C00180
E00180
600300
700700
780F00
FFFF80
EFF9C0
C3E180
000080
ENDCHAR
STARTCHAR 00A5
ENCODING 165
SWIDTH 605 0
DWIDTH 23 0
BBX 21 28 1 0
BITMAP
FFC3F8
3F00E0
3F00C0
1F80C0
1F8080
1FC080
0FC100
0FC100
07E300
07E200
07F600
03F400
03FC00
01F800
3FFFC0
01F800
01F800
01F800
3FFFC0
01F800
01F800
01F800
01F800
01F800
01F800
01F800
01F800
0FFF80
ENDCHAR
STARTCHAR 00A6
ENCODING 166
SWIDTH 289 0
DWIDTH 11 0
BBX 3 35 4 -7
BITMAP
E0
E0
E0
E0
E0
E0
E0
E0
E0
E0
E0
E0
E0
E0
00
00
00
00
00
00
00
E0
E0
E0
E0
E0
E0
E0
E0
E0
E0
E0
E0
E0
E0
ENDCHAR
STARTCHAR 00A7
ENCODING 167
SWIDTH 631 0
DWIDTH 24 0
BBX 17 36 2 -8
BITMAP
01F000
060C00
0C0600
180700
381F00
383F00
383F00
383E00
3C1C00
3F0000
3FC000
1FE000
3FF800
67FE00
43FF00
C0FF00
C03F80
E00F80
F80380
FE0180
7F8180
7FE100
3FF900
0FFE00
03FE00
00FE00
003F00
0E0F00
1F0700
3F0700
3F0700
3E0700
380600
180C00
0C1800
07F000
ENDCHAR
STARTCHAR 00A8
ENCODING 168
SWIDTH 421 0
DWIDTH 16 0
BBX 12 5 2 22
BITMAP
70E0
F9F0
F9F0
F9F0
70E0
ENDCHAR
STARTCHAR 00A9
ENCODING 169
SWIDTH 842 0
DWIDTH 32 0
BBX 28 28 2 1
BITMAP
007FE000
01801800
06000C00
0C000300
18000100
101E2180
3071A0C0
60E0E040
61E06060
61E06060
C1E02020
C3E02030
C3E02030
C3E00030
C3E00030
C3E00030
C3E01030
C1E01020
41E03060
61E02060
60F06040
3070C0C0
101F0180
18000100
0C000300
06000C00
01801800
007FE000
ENDCHAR
STARTCHAR 00AA
ENCODING 170
SWIDTH 394 0
DWIDTH 15 0
BBX 11 14 2 14
BITMAP
1E00
2300
6380
7380
7380
0F80
3380
6380
E380
E3A0
E3A0
7DC0
0000
FFE0
ENDCHAR
STARTCHAR 00AB
ENCODING 171
SWIDTH 473 0
DWIDTH 18 0
BBX 10 16 4 1
BITMAP
1840
30C0
7080
6180
E180
E380
E380
E380
E380
E380
E380
6180
6180
30C0
1840
0800
ENDCHAR
STARTCHAR 00AC
ENCODING 172
SWIDTH 578 0
DWIDTH 22 0
BBX 19 11 2 5
BITMAP
FFFFE0
FFFFE0
FFFFE0
0000E0
0000E0
0000E0
0000E0
0000E0
0000E0
0000E0
0000E0
ENDCHAR
STARTCHAR 00AD
ENCODING 173
SWIDTH 368 0
DWIDTH 14 0
BBX 10 4 2 8
BITMAP
FFC0
FFC0
FFC0
FFC0
ENDCHAR
STARTCHAR 00AE
ENCODING 174
SWIDTH 842 0
DWIDTH 32 0
BBX 28 28 2 1
BITMAP
007FE000
01801800
06000C00
0C000300
18000100
13FFC180
30F9E0C0
60F8F040
60F8F860
60F8F860
C0F8F820
C0F8F030
C0F9E030
C0FE0030
C0F9C030
C0F9E030
C0F9F030
C0F9F020
40F9F260
60F9F260
60F9F240
30F9F6C0
13FEFD80
18007900
0C000300
06000C00
01801800
007FE000
ENDCHAR
STARTCHAR 00AF
ENCODING 175
SWIDTH 421 0
DWIDTH 16 0
BBX 10 3 3 23
BITMAP
FFC0
FFC0
FFC0
ENDCHAR
STARTCHAR 00B0
ENCODING 176
SWIDTH 578 0
DWIDTH 22 0
BBX 12 11 5 18
BITMAP
1F80
7FE0
7060
E030
C030
C030
C030
E070
70E0
3FC0
1F80
ENDCHAR
STARTCHAR 00B1
ENCODING 177
SWIDTH 947 0
DWIDTH 36 0
BBX 32 29 2 -2
BITMAP
0001C000
0001C000
0001C000
0001C000
0001C000
0001C000
0001C000
0001C000
0001C000
0001C000
FFFFFFFF
FFFFFFFF
FFFFFFFF
0001C000
0001C000
0001C000
0001C000
0001C000
0001C000
0001C000
0001C000
0001C000
0001C000
0001C000
00000000
00000000
FFFFFFFF
FFFFFFFF
FFFFFFFF
ENDCHAR
STARTCHAR 00B2
ENCODING 178
SWIDTH 447 0
DWIDTH 17 0
BBX 11 17 3 11
BITMAP
1F00
63C0
E1E0
E1E0
F1E0
F1E0
73C0
0780
0E00
1C00
3020
6020
4060
FFE0
FFE0
8FC0
8780
ENDCHAR
STARTCHAR 00B3
ENCODING 179
SWIDTH 421 0
DWIDTH 16 0
BBX 12 18 2 10
BITMAP
1F00
33C0
61E0
71E0
79E0
79E0
01C0
0380
1E00
03C0
01E0
01F0
79F0
F9F0
F1F0
E1E0
63C0
1F00
ENDCHAR
STARTCHAR 00B4
ENCODING 180
SWIDTH 447 0
DWIDTH 17 0
BBX 7 7 7 21
BITMAP
0E
1E
1E
3C
78
60
C0
ENDCHAR
STARTCHAR 00B5
ENCODING 181
SWIDTH 578 0
DWIDTH 22 0
BBX 19 30 2 -11
BITMAP
701C00
701C00
F83E00
F83E00
F83E00
F83E00
F83E00
F03E00
F03E00
F03E00
701C00
701C00
601C20
601820
203860
207FE0
3DFFC0
2FE7C0
27C3C0
200000
200000
700000
700000
780000
780000
7C0000
7C0000
7C0000
7C0000
380000
ENDCHAR
STARTCHAR 00B6
ENCODING 182
SWIDTH 605 0
DWIDTH 23 0
BBX 18 33 3 -5
BITMAP
0FFFC0
3FCE00
7FCE00
7FCE00
FFCE00
FFCE00
FFCE00
FFCE00
FFCE00
FFCE00
FFCE00
FFCE00
7FCE00
3FCE00
07CE00
01CE00
01CE00
01CE00
01CE00
01CE00
01CE00
01CE00
01CE00
01CE00
01CE00
01CE00
01CE00
01CE00
01CE00
01CE00
01CE00
01CE00
01CE00
ENDCHAR
STARTCHAR 00B7
ENCODING 183
SWIDTH 263 0
DWIDTH 10 0
BBX 6 6 2 10
BITMAP
78
FC
FC
FC
FC
78
ENDCHAR
STARTCHAR 00B8
ENCODING 184
SWIDTH 447 0
DWIDTH 17 0
BBX 7 8 5 -8
BITMAP
20
20
38
0C
0E
0E
0E
FC
ENDCHAR
STARTCHAR 00B9
ENCODING 185
SWIDTH 421 0
DWIDTH 16 0
BBX 8 17 4 11
BITMAP
0C
1C
FC
3C
3C
3C
3C
3C
3C
3C
3C
3C
3C
3C
3C
3C
FF
ENDCHAR
STARTCHAR 00BA
ENCODING 186
SWIDTH 368 0
DWIDTH 14 0
BBX 10 14 2 14
BITMAP
1E00
3300
7380
F3C0
F3C0
F3C0
F3C0
F3C0
F3C0
7380
3300
1E00
0000
FFC0
ENDCHAR
STARTCHAR 00BB
ENCODING 187
SWIDTH 473 0
DWIDTH 18 0
BBX 10 16 4 1
BITMAP
0600
8300
C300
6180
6180
71C0
71C0
71C0
71C0
71C0
61C0
6180
4180
C300
8600
0400
ENDCHAR
STARTCHAR 00BC
ENCODING 188
SWIDTH 894 0
DWIDTH 34 0
BBX 28 29 4 0
BITMAP
00000C00
0C000C00
1C001800
FC001800
3C003000
3C002000
3C006000
3C00C000
3C00C000
3C018000
3C018000
3C030000
3C020380
3C060380
3C0C0780
3C0C0F80
3C180F80
FF181F80
00301780
00202780
00606780
00C04780
00C0C780
0180FFF0
01800780
03000780
02000780
06000780
0C003FF0
ENDCHAR
STARTCHAR 00BD
ENCODING 189
SWIDTH 894 0
DWIDTH 34 0
BBX 27 29 4 0
BITMAP
00000C00
0C001800
1C001800
FC003000
3C003000
3C006000
3C006000
3C00C000
3C018000
3C018000
3C030000
3C031F00
3C0673C0
3C06E1E0
3C0CE1E0
3C08F1E0
FF18F1E0
003073C0
00300380
00600700
00600E00
00C01800
00803020
01804020
03004060
0300BFE0
0600FFE0
06009FC0
0C008780
ENDCHAR
STARTCHAR 00BE
ENCODING 190
SWIDTH 894 0
DWIDTH 34 0
BBX 30 29 2 0
BITMAP
00000300
1F000300
33C00600
61E00400
71E00C00
79E00800
79E01800
01C03000
03803000
1E006000
03C04000
01E0C000
31F080E0
F9F180E0
F9F301E0
E1E203E0
63E603E0
3F8405E0
000C05E0
000809E0
001019E0
003011E0
002031E0
00603FFC
004001E0
00C001E0
008001E0
010001E0
03000FFC
ENDCHAR
STARTCHAR 00BF
ENCODING 191
SWIDTH 473 0
DWIDTH 18 0
BBX 12 29 3 -9
BITMAP
1E00
3F00
3F00
3F00
3F00
1E00
0000
0E00
1100
2080
2080
2080
0180
0300
0300
0600
0E00
1C00
3C60
7820
7830
F810
F810
F810
F810
F830
7C60
3FC0
1F80
ENDCHAR
STARTCHAR 00C0
ENCODING 192
SWIDTH 763 0
DWIDTH 29 0
BBX 26 37 2 0
BITMAP
00E00000
00F00000
00F00000
00780000
00380000
000C0000
00060000
00000000
00040000
00060000
000E0000
000E0000
000F0000
001F0000
001F0000
001F8000
003F8000
002F8000
002FC000
006FC000
004FC000
0047C000
00C7E000
0087E000
0083E000
0183F000
0103F000
0301F000
03FFF800
0201F800
0600F800
0600FC00
0400FC00
0C00FC00
0C007C00
1E00FE00
FFC7FFC0
ENDCHAR
STARTCHAR 00C1
ENCODING 193
SWIDTH 763 0
DWIDTH 29 0
BBX 26 37 2 0
BITMAP
0000E000
0000E000
0001E000
0003C000
00038000
00060000
000C0000
00000000
00040000
00060000
000E0000
000E0000
001F0000
001F0000
001F0000
003F8000
003F8000
002F8000
006FC000
006FC000
004FC000
00C7C000
00C7E000
0087E000
0183E000
0183F000
0103F000
0301F000
03FFF800
0201F800
0600F800
0600FC00
0400FC00
0C00FC00
0C007E00
3E00FF00
FFC7FFC0
ENDCHAR
STARTCHAR 00C2
ENCODING 194
SWIDTH 763 0
DWIDTH 29 0
BBX 26 37 2 0
BITMAP
00040000
000E0000
000E0000
001F0000
003B8000
00E0C000
01803000
00000000
00040000
00060000
000E0000
000E0000
000F0000
001F0000
001F0000
001F8000
003F8000
002F8000
002FC000
006FC000
004FC000
0047C000
00C7E000
0087E000
0083E000
0183F000
0103F000
0301F000
03FFF800
0201F800
0600F800
0600FC00
0400FC00
0C00FC00
0C007C00
1E00FE00
FFC7FFC0
ENDCHAR
STARTCHAR 00C3
ENCODING 195
SWIDTH 763 0
DWIDTH 29 0
BBX 26 36 2 0
BITMAP
00382000
007E2000
00FFE000
008FC000
00838000
00000000
00000000
00000000
00060000
000E0000
000E0000
000F0000
001F0000
001F0000
003F8000
003F8000
002F8000
006FC000
006FC000
004FC000
00C7C000
00C7E000
0087E000
0183E000
0183F000
0103F000
0301F000
03FFF800
0201F800
0600F800
0600FC00
0400FC00
0C00FC00
0C007E00
3E00FF00
FFC7FFC0
ENDCHAR
STARTCHAR 00C4
ENCODING 196
SWIDTH 763 0
DWIDTH 29 0
BBX 26 36 2 0
BITMAP
00E0E000
01F1F000
01F1F000
01F1F000
00E0E000
00000000
00000000
00040000
000E0000
000E0000
000E0000
001F0000
001F0000
001F0000
003F8000
003F8000
003F8000
006FC000
006FC000
004FC000
00C7C000
00C7E000
0087E000
0183E000
0183F000
0103F000
0301F000
03FFF800
0201F800
0600F800
0600FC00
0400FC00
0C007C00
0C007C00
1E007E00
FFC7FFC0
ENDCHAR
STARTCHAR 00C5
ENCODING 197
SWIDTH 763 0
DWIDTH 29 0
BBX 26 37 2 0
BITMAP
001F0000
003F8000
0061C000
0060C000
0060C000
0071C000
003F8000
001E0000
00000000
00060000
000E0000
000E0000
000F0000
001F0000
001F0000
001F8000
003F8000
003F8000
002F8000
006FC000
004FC000
0047C000
0087E000
0087E000
0083E000
0103F000
0103F000
0301F000
03FFF800
0201F800
0600F800
0400FC00
0400FC00
0C00FC00
0C007C00
1C00FE00
FFC7FFC0
ENDCHAR
STARTCHAR 00C6
ENCODING 198
SWIDTH 1000 0
DWIDTH 38 0
BBX 36 28 1 0
BITMAP
0007FFFFE0
0001FE03E0
0001FE01E0
0001FE00E0
0001FE00E0
00037E0060
00037E0060
00067E0020
00067E0420
000C7E0400
000C7E0C00
00187E0C00
00187E1C00
00307FFC00
00307E3C00
00607E1C00
00607E0C00
00C07E0430
00C07E0430
01FFFE0430
01807E0030
03007E0070
03007E0070
06007E00F0
06007E00F0
0E007E01F0
3F007E07F0
FFC7FFFFF0
ENDCHAR
STARTCHAR 00C7
ENCODING 199
SWIDTH 684 0
DWIDTH 26 0
BBX 21 37 3 -8
BITMAP
01FE30
070330
0E01F0
1E00F0
3C00F0
3C0070
7C0070
7C0030
7C0030
FC0030
FC0030
FC0010
FC0000
FC0000
FC0000
FC0000
FC0000
FC0018
FC0018
7C0010
7C0010
7C0010
3C0030
3C0020
1E0060
0E00C0
070180
01FE00
002000
006000
007800
001C00
000E00
000E00
000E00
021C00
01F800
ENDCHAR
STARTCHAR 00C8
ENCODING 200
SWIDTH 684 0
DWIDTH 26 0
BBX 22 37 2 0
BITMAP
018000
01C000
01E000
00E000
007000
001800
000800
000000
000000
FFFFFC
0FC07C
0FC03C
0FC01C
0FC01C
0FC00C
0FC00C
0FC00C
0FC104
0FC100
0FC300
0FC300
0FC700
0FFF00
0FC700
0FC300
0FC300
0FC104
0FC104
0FC104
0FC00C
0FC00C
0FC00C
0FC01C
0FC01C
0FC03C
0FC0FC
FFFFFC
ENDCHAR
STARTCHAR 00C9
ENCODING 201
SWIDTH 684 0
DWIDTH 26 0
BBX 22 37 2 0
BITMAP
0001C0
0003C0
0003C0
000780
000E00
000C00
001800
000000
000000
FFFFFC
0FC07C
0FC03C
0FC01C
0FC01C
0FC00C
0FC00C
0FC004
0FC104
0FC100
0FC300
0FC300
0FC700
0FFF00
0FC700
0FC300
0FC300
0FC104
0FC104
0FC104
0FC004
0FC00C
0FC00C
0FC01C
0FC01C
0FC03C
0FC0FC
FFFFFC
ENDCHAR
STARTCHAR 00CA
ENCODING 202
SWIDTH 684 0
DWIDTH 26 0
BBX 22 37 2 0
BITMAP
000800
001800
003C00
007E00
00E700
01C180
030040
000000
000000
FFFFFC
0FC07C
0FC03C
0FC01C
0FC01C
0FC00C
0FC00C
0FC00C
0FC104
0FC100
0FC300
0FC300
0FC700
0FFF00
0FC700
0FC300
0FC300
0FC104
0FC104
0FC104
0FC00C
0FC00C
0FC00C
0FC01C
0FC01C
0FC03C
0FC0FC
FFFFFC
ENDCHAR
STARTCHAR 00CB
ENCODING 203
SWIDTH 684 0
DWIDTH 26 0
BBX 22 36 2 0
BITMAP
01C1C0
03E3E0
03E3E0
03E3E0
01C1C0
000000
000000
000000
FFFFFC
0FC07C
0FC03C
0FC01C
0FC01C
0FC00C
0FC00C
0FC004
0FC104
0FC100
0FC300
0FC300
0FC700
0FFF00
0FC700
0FC300
0FC300
0FC104
0FC104
0FC104
0FC004
0FC00C
0FC00C
0FC01C
0FC01C
0FC03C
0FC0FC
FFFFFC
ENDCHAR
STARTCHAR 00CC
ENCODING 204
SWIDTH 447 0
DWIDTH 17 0
BBX 13 37 2 0
BITMAP
6000
7000
7800
3800
1C00
0E00
0200
0000
0000
FFF8
1F80
1F80
1F80
1F80
1F80
1F80
1F80
1F80
1F80
1F80
1F80
1F80
1F80
1F80
1F80
1F80
1F80
1F80
1F80
1F80
1F80
1F80
1F80
1F80
1F80
1F80
FFF8
ENDCHAR
STARTCHAR 00CD
ENCODING 205
SWIDTH 447 0
DWIDTH 17 0
BBX 13 37 2 0
BITMAP
0070
00F0
01F0
01E0
0380
0700
0400
0000
0000
FFF8
1F80
1F80
1F80
1F80
1F80
1F80
1F80
1F80
1F80
1F80
1F80
1F80
1F80
1F80
1F80
1F80
1F80
1F80
1F80
1F80
1F80
1F80
1F80
1F80
1F80
1F80
FFF8
ENDCHAR
STARTCHAR 00CE
ENCODING 206
SWIDTH 447 0
DWIDTH 17 0
BBX 13 37 2 0
BITMAP
0600
0600
0F00
1F80
39C0
7070
C018
0000
0000
FFF8
1F80
1F80
1F80
1F80
1F80
1F80
1F80
1F80
1F80
1F80
1F80
1F80
1F80
1F80
1F80
1F80
1F80
1F80
1F80
1F80
1F80
1F80
1F80
1F80
1F80
1F80
FFF8
ENDCHAR
STARTCHAR 00CF
ENCODING 207
SWIDTH 421 0
DWIDTH 16 0
BBX 13 36 2 0
BITMAP
7070
F8F8
F8F8
F8F8
7070
0000
0000
0000
FFF8
1F80
1F80
1F80
1F80
1F80
1F80
1F80
1F80
1F80
1F80
1F80
1F80
1F80
1F80
1F80
1F80
1F80
1F80
1F80
1F80
1F80
1F80
1F80
1F80
1F80
1F80
FFF8
ENDCHAR
STARTCHAR 00D0
ENCODING 208
SWIDTH 763 0
DWIDTH 29 0
BBX 25 28 2 0
BITMAP
FFFF8000
1F80E000
1F807000
1F803800
1F803C00
1F801E00
1F801E00
1F801F00
1F801F00
1F801F00
1F801F80
1F801F80
1F801F80
FFF81F80
1F801F80
1F801F80
1F801F80
1F801F80
1F801F00
1F801F00
1F801F00
1F801E00
1F801E00
1F803C00
1F803800
1F807000
1F80E000
FFFF8000
ENDCHAR
STARTCHAR 00D1
ENCODING 209
SWIDTH 789 0
DWIDTH 30 0
BBX 27 36 2 0
BITMAP
00180000
003E2000
007FE000
0047C000
00018000
00000000
00000000
00000000
FF80FFE0
1FC03F00
1FC01E00
0FE00C00
07F00C00
07F00C00
07F80C00
07F80C00
06FC0C00
06FE0C00
067E0C00
063F0C00
063F8C00
061F8C00
061FCC00
060FEC00
0607EC00
0607FC00
0603FC00
0601FC00
0601FC00
0600FC00
0600FC00
06007C00
06003C00
0F003C00
1F801C00
FFE00C00
ENDCHAR
STARTCHAR 00D2
ENCODING 210
SWIDTH 710 0
DWIDTH 27 0
BBX 22 37 3 1
BITMAP
078000
078000
03C000
01C000
00E000
007000
001000
000000
000000
01FE00
030300
060180
0E01C0
1C00E0
3C00F0
3C00F0
7C00F8
7C00F8
7C00F8
FC00FC
FC00FC
FC00FC
FC00FC
FC00FC
FC00FC
FC00FC
FC00FC
7C00F8
7C00F8
7C00F8
3C00F0
3C00F0
1C00E0
0E01C0
060180
030300
01FE00
ENDCHAR
STARTCHAR 00D3
ENCODING 211
SWIDTH 710 0
DWIDTH 27 0
BBX 22 37 3 1
BITMAP
000780
000780
000F00
000E00
001C00
003800
002000
000000
000000
01FE00
030300
060180
0E01C0
1C00E0
3C00F0
3C00F0
7C00F8
7C00F8
7C00F8
FC00FC
FC00FC
FC00FC
FC00FC
FC00FC
FC00FC
FC00FC
FC00FC
7C00F8
7C00F8
7C00F8
3C00F0
3C00F0
1C00E0
0E01C0
060180
030300
01FE00
ENDCHAR
STARTCHAR 00D4
ENCODING 212
SWIDTH 710 0
DWIDTH 27 0
BBX 22 37 3 0
BITMAP
003000
003000
007800
00FC00
01CE00
038700
060180
000000
000000
01FE00
030300
060180
0E01C0
1C00E0
3C00F0
3C00F0
7C00F8
7C00F8
7C00F8
FC00FC
FC00FC
FC00FC
FC00FC
FC00FC
FC00FC
FC00FC
FC00FC
7C00F8
7C00F8
7C00F8
3C00F0
3C00F0
1C00E0
0E01C0
060180
030300
01FE00
ENDCHAR
STARTCHAR 00D5
ENCODING 213
SWIDTH 710 0
DWIDTH 27 0
BBX 22 36 3 0
BITMAP
01C080
03F180
03FF00
043F00
040C00
000000
000000
000000
01FE00
030300
060180
0E01C0
1C00E0
3C00F0
3C00F0
7C00F8
7C00F8
7C00F8
FC00FC
FC00FC
FC00FC
FC00FC
FC00FC
FC00FC
FC00FC
FC00FC
7C00F8
7C00F8
7C00F8
3C00F0
3C00F0
1C00E0
0E01C0
060180
030300
01FE00
ENDCHAR
STARTCHAR 00D6
ENCODING 214
SWIDTH 710 0
DWIDTH 27 0
BBX 22 36 3 0
BITMAP
038380
07C7C0
07C7C0
07C7C0
038380
000000
000000
000000
01FE00
030300
060180
0E01C0
1C00E0
3C00F0
3C00F0
7C00F8
7C00F8
7C00F8
FC00FC
FC00FC
FC00FC
FC00FC
FC00FC
FC00FC
FC00FC
FC00FC
7C00F8
7C00F8
7C00F8
3C00F0
3C00F0
1C00E0
0E01C0
060180
030300
01FE00
ENDCHAR
STARTCHAR 00D7
ENCODING 215
SWIDTH 947 0
DWIDTH 36 0
BBX 24 25 6 -2
BITMAP
400002
E00007
F0000E
78001C
3C003C
1E0078
0F00F0
0781E0
03C3C0
01E780
00EF00
007E00
003C00
007C00
00FE00
01E700
03C380
0781C0
0F00E0
1E0070
3C0038
78001C
70000E
E00007
C00002
ENDCHAR
STARTCHAR 00D8
ENCODING 216
SWIDTH 710 0
DWIDTH 27 0
BBX 22 28 3 1
BITMAP
01FE0C
030398
0603D0
0E01F0
1C01E0
3C01F0
3C01F0
7C01F8
7C03F8
7C06F8
FC0EFC
FC0CFC
FC18FC
FC38FC
FC70FC
FC60FC
FCC0FC
FDC0FC
7D80F8
7F00F8
7E00F8
3E00F0
3E00F0
1E00E0
3E01C0
2E0180
670300
C1FE00
ENDCHAR
STARTCHAR 00D9
ENCODING 217
SWIDTH 789 0
DWIDTH 30 0
BBX 26 37 3 1
BITMAP
00E00000
00F00000
00780000
00380000
001C0000
000C0000
00060000
00000000
00000000
FFF07FC0
1F801F00
1F800E00
1F800600
1F800600
1F800600
1F800600
1F800600
1F800600
1F800600
1F800600
1F800600
1F800600
1F800600
1F800600
1F800600
1F800600
1F800600
1F800600
1F800600
1F800600
1F800600
0F800C00
0FC00C00
07C01800
07E03800
01FCF000
00FFC000
ENDCHAR
STARTCHAR 00DA
ENCODING 218
SWIDTH 789 0
DWIDTH 30 0
BBX 26 37 3 1
BITMAP
0000E000
0001E000
0001E000
0003C000
00070000
00060000
000C0000
00000000
00000000
FFF07FC0
1F801F00
1F800E00
1F800600
1F800600
1F800600
1F800600
1F800600
1F800600
1F800600
1F800600
1F800600
1F800600
1F800600
1F800600
1F800600
1F800600
1F800600
1F800600
1F800600
1F800600
1F800600
0F800C00
0FC00C00
07C01800
07E03800
01FCF000
00FFC000
ENDCHAR
STARTCHAR 00DB
ENCODING 219
SWIDTH 789 0
DWIDTH 30 0
BBX 26 37 3 0
BITMAP
00040000
000E0000
001F0000
001F8000
003BC000
00E0E000
01803000
00000000
00000000
FFF07FC0
1F801F00
1F800E00
1F800600
1F800600
1F800600
1F800600
1F800600
1F800600
1F800600
1F800600
1F800600
1F800600
1F800600
1F800600
1F800600
1F800600
1F800600
1F800600
1F800600
1F800600
1F800600
0F800400
0F800C00
07C01800
07E01800
01F07000
00FFC000
ENDCHAR
STARTCHAR 00DC
ENCODING 220
SWIDTH 789 0
DWIDTH 30 0
BBX 26 36 3 0
BITMAP
00E0E000
01F1F000
01F1F000
01F1F000
00E0E000
00000000
00000000
00000000
FFF07FC0
1F801F00
1F800E00
1F800600
1F800600
1F800600
1F800600
1F800600
1F800600
1F800600
1F800600
1F800600
1F800600
1F800600
1F800600
1F800600
1F800600
1F800600
1F800600
1F800600
1F800600
1F800600
0F800C00
0FC00C00
07C01800
07E03800
01FCF000
00FFC000
ENDCHAR
STARTCHAR 00DD
ENCODING 221
SWIDTH 736 0
DWIDTH 28 0
BBX 25 37 2 0
BITMAP
0000E000
0000E000
0001E000
0003C000
00038000
00060000
000C0000
00000000
00000000
FFF0FF80
1FC03C00
1FC01800
0FC01800
0FE01800
07E01000
07E03000
03F02000
03F02000
01F86000
01F84000
01FC4000
00FCC000
00FE8000
007F8000
007F8000
003F0000
003F0000
003F0000
003F0000
003F0000
003F0000
003F0000
003F0000
003F0000
003F0000
003F0000
01FFE000
ENDCHAR
STARTCHAR 00DE
ENCODING 222
SWIDTH 710 0
DWIDTH 27 0
BBX 23 28 2 0
BITMAP
FFF800
1F8000
1F8000
1F8000
1F8000
1FFF80
1F81E0
1F80F8
1F80FC
1F807C
1F807E
1F807E
1F807E
1F807E
1F807E
1F807C
1F80FC
1F80F8
1F81E0
1FFF80
1F8000
1F8000
1F8000
1F8000
1F8000
1F8000
1F8000
FFF800
ENDCHAR
STARTCHAR 00DF
ENCODING 223
SWIDTH 578 0
DWIDTH 22 0
BBX 19 28 1 0
BITMAP
00F800
039C00
078E00
0F0F00
0F0F00
0F0F00
1F0F00
1F0F00
1F0E00
1F1C00
1F7000
1F0C00
1F0700
1F0780
1F03C0
1F03C0
1F03C0
1F03E0
1F03E0
1F03E0
1F03E0
1F03E0
1F73E0
1FF3C0
1FF3C0
1FE380
1F6700
FF3E00
ENDCHAR
STARTCHAR 00E0
ENCODING 224
SWIDTH 526 0
DWIDTH 20 0
BBX 17 28 2 0
BITMAP
380000
3C0000
3C0000
1E0000
0E0000
030000
010000
000000
000000
0FC000
18F000
307800
707800
7C7C00
7C7C00
387C00
01FC00
0E7C00
1C7C00
387C00
787C00
F87C00
F87C80
F87C80
F87C80
FCFD80
7FBF00
3E1E00
ENDCHAR
STARTCHAR 00E1
ENCODING 225
SWIDTH 526 0
DWIDTH 20 0
BBX 17 28 2 0
BITMAP
003000
007000
00F000
00E000
01C000
018000
030000
000000
000000
0FC000
18F000
307800
707800
7C7C00
7C7C00
7C7C00
00FC00
077C00
1C7C00
387C00
787C00
F87C00
F87C80
F87C80
F87C80
FCFD80
7FBF00
3E1E00
ENDCHAR
STARTCHAR 00E2
ENCODING 226
SWIDTH 526 0
DWIDTH 20 0
BBX 17 28 2 0
BITMAP
030000
038000
078000
07C000
0CE000
187000
301800
000000
000000
0FC000
18F000
307800
707800
7C7C00
7C7C00
7C7C00
00FC00
077C00
1C7C00
387C00
787C00
F87C00
F87C80
F87C80
F87C80
FCFD80
7FBF00
3E1E00
ENDCHAR
STARTCHAR 00E3
ENCODING 227
SWIDTH 526 0
DWIDTH 20 0
BBX 17 27 2 0
BITMAP
0E0800
1F9800
3FF000
23F000
20E000
000000
000000
000000
0FC000
18F000
307800
707800
7C7C00
7C7C00
7C7C00
00FC00
077C00
1C7C00
387C00
787C00
F87C00
F87C80
F87C80
F87C80
FCFD80
7FBF00
3E1E00
ENDCHAR
STARTCHAR 00E4
ENCODING 228
SWIDTH 526 0
DWIDTH 20 0
BBX 17 27 2 0
BITMAP
387000
7CF800
7CF800
7CF800
387000
000000
000000
000000
0FC000
18F000
307800
707800
7C7C00
7C7C00
7C7C00
00FC00
077C00
1C7C00
387C00
787C00
F87C00
F87C80
F87C80
F87C80
FCFD80
7FBF00
3E1E00
ENDCHAR
STARTCHAR 00E5
ENCODING 229
SWIDTH 526 0
DWIDTH 20 0
BBX 17 28 2 1
BITMAP
0FC000
0CC000
186000
186000
186000
1CE000
0FC000
078000
000000
0FC000
10F000
307800
707800
787C00
7C7C00
7C7C00
00FC00
077C00
1C7C00
387C00
787C00
F87C00
F87C80
F87C80
F87C80
FCFD80
7FFF00
3E3E00
ENDCHAR
STARTCHAR 00E6
ENCODING 230
SWIDTH 710 0
DWIDTH 27 0
BBX 23 19 2 0
BITMAP
0FC3E0
18EE70
307C38
707C3C
787C3C
7C7C3E
7C7C3E
187C3E
03FC3E
0E7FFE
3C7C00
787C00
F87C02
F87C02
F87C02
F87C04
FCDE04
7F8F08
3F03F0
ENDCHAR
STARTCHAR 00E7
ENCODING 231
SWIDTH 473 0
DWIDTH 18 0
BBX 14 27 2 -8
BITMAP
07E0
0E30
3C18
3C1C
783C
787C
F87C
F878
F830
F800
F800
F800
F800
7804
7804
3804
3C08
1E10
07E0
0200
0200
0380
00C0
00E0
00E0
00E0
0780
ENDCHAR
STARTCHAR 00E8
ENCODING 232
SWIDTH 473 0
DWIDTH 18 0
BBX 14 28 2 0
BITMAP
3800
3800
3C00
1E00
0E00
0700
0100
0000
0000
07C0
1CE0
3870
3878
7878
787C
F87C
F87C
F87C
FFFC
F800
F800
F804
7804
7804
3808
3C18
1E30
07C0
ENDCHAR
STARTCHAR 00E9
ENCODING 233
SWIDTH 473 0
DWIDTH 18 0
BBX 14 28 2 0
BITMAP
0070
0070
00F0
01E0
01C0
0380
0200
0000
0000
07C0
1CE0
3870
3878
7878
787C
F87C
F87C
FFFC
F800
F800
F800
F804
7804
780C
3808
3C18
1E30
07C0
ENDCHAR
STARTCHAR 00EA
ENCODING 234
SWIDTH 473 0
DWIDTH 18 0
BBX 14 28 2 0
BITMAP
0300
0780
0780
0FC0
0CC0
1860
3038
0000
0000
07C0
1CE0
3870
3878
7878
787C
F87C
F87C
F87C
FFFC
F800
F800
F800
7804
7804
3808
3C08
1E10
07E0
ENDCHAR
STARTCHAR 00EB
ENCODING 235
SWIDTH 473 0
DWIDTH 18 0
BBX 14 27 2 0
BITMAP
3870
7CF8
7CF8
7CF8
3870
0000
0000
0000
07C0
1CE0
3870
3878
7878
787C
F87C
F87C
F87C
FFFC
F800
F800
F800
7804
780C
3808
3C18
1E30
07C0
ENDCHAR
STARTCHAR 00EC
ENCODING 236
SWIDTH 315 0
DWIDTH 12 0
BBX 10 28 1 0
BITMAP
E000
F000
F800
7800
1C00
0E00
0200
0000
0000
7F00
1F00
1F00
1F00
1F00
1F00
1F00
1F00
1F00
1F00
1F00
1F00
1F00
1F00
1F00
1F00
1F00
1F00
7FC0
ENDCHAR
STARTCHAR 00ED
ENCODING 237
SWIDTH 315 0
DWIDTH 12 0
BBX 9 28 2 0
BITMAP
0180
0380
0780
0F00
0E00
1C00
1000
0000
0000
FE00
3E00
3E00
3E00
3E00
3E00
3E00
3E00
3E00
3E00
3E00
3E00
3E00
3E00
3E00
3E00
3E00
3E00
FF80
ENDCHAR
STARTCHAR 00EE
ENCODING 238
SWIDTH 289 0
DWIDTH 11 0
BBX 11 28 1 0
BITMAP
0E00
1E00
1F00
3F00
7380
E0C0
8060
0000
0000
7F00
1F00
1F00
1F00
1F00
1F00
1F00
1F00
1F00
1F00
1F00
1F00
1F00
1F00
1F00
1F00
1F00
1F00
7FC0
ENDCHAR
STARTCHAR 00EF
ENCODING 239
SWIDTH 315 0
DWIDTH 12 0
BBX 11 27 1 0
BITMAP
71C0
FBE0
FBE0
FBE0
71C0
0000
0000
0000
7F00
1F00
1F00
1F00
1F00
1F00
1F00
1F00
1F00
1F00
1F00
1F00
1F00
1F00
1F00
1F00
1F00
1F00
7FC0
ENDCHAR
STARTCHAR 00F0
ENCODING 240
SWIDTH 526 0
DWIDTH 20 0
BBX 16 28 2 0
BITMAP
1F08
0FB8
07E0
07E0
07E0
0DF0
10F8
00F8
007C
07FC
1E7E
3C3E
383E
781E
781F
F81F
F81F
F81F
F81F
F81F
F81F
F81E
781E
781E
383C
3C3C
0C70
07E0
ENDCHAR
STARTCHAR 00F1
ENCODING 241
SWIDTH 578 0
DWIDTH 22 0
BBX 19 27 2 0
BITMAP
000200
07C200
0FFE00
0FFC00
087800
000000
000000
000000
FE3C00
3EDE00
3F0F00
3F0F80
3F0F80
3E0F80
3E0F80
3E0F80
3E0F80
3E0F80
3E0F80
3E0F80
3E0F80
3E0F80
3E0F80
3E0F80
3E0F80
3E0F80
FFBFE0
ENDCHAR
STARTCHAR 00F2
ENCODING 242
SWIDTH 526 0
DWIDTH 20 0
BBX 16 28 2 0
BITMAP
1800
1C00
1E00
0F00
0700
0380
00C0
0000
0000
07C0
0C70
1C38
383C
781E
781E
F81E
F81F
F81F
F81F
F81F
F81F
F81E
781E
781E
383C
1C38
0C70
07C0
ENDCHAR
STARTCHAR 00F3
ENCODING 243
SWIDTH 526 0
DWIDTH 20 0
BBX 16 28 2 0
BITMAP
0038
0038
0078
00F0
00E0
01C0
0300
0000
0000
07C0
0C70
1C38
383C
781E
781E
F81E
F81F
F81F
F81F
F81F
F81F
F81E
781E
781E
383C
1C38
0C70
07C0
ENDCHAR
STARTCHAR 00F4
ENCODING 244
SWIDTH 526 0
DWIDTH 20 0
BBX 16 28 2 0
BITMAP
0380
03C0
03C0
07E0
0E70
1C38
300C
0000
0000
07C0
0C70
1C38
383C
781E
781E
F81E
F81F
F81F
F81F
F81F
F81F
F81E
781E
781E
383C
1C38
0C70
07C0
ENDCHAR
STARTCHAR 00F5
ENCODING 245
SWIDTH 526 0
DWIDTH 20 0
BBX 16 27 2 0
BITMAP
0E04
1F8C
1FF8
23F8
2070
0000
0000
0000
07C0
0C70
1C38
383C
781E
781E
F81E
F81F
F81F
F81F
F81F
F81F
F81E
781E
781E
383C
1C38
0C70
07C0
ENDCHAR
STARTCHAR 00F6
ENCODING 246
SWIDTH 526 0
DWIDTH 20 0
BBX 16 27 2 0
BITMAP
1C38
3E7C
3E7C
3E7C
1C38
0000
0000
0000
07C0
0C70
1C38
383C
781E
781E
F81E
F81F
F81F
F81F
F81F
F81F
F81E
781E
781E
383C
1C38
0C70
07C0
ENDCHAR
STARTCHAR 00F7
ENCODING 247
SWIDTH 973 0
DWIDTH 37 0
BBX 33 26 2 -3
BITMAP
0003C00000
0007E00000
0007E00000
0007E00000
0007E00000
0003C00000
0000000000
0000000000
0000000000
0000000000
0000000000
FFFFFFFF80
FFFFFFFF80
FFFFFFFF80
0000000000
0000000000
0000000000
0000000000
0000000000
0000000000
0003C00000
0007E00000
0007E00000
0007E00000
0007E00000
0003C00000
ENDCHAR
STARTCHAR 00F8
ENCODING 248
SWIDTH 526 0
DWIDTH 20 0
BBX 16 19 2 0
BITMAP
07E1
0C72
1C3C
383C
783E
783E
F87E
F85F
F8DF
F99F
FB1F
FE1F
FC1E
7C1E
781E
3C1C
7C38
4E30
87C0
ENDCHAR
STARTCHAR 00F9
ENCODING 249
SWIDTH 552 0
DWIDTH 21 0
BBX 19 28 1 0
BITMAP
0C0000
1E0000
0F0000
070000
038000
01C000
004000
000000
000000
FE3F80
3E0F80
3E0F80
3E0F80
3E0F80
3E0F80
3E0F80
3E0F80
3E0F80
3E0F80
3E0F80
3E0F80
3E0F80
3E0F80
3E1F80
3E1F80
1E2F80
1F4F80
078FE0
ENDCHAR
STARTCHAR 00FA
ENCODING 250
SWIDTH 552 0
DWIDTH 21 0
BBX 19 28 1 0
BITMAP
001C00
003C00
003C00
007800
00E000
00C000
018000
000000
000000
FE3F80
3E0F80
3E0F80
3E0F80
3E0F80
3E0F80
3E0F80
3E0F80
3E0F80
3E0F80
3E0F80
3E0F80
3E0F80
3E0F80
3E1F80
3E1F80
1E2F80
1E4F80
078FE0
ENDCHAR
STARTCHAR 00FB
ENCODING 251
SWIDTH 552 0
DWIDTH 21 0
BBX 19 28 1 0
BITMAP
01C000
01E000
03E000
03F000
073800
0C1C00
180400
000000
000000
FE3F80
3E0F80
3E0F80
3E0F80
3E0F80
3E0F80
3E0F80
3E0F80
3E0F80
3E0F80
3E0F80
3E0F80
3E0F80
3E0F80
3E1F80
3E1F80
1E2F80
1E4F80
078FE0
ENDCHAR
STARTCHAR 00FC
ENCODING 252
SWIDTH 552 0
DWIDTH 21 0
BBX 19 27 1 0
BITMAP
1C1C00
3E3E00
3E3E00
3E3E00
1C1C00
000000
000000
000000
FE3F80
3E0F80
3E0F80
3E0F80
3E0F80
3E0F80
3E0F80
3E0F80
3E0F80
3E0F80
3E0F80
3E0F80
3E0F80
3E0F80
3E1F80
3E1F80
1E2F80
1E4F80
078FE0
ENDCHAR
STARTCHAR 00FD
ENCODING 253
SWIDTH 500 0
DWIDTH 19 0
BBX 18 37 0 -9
BITMAP
000E00
001E00
001E00
003C00
003000
006000
00C000
000000
000000
FFCFC0
3F0300
1F0300
1F0200
0F0200
0F8200
0F8400
07C400
07C400
03C400
03E800
03E800
01F800
01F000
00F000
00F000
006000
006000
006000
002000
004000
0C4000
1E4000
3E8000
3E8000
3C8000
1D0000
0E0000
ENDCHAR
STARTCHAR 00FE
ENCODING 254
SWIDTH 526 0
DWIDTH 20 0
BBX 18 36 0 -9
BITMAP
030000
0F0000
3F0000
DF0000
1F0000
1F0000
1F0000
1F0000
1F1F00
1F3F80
1F4780
1F87C0
1F87C0
1F07C0
1F07C0
1F07C0
1F0780
1F0780
1F0F00
1F0F00
1F0E00
1F0C00
1F1800
1F3000
1F6000
1F8000
1F0000
1F0000
1F0000
1F0000
1F0000
1F0000
1F0000
1E0000
380000
E00000
ENDCHAR
STARTCHAR 00FF
ENCODING 255
SWIDTH 526 0
DWIDTH 20 0
BBX 19 36 0 -9
BITMAP
070E00
0F9F00
0F9F00
0F9F00
070E00
000000
000000
000000
FFCFE0
3F0300
1F0300
1F0200
0F0200
0F8200
0F8400
07C400
07C400
03C400
03E800
03E800
01F800
01F000
00F000
00F000
00F000
006000
006000
002000
004000
0C4000
1E4000
3E4000
3E8000
3C8000
1D0000
0E0000
ENDCHAR
STARTCHAR 0100
ENCODING 256
SWIDTH 763 0
DWIDTH 29 0
BBX 26 34 2 0
BITMAP
00FFE000
00FFE000
00FFE000
00000000
00000000
00000000
00060000
000E0000
000E0000
000F0000
001F0000
001F0000
001F8000
003F8000
003F8000
002F8000
006FC000
004FC000
0047C000
00C7E000
0087E000
0083E000
0103F000
0103F000
0101F000
03FFF800
0201F800
0200F800
0400FC00
0400FC00
0C007C00
0C007C00
1C007E00
FFC7FFC0
ENDCHAR
STARTCHAR 0101
ENCODING 257
SWIDTH 526 0
DWIDTH 20 0
BBX 17 26 2 0
BITMAP
3FF000
3FF000
3FF000
000000
000000
000000
000000
0FC000
10F000
307800
707800
787C00
7C7C00
7C7C00
00FC00
077C00
1C7C00
387C00
787C00
F87C00
F87C80
F87C80
F87C80
FCFD80
7FBF00
3E1E00
ENDCHAR
STARTCHAR 0102
ENCODING 258
SWIDTH 763 0
DWIDTH 29 0
BBX 26 36 2 0
BITMAP
01802000
01806000
00C0C000
00FFC000
007F8000
001E0000
00000000
00040000
000E0000
000E0000
000E0000
001F0000
001F0000
001F0000
003F8000
003F8000
002F8000
006FC000
006FC000
004FC000
00C7C000
0087E000
0087E000
0183E000
0103F000
0103F000
0201F000
03FFF800
0201F800
0401F800
0400FC00
0400FC00
0C00FC00
0C00FC00
1C00FE00
FFC7FFC0
ENDCHAR
STARTCHAR 0103
ENCODING 259
SWIDTH 526 0
DWIDTH 20 0
BBX 17 28 2 0
BITMAP
201000
201000
303000
187000
1FE000
0FC000
038000
000000
000000
0FC000
18F000
307800
707800
7C7C00
7C7C00
387C00
01FC00
0E7C00
1C7C00
387C00
787C00
F87C00
F87C80
F87C80
F87C80
FCFD80
7FBF00
3E1E00
ENDCHAR
STARTCHAR 0104
ENCODING 260
SWIDTH 763 0
DWIDTH 29 0
BBX 26 38 2 -9
BITMAP
00060000
000E0000
000E0000
000F0000
001F0000
001F0000
001F0000
003F8000
003F8000
002F8000
006FC000
006FC000
0047C000
00C7E000
00C7E000
0083E000
0183E000
0183F000
0101F000
0301F000
03FFF800
0201F800
0600F800
0600FC00
0400FC00
0C007C00
0C007E00
1E007E00
FFC7FFC0
00000800
00003000
00007000
0000E000
0000E000
0000E000
0000F200
00007E00
00003C00
ENDCHAR
STARTCHAR 0105
ENCODING 261
SWIDTH 526 0
DWIDTH 20 0
BBX 17 28 2 -9
BITMAP
0FC000
18F000
307800
707800
7C7C00
7C7C00
3C7C00
00FC00
077C00
1C7C00
387C00
787C00
F87C00
F87C80
F87C80
F87C80
FCFD80
7F3F00
3E1E00
001C00
003000
007000
006000
00E000
00E000
00F200
007E00
003800
ENDCHAR
STARTCHAR 0106
ENCODING 262
SWIDTH 684 0
DWIDTH 26 0
BBX 21 37 3 1
BITMAP
000700
000F00
001F00
001C00
003800
003000
006000
000000
000000
03FC30
070730
0E01F0
1E01F0
3C00F0
3C0070
7C0070
7C0030
7C0030
FC0030
FC0030
FC0010
FC0000
FC0000
FC0000
FC0000
FC0000
FC0018
FC0018
7C0010
7C0010
7C0030
3C0030
3C0020
1E0060
0E00C0
070380
01FE00
ENDCHAR
STARTCHAR 0107
ENCODING 263
SWIDTH 473 0
DWIDTH 18 0
BBX 14 28 2 0
BITMAP
0038
0078
0078
00F0
01E0
0180
0300
0000
0000
07E0
0E30
3C18
3C18
781C
783C
F87C
F878
F830
F800
F800
F800
F800
7804
7804
3804
1C08
0E10
07E0
ENDCHAR
STARTCHAR 0108
ENCODING 264
SWIDTH 684 0
DWIDTH 26 0
BBX 21 37 3 0
BITMAP
006000
007000
00F000
01F800
03DC00
070700
0C0180
000000
000000
01FE30
070330
0E01F0
1E00F0
3C00F0
3C0070
7C0070
7C0030
7C0030
FC0030
FC0030
FC0010
FC0000
FC0000
FC0000
FC0000
FC0000
FC0018
FC0018
7C0010
7C0010
7C0010
3C0030
3C0020
1E0060
0E00C0
070180
01FE00
ENDCHAR
STARTCHAR 0109
ENCODING 265
SWIDTH 473 0
DWIDTH 18 0
BBX 14 28 2 0
BITMAP
0380
03C0
07C0
07E0
0E60
1C30
301C
0000
0000
07E0
0E30
3C18
3C1C
783C
787C
F87C
F878
F830
F800
F800
F800
F800
7804
7804
3804
1C08
0E10
07E0
ENDCHAR
STARTCHAR 010A
ENCODING 266
SWIDTH 684 0
DWIDTH 26 0
BBX 21 36 3 0
BITMAP
007000
00F800
00F800
00F800
007000
000000
000000
000000
01FE30
070330
0E01F0
1E00F0
3C00F0
3C0070
7C0070
7C0030
7C0030
FC0030
FC0030
FC0010
FC0000
FC0000
FC0000
FC0000
FC0000
FC0018
FC0018
7C0010
7C0010
7C0010
3C0030
3C0020
1E0060
0E00C0
070180
01FE00
ENDCHAR
STARTCHAR 010B
ENCODING 267
SWIDTH 473 0
DWIDTH 18 0
BBX 14 28 2 0
BITMAP
03C0
07E0
07E0
07E0
07E0
03C0
0000
0000
0000
07E0
0E10
3C18
3C1C
781C
787C
F87C
F878
F830
F800
F800
F800
F800
7804
7804
3C04
1C08
0E10
07E0
ENDCHAR
STARTCHAR 010C
ENCODING 268
SWIDTH 684 0
DWIDTH 26 0
BBX 21 36 3 0
BITMAP
0C0180
060700
039E00
01FC00
00F800
007000
000000
000000
01FE30
070330
0E01F0
1E00F0
3C00F0
3C0070
7C0070
7C0030
7C0030
FC0030
FC0030
FC0010
FC0000
FC0000
FC0000
FC0000
FC0000
FC0018
FC0018
7C0010
7C0010
7C0010
3C0030
3C0020
1E0060
0E00C0
070180
01FE00
ENDCHAR
STARTCHAR 010D
ENCODING 269
SWIDTH 473 0
DWIDTH 18 0
BBX 14 27 2 1
BITMAP
3018
1C30
0E70
07E0
03C0
0380
0000
0000
07E0
0E30
3C18
3C1C
783C
787C
F87C
F878
F830
F800
F800
F800
F800
7804
7804
3804
1C08
0E10
07E0
ENDCHAR
STARTCHAR 010E
ENCODING 270
SWIDTH 789 0
DWIDTH 30 0
BBX 25 36 3 0
BITMAP
0C018000
07030000
03CE0000
01FC0000
00F80000
00700000
00000000
00000000
FFFF8000
1F80E000
1F807000
1F803800
1F803C00
1F801E00
1F801E00
1F801F00
1F801F00
1F801F00
1F801F80
1F801F80
1F801F80
1F801F80
1F801F80
1F801F80
1F801F80
1F801F80
1F801F00
1F801F00
1F801F00
1F801E00
1F801E00
1F803C00
1F803800
1F807000
1F80E000
FFFF8000
ENDCHAR
STARTCHAR 010F
ENCODING 271
SWIDTH 605 0
DWIDTH 23 0
BBX 21 28 2 1
BITMAP
00FEF0
003EF8
003EF8
003E38
003E18
003E10
003E30
003E60
003E80
0F3E00
1CBE00
3C7E00
787E00
783E00
783E00
F83E00
F83E00
F83E00
F83E00
F83E00
F83E00
F83E00
783E00
783E00
787E00
3C7E00
1CBE00
0F3FC0
ENDCHAR
STARTCHAR 0110
ENCODING 272
SWIDTH 763 0
DWIDTH 29 0
BBX 25 28 2 0
BITMAP
FFFF8000
1F80E000
1F807000
1F803800
1F803C00
1F801E00
1F801E00
1F801F00
1F801F00
1F801F00
1F801F80
1F801F80
1F801F80
FFF81F80
1F801F80
1F801F80
1F801F80
1F801F80
1F801F00
1F801F00
1F801F00
1F801E00
1F801E00
1F803C00
1F803800
1F807000
1F80E000
FFFF8000
ENDCHAR
STARTCHAR 0111
ENCODING 273
SWIDTH 552 0
DWIDTH 21 0
BBX 18 28 2 0
BITMAP
00FE00
003E00
003E00
003E00
0FFFC0
003E00
003E00
003E00
003E00
0F3E00
1CBE00
3C7E00
787E00
783E00
783E00
F83E00
F83E00
F83E00
F83E00
F83E00
F83E00
F83E00
783E00
783E00
787E00
3C7E00
1CBE00
0F3FC0
ENDCHAR
STARTCHAR 0112
ENCODING 274
SWIDTH 684 0
DWIDTH 26 0
BBX 22 34 2 0
BITMAP
01FFC0
01FFC0
01FFC0
000000
000000
000000
FFFFFC
0FC07C
0FC03C
0FC01C
0FC01C
0FC00C
0FC00C
0FC004
0FC104
0FC100
0FC300
0FC300
0FC700
0FFF00
0FC700
0FC300
0FC300
0FC104
0FC104
0FC104
0FC004
0FC00C
0FC00C
0FC01C
0FC01C
0FC03C
0FC0FC
FFFFFC
ENDCHAR
STARTCHAR 0113
ENCODING 275
SWIDTH 473 0
DWIDTH 18 0
BBX 14 26 2 0
BITMAP
3FF0
3FF0
3FF0
0000
0000
0000
0000
07C0
1CE0
3870
3878
7878
787C
F87C
F87C
F87C
FFFC
F800
F800
F800
7804
7804
3808
3C08
1E10
07E0
ENDCHAR
STARTCHAR 0114
ENCODING 276
SWIDTH 684 0
DWIDTH 26 0
BBX 22 36 2 0
BITMAP
0300C0
0300C0
018180
01FF80
00FF00
003C00
000000
000000
FFFFFC
0FC07C
0FC03C
0FC01C
0FC01C
0FC00C
0FC00C
0FC00C
0FC104
0FC100
0FC300
0FC300
0FC700
0FFF00
0FC700
0FC300
0FC300
0FC104
0FC104
0FC104
0FC004
0FC00C
0FC00C
0FC01C
0FC01C
0FC03C
0FC0FC
FFFFFC
ENDCHAR
STARTCHAR 0115
ENCODING 277
SWIDTH 473 0
DWIDTH 18 0
BBX 14 28 2 0
BITMAP
2010
2010
3030
1870
1FE0
0FC0
0380
0000
0000
07C0
1CE0
3870
3878
7878
787C
F87C
F87C
FFFC
F800
F800
F800
F804
7804
780C
3808
3C18
1E30
07C0
ENDCHAR
STARTCHAR 0116
ENCODING 278
SWIDTH 684 0
DWIDTH 26 0
BBX 22 36 2 0
BITMAP
001C00
003E00
003E00
003E00
001C00
000000
000000
000000
FFFFFC
0FC07C
0FC03C
0FC01C
0FC01C
0FC00C
0FC00C
0FC00C
0FC104
0FC100
0FC300
0FC300
0FC700
0FFF00
0FC700
0FC300
0FC300
0FC104
0FC104
0FC104
0FC00C
0FC00C
0FC00C
0FC01C
0FC01C
0FC03C
0FC0FC
FFFFFC
ENDCHAR
STARTCHAR 0117
ENCODING 279
SWIDTH 473 0
DWIDTH 18 0
BBX 14 28 2 0
BITMAP
0780
0FC0
0FC0
0FC0
0FC0
0780
0000
0000
0000
07C0
1CE0
3870
3878
7878
787C
F87C
F87C
F87C
FFFC
F800
F800
F800
7804
7804
3808
3C08
1E10
07E0
ENDCHAR
STARTCHAR 0118
ENCODING 280
SWIDTH 684 0
DWIDTH 26 0
BBX 22 37 2 -9
BITMAP
FFFFFC
0FC07C
0FC03C
0FC01C
0FC01C
0FC00C
0FC00C
0FC00C
0FC104
0FC100
0FC300
0FC300
0FC700
0FFF00
0FC700
0FC300
0FC300
0FC104
0FC104
0FC104
0FC00C
0FC00C
0FC00C
0FC01C
0FC01C
0FC03C
0FC07C
FFFFFC
000180
000300
000600
000E00
000E00
000E00
000F20
0007E0
000380
ENDCHAR
STARTCHAR 0119
ENCODING 281
SWIDTH 473 0
DWIDTH 18 0
BBX 14 28 2 -9
BITMAP
07C0
1CE0
3870
3878
7878
787C
F87C
F87C
F87C
FFFC
F800
F800
F800
7804
7804
3808
3C08
0E18
07F0
00C0
0180
0380
0700
0700
0700
0720
07E0
03C0
ENDCHAR
STARTCHAR 011A
ENCODING 282
SWIDTH 684 0
DWIDTH 26 0
BBX 22 36 2 0
BITMAP
0300C0
01C180
00E700
007E00
003C00
001C00
000000
000000
FFFFFC
0FC07C
0FC03C
0FC01C
0FC01C
0FC00C
0FC00C
0FC00C
0FC104
0FC100
0FC300
0FC300
0FC700
0FFF00
0FC700
0FC300
0FC300
0FC104
0FC104
0FC104
0FC00C
0FC00C
0FC00C
0FC01C
0FC01C
0FC03C
0FC0FC
FFFFFC
ENDCHAR
STARTCHAR 011B
ENCODING 283
SWIDTH 473 0
DWIDTH 18 0
BBX 14 28 2 0
BITMAP
2000
3030
1860
0CE0
0FC0
0780
0300
0000
0000
07C0
1CE0
3870
3878
7878
787C
F87C
F87C
F87C
FFFC
F800
F800
F800
7804
7804
3808
3C08
1E10
07E0
ENDCHAR
STARTCHAR 011C
ENCODING 284
SWIDTH 736 0
DWIDTH 28 0
BBX 24 37 3 0
BITMAP
001000
003800
007800
00FC00
01EE00
038300
0600C0
000000
001000
01EF18
030398
0E00F8
1E00F8
1C0078
3C0038
3C0038
7C0018
7C0018
7C0018
FC0008
FC0000
FC0000
FC0000
FC1FFF
FC01F8
FC01F8
FC01F8
FC01F8
7C01F8
7C01F8
7C01F8
3C01F8
3C01F8
1E0398
0E0318
070618
01DC18
ENDCHAR
STARTCHAR 011D
ENCODING 285
SWIDTH 578 0
DWIDTH 22 0
BBX 19 37 2 -9
BITMAP
018000
03C000
03C000
07E000
066000
0C3000
381C00
000000
000000
07E1C0
1E7660
3C3CE0
3C3CE0
7C3EC0
7C3E00
7C3E00
7C3E00
3C3C00
3C3C00
1E7800
07E000
380000
600000
600000
7FE000
7FFE00
7FFF00
3FFF80
1FFF80
600780
C00380
800380
800300
800300
400600
301C00
0FF000
ENDCHAR
STARTCHAR 011E
ENCODING 286
SWIDTH 736 0
DWIDTH 28 0
BBX 24 36 3 0
BITMAP
040080
060180
030300
03FF00
01FE00
007800
000000
001000
01EF18
030398
0E00F8
1E00F8
1C0078
3C0038
3C0038
7C0018
7C0018
7C0018
FC0008
FC0000
FC0000
FC0000
FC1FFF
FC01F8
FC01F8
FC01F8
FC01F8
7C01F8
7C01F8
7C01F8
3C01F8
3C01F8
1E0398
0E0318
070618
01DC18
ENDCHAR
STARTCHAR 011F
ENCODING 287
SWIDTH 578 0
DWIDTH 22 0
BBX 19 37 2 -9
BITMAP
100800
100800
181800
0C3800
0FF000
07E000
01C000
000000
000000
07E1C0
1E7660
3C3CE0
3C3CE0
7C3EC0
7C3E00
7C3E00
7C3E00
3C3C00
3C3C00
1E7800
07E000
380000
600000
600000
7FE000
7FFE00
7FFF00
3FFF80
1FFF80
600780
C00380
800380
800300
800300
400600
301C00
0FF000
ENDCHAR
STARTCHAR 0120
ENCODING 288
SWIDTH 736 0
DWIDTH 28 0
BBX 24 36 3 0
BITMAP
003800
007C00
007C00
007C00
003800
000000
000000
001000
01EF18
030398
0E00F8
1E00F8
1C0078
3C0038
3C0038
7C0018
7C0018
7C0018
FC0008
FC0000
FC0000
FC0000
FC1FFF
FC01F8
FC01F8
FC01F8
FC01F8
7C01F8
7C01F8
7C01F8
3C01F8
3C01F8
1E0398
0E0318
070618
01DC18
ENDCHAR
STARTCHAR 0121
ENCODING 289
SWIDTH 578 0
DWIDTH 22 0
BBX 19 36 2 -9
BITMAP
03C000
07E000
07E000
07E000
07E000
03C000
000000
000000
07E1C0
1E7A60
3C3CE0
3C3CE0
7C3EC0
7C3E00
7C3E00
7C3E00
3C3C00
3C3C00
1E7800
07E000
380000
600000
600000
7FE000
7FFE00
7FFF00
3FFF80
3FFF80
600780
C00380
800380
800300
800300
400600
301C00
0FF000
ENDCHAR
STARTCHAR 0122
ENCODING 290
SWIDTH 736 0
DWIDTH 28 0
BBX 24 38 3 -9
BITMAP
001000
01EF18
030398
0E00F8
1E00F8
1C0078
3C0038
3C0038
7C0018
7C0018
7C0018
FC0008
FC0000
FC0000
FC0000
FC1FFF
FC01F8
FC01F8
FC01F8
FC01F8
7C01F8
7C01F8
7C01F8
3C01F8
3C01F8
1E0398
0E0318
070618
01DC18
002000
003800
007800
007C00
007C00
000C00
001800
001000
006000
ENDCHAR
STARTCHAR 0123
ENCODING 291
SWIDTH 578 0
DWIDTH 22 0
BBX 19 40 2 -9
BITMAP
004000
00C000
010000
020000
060000
060000
07C000
07C000
07C000
03C000
000000
000000
07E1C0
1E7660
3C3CE0
3C3CE0
7C3EC0
7C3E00
7C3E00
7C3E00
3C3C00
3C3C00
1E7800
07E000
380000
600000
600000
7FE000
7FFE00
7FFF00
3FFF80
3FFF80
600780
C00380
800380
800300
800300
400600
301C00
0FF000
ENDCHAR
STARTCHAR 0124
ENCODING 292
SWIDTH 815 0
DWIDTH 31 0
BBX 27 37 2 0
BITMAP
00040000
000E0000
000E0000
001F0000
003B8000
00E0E000
01803000
00000000
00000000
FFFBFFE0
1F803F00
1F803F00
1F803F00
1F803F00
1F803F00
1F803F00
1F803F00
1F803F00
1F803F00
1F803F00
1F803F00
1F803F00
1FFFFF00
1F803F00
1F803F00
1F803F00
1F803F00
1F803F00
1F803F00
1F803F00
1F803F00
1F803F00
1F803F00
1F803F00
1F803F00
1F803F00
FFFBFFE0
ENDCHAR
STARTCHAR 0125
ENCODING 293
SWIDTH 578 0
DWIDTH 22 0
BBX 20 36 1 0
BITMAP
00E000
00F000
01F000
01F800
039C00
060E00
0C0200
000000
FF0000
1F0000
1F0000
1F0000
1F0000
1F0000
1F0000
1F0000
1F0000
1F1E00
1F6F00
1F8780
1F87C0
1F87C0
1F07C0
1F07C0
1F07C0
1F07C0
1F07C0
1F07C0
1F07C0
1F07C0
1F07C0
1F07C0
1F07C0
1F07C0
1F07C0
FFDFF0
ENDCHAR
STARTCHAR 0126
ENCODING 294
SWIDTH 815 0
DWIDTH 31 0
BBX 28 28 2 0
BITMAP
FFF9FFF0
0FC03F00
0FC03F00
0FC03F00
0FC03F00
0FC03F00
0FC03F00
FFFFFFF0
0FC03F00
0FC03F00
0FC03F00
0FC03F00
0FC03F00
0FFFFF00
0FC03F00
0FC03F00
0FC03F00
0FC03F00
0FC03F00
0FC03F00
0FC03F00
0FC03F00
0FC03F00
0FC03F00
0FC03F00
0FC03F00
0FC03F00
FFF9FFF0
ENDCHAR
STARTCHAR 0127
ENCODING 295
SWIDTH 552 0
DWIDTH 21 0
BBX 19 28 1 0
BITMAP
FE0000
3E0000
3E0000
3E0000
3E0000
FFFC00
3E0000
3E0000
3E0000
3E3C00
3ECF00
3E8F00
3F0F80
3F0F80
3E0F80
3E0F80
3E0F80
3E0F80
3E0F80
3E0F80
3E0F80
3E0F80
3E0F80
3E0F80
3E0F80
3E0F80
3E0F80
FFBFE0
ENDCHAR
STARTCHAR 0128
ENCODING 296
SWIDTH 447 0
DWIDTH 17 0
BBX 13 36 2 0
BITMAP
1C10
3F10
7FF0
47E0
01C0
0000
0000
0000
FFF8
1F80
1F80
1F80
1F80
1F80
1F80
1F80
1F80
1F80
1F80
1F80
1F80
1F80
1F80
1F80
1F80
1F80
1F80
1F80
1F80
1F80
1F80
1F80
1F80
1F80
1F80
FFF8
ENDCHAR
STARTCHAR 0129
ENCODING 297
SWIDTH 289 0
DWIDTH 11 0
BBX 11 27 1 0
BITMAP
0020
7C40
FFC0
FFC0
0780
0000
0000
0000
7F00
1F00
1F00
1F00
1F00
1F00
1F00
1F00
1F00
1F00
1F00
1F00
1F00
1F00
1F00
1F00
1F00
1F00
7FC0
ENDCHAR
STARTCHAR 012A
ENCODING 298
SWIDTH 447 0
DWIDTH 17 0
BBX 13 34 2 0
BITMAP
7FF0
7FF0
7FF0
0000
0000
0000
FFF8
1F80
1F80
1F80
1F80
1F80
1F80
1F80
1F80
1F80
1F80
1F80
1F80
1F80
1F80
1F80
1F80
1F80
1F80
1F80
1F80
1F80
1F80
1F80
1F80
1F80
1F80
FFF8
ENDCHAR
STARTCHAR 012B
ENCODING 299
SWIDTH 315 0
DWIDTH 12 0
BBX 10 26 1 0
BITMAP
FFC0
FFC0
FFC0
0000
0000
0000
0000
7F00
1F00
1F00
1F00
1F00
1F00
1F00
1F00
1F00
1F00
1F00
1F00
1F00
1F00
1F00
1F00
1F00
1F00
7FC0
ENDCHAR
STARTCHAR 012C
ENCODING 300
SWIDTH 447 0
DWIDTH 17 0
BBX 13 36 2 0
BITMAP
8010
C030
6060
7FE0
3FC0
0F00
0000
0000
FFF8
1F80
1F80
1F80
1F80
1F80
1F80
1F80
1F80
1F80
1F80
1F80
1F80
1F80
1F80
1F80
1F80
1F80
1F80
1F80
1F80
1F80
1F80
1F80
1F80
1F80
1F80
FFF8
ENDCHAR
STARTCHAR 012D
ENCODING 301
SWIDTH 315 0
DWIDTH 12 0
BBX 11 27 1 0
BITMAP
8020
8040
C0C0
7FC0
3F80
1F00
0000
0000
7F00
1F00
1F00
1F00
1F00
1F00
1F00
1F00
1F00
1F00
1F00
1F00
1F00
1F00
1F00
1F00
1F00
1F00
7FC0
ENDCHAR
STARTCHAR 012E
ENCODING 302
SWIDTH 447 0
DWIDTH 17 0
BBX 14 37 2 -9
BITMAP
FFF8
1F80
1F80
1F80
1F80
1F80
1F80
1F80
1F80
1F80
1F80
1F80
1F80
1F80
1F80
1F80
1F80
1F80
1F80
1F80
1F80
1F80
1F80
1F80
1F80
1F80
1F80
FFF8
0070
00C0
01C0
0380
0380
0380
03CC
01F8
00F0
ENDCHAR
STARTCHAR 012F
ENCODING 303
SWIDTH 315 0
DWIDTH 12 0
BBX 9 37 2 -9
BITMAP
3C00
7E00
7E00
7E00
7E00
3C00
0000
0000
0000
FE00
3E00
3E00
3E00
3E00
3E00
3E00
3E00
3E00
3E00
3E00
3E00
3E00
3E00
3E00
3E00
3E00
3E00
FF00
0200
0400
0C00
1800
3800
3800
3C80
3F00
1E00
ENDCHAR
STARTCHAR 0130
ENCODING 304
SWIDTH 447 0
DWIDTH 17 0
BBX 13 36 2 0
BITMAP
0F00
1F80
1F80
1F80
0F00
0000
0000
0000
FFF8
1F80
1F80
1F80
1F80
1F80
1F80
1F80
1F80
1F80
1F80
1F80
1F80
1F80
1F80
1F80
1F80
1F80
1F80
1F80
1F80
1F80
1F80
1F80
1F80
1F80
1F80
FFF8
ENDCHAR
STARTCHAR 0131
ENCODING 305
SWIDTH 315 0
DWIDTH 12 0
BBX 9 19 2 0
BITMAP
FE00
3E00
3E00
3E00
3E00
3E00
3E00
3E00
3E00
3E00
3E00
3E00
3E00
3E00
3E00
3E00
3E00
3E00
FF80
ENDCHAR
STARTCHAR 0132
ENCODING 306
SWIDTH 921 0
DWIDTH 35 0
BBX 32 28 2 0
BITMAP
FFF81FFF
1F8001F8
1F8001F8
1F8001F8
1F8001F8
1F8001F8
1F8001F8
1F8001F8
1F8001F8
1F8001F8
1F8001F8
1F8001F8
1F8001F8
1F8001F8
1F8001F8
1F8001F8
1F8001F8
1F8041F8
1F81E1F8
1F83F1F8
1F83F1F8
1F83F1F8
1F83E1F8
1F83C1F0
1F8381F0
1F8181E0
1F8083C0
FFF87F80
ENDCHAR
STARTCHAR 0133
ENCODING 307
SWIDTH 631 0
DWIDTH 24 0
BBX 19 37 2 -9
BITMAP
3C03C0
7E07E0
7E07E0
7E07E0
7E07E0
3C03C0
000000
000000
000000
FC1FE0
7C03E0
7C03E0
7C03E0
7C03E0
7C03E0
7C03E0
7C03E0
7C03E0
7C03E0
7C03E0
7C03E0
7C03E0
7C03E0
7C03E0
7C03E0
7C03E0
7C03E0
FF03E0
0003E0
0003E0
00F3E0
01F3E0
01F3C0
01E3C0
00E380
00C700
003E00
ENDCHAR
STARTCHAR 0134
ENCODING 308
SWIDTH 526 0
DWIDTH 20 0
BBX 18 37 1 0
BITMAP
001800
003800
003C00
007E00
00E700
038380
0600C0
000000
000000
07FFC0
007E00
007E00
007E00
007E00
007E00
007E00
007E00
007E00
007E00
007E00
007E00
007E00
007E00
007E00
007E00
007E00
107E00
7C7E00
FC7E00
FC7E00
FC7E00
F87E00
F07C00
E07C00
607800
20F000
1FE000
ENDCHAR
STARTCHAR 0135
ENCODING 309
SWIDTH 315 0
DWIDTH 12 0
BBX 14 37 -2 -9
BITMAP
03C0
03C0
03C0
07E0
0E70
1C18
100C
0000
0000
0FE0
03E0
03E0
03E0
03E0
03E0
03E0
03E0
03E0
03E0
03E0
03E0
03E0
03E0
03E0
03E0
03E0
03E0
03E0
03E0
03E0
7BE0
FBE0
FBE0
F3C0
E3C0
6780
1E00
ENDCHAR
STARTCHAR 0136
ENCODING 310
SWIDTH 763 0
DWIDTH 29 0
BBX 26 37 2 -9
BITMAP
FFF1FF00
1F807800
1F807000
1F806000
1F804000
1F80C000
1F818000
1F830000
1F860000
1F860000
1F8E0000
1F9F0000
1FBF0000
1FFF8000
1FFF8000
1FCFC000
1F8FC000
1F87E000
1F87E000
1F83F000
1F83F000
1F81F800
1F81F800
1F80FC00
1F80FC00
1F807E00
1F807E00
FFF3FFC0
00000000
000E0000
001E0000
001F0000
001F0000
00070000
00060000
000C0000
00180000
ENDCHAR
STARTCHAR 0137
ENCODING 311
SWIDTH 552 0
DWIDTH 21 0
BBX 20 37 1 -9
BITMAP
FF0000
1F0000
1F0000
1F0000
1F0000
1F0000
1F0000
1F0000
1F0000
1F1FC0
1F0700
1F0600
1F0400
1F0800
1F1800
1F1000
1F3000
1F7800
1FFC00
1FBC00
1F3E00
1F1E00
1F1F00
1F0F00
1F0F80
1F0780
1F07C0
FFDFF0
000000
007000
00F000
00F800
00F800
001800
001000
002000
00C000
ENDCHAR
STARTCHAR 0138
ENCODING 312
SWIDTH 552 0
DWIDTH 21 0
BBX 20 19 1 0
BITMAP
FF1FC0
1F0700
1F0600
1F0400
1F0800
1F1000
1F1000
1F3000
1F7800
1F7800
1FBC00
1F3C00
1F1E00
1F1F00
1F0F00
1F0F80
1F0F80
1F0FC0
FFDFF0
ENDCHAR
STARTCHAR 0139
ENCODING 313
SWIDTH 657 0
DWIDTH 25 0
BBX 22 37 2 0
BITMAP
007000
00F000
01F000
01E000
038000
070000
040000
000000
000000
FFF800
1F8000
1F8000
1F8000
1F8000
1F8000
1F8000
1F8000
1F8000
1F8000
1F8000
1F8000
1F8000
1F8000
1F8000
1F8000
1F800C
1F800C
1F800C
1F800C
1F801C
1F801C
1F803C
1F803C
1F807C
1F80FC
1F81FC
FFFFFC
ENDCHAR
STARTCHAR 013A
ENCODING 314
SWIDTH 315 0
DWIDTH 12 0
BBX 10 37 1 0
BITMAP
00C0
01C0
03C0
0780
0700
0E00
0800
0000
0000
FF00
1F00
1F00
1F00
1F00
1F00
1F00
1F00
1F00
1F00
1F00
1F00
1F00
1F00
1F00
1F00
1F00
1F00
1F00
1F00
1F00
1F00
1F00
1F00
1F00
1F00
1F00
FFC0
ENDCHAR
STARTCHAR 013B
ENCODING 315
SWIDTH 657 0
DWIDTH 25 0
BBX 22 37 2 -9
BITMAP
FFF800
1F8000
1F8000
1F8000
1F8000
1F8000
1F8000
1F8000
1F8000
1F8000
1F8000
1F8000
1F8000
1F8000
1F8000
1F8000
1F800C
1F800C
1F800C
1F800C
1F801C
1F801C
1F803C
1F803C
1F807C
1F80FC
1F81FC
FFFFFC
000000
003800
007C00
007C00
003C00
000C00
000800
001000
006000
ENDCHAR
STARTCHAR 013C
ENCODING 316
SWIDTH 315 0
DWIDTH 12 0
BBX 10 37 1 -9
BITMAP
FE00
3E00
3E00
3E00
3E00
3E00
3E00
3E00
3E00
3E00
3E00
3E00
3E00
3E00
3E00
3E00
3E00
3E00
3E00
3E00
3E00
3E00
3E00
3E00
3E00
3E00
3E00
FFC0
0000
1C00
3E00
3E00
3E00
0600
0400
0800
3000
ENDCHAR
STARTCHAR 013D
ENCODING 317
SWIDTH 684 0
DWIDTH 26 0
BBX 23 28 2 1
BITMAP
FFF83C
1F803E
1F803E
1F801E
1F8006
1F8006
1F800C
1F8018
1F8030
1F8000
1F8000
1F8000
1F8000
1F8000
1F8000
1F8000
1F8008
1F8008
1F8008
1F8018
1F8018
1F8018
1F8038
1F8038
1F8078
1F80F8
1F81F8
FFFFF8
ENDCHAR
STARTCHAR 013E
ENCODING 318
SWIDTH 368 0
DWIDTH 14 0
BBX 14 28 1 1
BITMAP
FF78
1F7C
1F7C
1F1C
1F0C
1F08
1F18
1F30
1F40
1F00
1F00
1F00
1F00
1F00
1F00
1F00
1F00
1F00
1F00
1F00
1F00
1F00
1F00
1F00
1F00
1F00
1F00
FFC0
ENDCHAR
STARTCHAR 013F
ENCODING 319
SWIDTH 657 0
DWIDTH 25 0
BBX 22 28 2 0
BITMAP
FFF800
1F8000
1F8000
1F8000
1F8000
1F8000
1F8000
1F8000
1F8038
1F807C
1F807C
1F807C
1F8038
1F8000
1F8000
1F8000
1F8004
1F8004
1F800C
1F800C
1F800C
1F801C
1F801C
1F803C
1F803C
1F807C
1F81FC
FFFFFC
ENDCHAR
STARTCHAR 0140
ENCODING 320
SWIDTH 421 0
DWIDTH 16 0
BBX 16 28 1 0
BITMAP
FF00
1F00
1F00
1F00
1F00
1F00
1F00
1F00
1F00
1F00
1F00
1F1E
1F3F
1F3F
1F3F
1F3F
1F1E
1F00
1F00
1F00
1F00
1F00
1F00
1F00
1F00
1F00
1F00
FFC0
ENDCHAR
STARTCHAR 0141
ENCODING 321
SWIDTH 657 0
DWIDTH 25 0
BBX 22 28 2 0
BITMAP
FFF800
1F8000
1F8000
1F8000
1F8000
1F8000
1F8000
1F8000
1F8000
1F8600
1F9C00
1FF000
1FC000
1F8000
3F8000
7F8000
DF800C
1F800C
1F800C
1F800C
1F801C
1F801C
1F803C
1F803C
1F807C
1F80FC
1F81FC
FFFFFC
ENDCHAR
STARTCHAR 0142
ENCODING 322
SWIDTH 315 0
DWIDTH 12 0
BBX 11 28 1 0
BITMAP
FF00
1F00
1F00
1F00
1F00
1F00
1F00
1F00
1F00
1F00
1F00
1FE0
1F80
1F00
3F00
DF00
1F00
1F00
1F00
1F00
1F00
1F00
1F00
1F00
1F00
1F00
1F00
FFE0
ENDCHAR
STARTCHAR 0143
ENCODING 323
SWIDTH 789 0
DWIDTH 30 0
BBX 27 37 2 0
BITMAP
00006000
0000E000
0001E000
0001C000
00038000
00070000
00060000
00000000
00000000
FF80FFE0
1FC03F00
1FC01E00
0FE00C00
07F00C00
07F00C00
07F80C00
07F80C00
06FC0C00
06FE0C00
067E0C00
063F0C00
063F8C00
061F8C00
061FCC00
060FEC00
0607EC00
0607FC00
0603FC00
0601FC00
0601FC00
0600FC00
0600FC00
06007C00
06003C00
0F003C00
1F801C00
FFE00C00
ENDCHAR
STARTCHAR 0144
ENCODING 324
SWIDTH 578 0
DWIDTH 22 0
BBX 19 28 2 0
BITMAP
000C00
001E00
003C00
003800
007000
00E000
00C000
000000
000000
FE3C00
3EDE00
3F0F00
3F0F80
3F0F80
3E0F80
3E0F80
3E0F80
3E0F80
3E0F80
3E0F80
3E0F80
3E0F80
3E0F80
3E0F80
3E0F80
3E0F80
3E0F80
FFBFE0
ENDCHAR
STARTCHAR 0145
ENCODING 325
SWIDTH 789 0
DWIDTH 30 0
BBX 27 37 2 -9
BITMAP
FF80FFE0
1FC03F00
1FC01E00
0FE00C00
07F00C00
07F00C00
07F80C00
07F80C00
06FC0C00
06FE0C00
067E0C00
067F0C00
063F8C00
061F8C00
061FCC00
060FEC00
0607EC00
0607FC00
0603FC00
0601FC00
0601FC00
0600FC00
0600FC00
06007C00
06003C00
0F003C00
1F801C00
FFE00C00
00000C00
000E0000
001F0000
001F0000
000F0000
00030000
00020000
00040000
00180000
ENDCHAR
STARTCHAR 0146
ENCODING 326
SWIDTH 578 0
DWIDTH 22 0
BBX 19 28 2 -9
BITMAP
FE3C00
3EDE00
3F0F00
3F0F80
3F0F80
3E0F80
3E0F80
3E0F80
3E0F80
3E0F80
3E0F80
3E0F80
3E0F80
3E0F80
3E0F80
3E0F80
3E0F80
3E0F80
FF3FE0
000000
01C000
03E000
03E000
01E000
006000
004000
00C000
010000
ENDCHAR
STARTCHAR 0147
ENCODING 327
SWIDTH 789 0
DWIDTH 30 0
BBX 27 36 2 0
BITMAP
00C03000
00606000
0039C000
001F8000
000F0000
00070000
00000000
00000000
FF80FFE0
1FC03F00
1FC01E00
0FE00C00
07F00C00
07F00C00
07F80C00
07F80C00
06FC0C00
06FE0C00
067E0C00
063F0C00
063F8C00
061F8C00
061FCC00
060FEC00
0607EC00
0607FC00
0603FC00
0601FC00
0601FC00
0600FC00
0600FC00
06007C00
06003C00
0F003C00
1F801C00
FFE00C00
ENDCHAR
STARTCHAR 0148
ENCODING 328
SWIDTH 578 0
DWIDTH 22 0
BBX 19 27 2 0
BITMAP
080600
0C0C00
071800
03B800
01F000
00E000
00C000
000000
FE3C00
3EDE00
3F0F00
3F0F80
3F0F80
3E0F80
3E0F80
3E0F80
3E0F80
3E0F80
3E0F80
3E0F80
3E0F80
3E0F80
3E0F80
3E0F80
3E0F80
3E0F80
FFBFE0
ENDCHAR
STARTCHAR 0149
ENCODING 329
SWIDTH 684 0
DWIDTH 26 0
BBX 24 28 1 1
BITMAP
F00000
F80000
F80000
780000
180000
180000
300000
600000
C00000
07F1E0
01F6F0
01F878
01F87C
01F87C
01F07C
01F07C
01F07C
01F07C
01F07C
01F07C
01F07C
01F07C
01F07C
01F07C
01F07C
01F07C
01F07C
07FDFF
ENDCHAR
STARTCHAR 014A
ENCODING 330
SWIDTH 789 0
DWIDTH 30 0
BBX 27 37 2 -9
BITMAP
FF80FFE0
1FC03F00
1FC01E00
0FE00C00
07F00C00
07F00C00
07F80C00
07F80C00
06FC0C00
06FE0C00
067E0C00
067F0C00
063F8C00
061F8C00
061FCC00
060FEC00
0607EC00
0607FC00
0603FC00
0603FC00
0601FC00
0600FC00
0600FC00
06007C00
06003C00
0F003C00
1F801C00
FFE01C00
00000C00
00000C00
00000C00
00000C00
00070C00
000F0C00
00071800
0007F800
0001E000
ENDCHAR
STARTCHAR 014B
ENCODING 331
SWIDTH 578 0
DWIDTH 22 0
BBX 17 28 2 -9
BITMAP
FE3C00
3EDE00
3F0F00
3F0F80
3F0F80
3E0F80
3E0F80
3E0F80
3E0F80
3E0F80
3E0F80
3E0F80
3E0F80
3E0F80
3E0F80
3E0F80
3E0F80
3E0F80
FF8F80
000F80
000F80
000F80
000F80
070F00
070F00
070E00
039C00
01F000
ENDCHAR
STARTCHAR 014C
ENCODING 332
SWIDTH 710 0
DWIDTH 27 0
BBX 22 35 3 0
BITMAP
03FF80
03FF80
03FF80
000000
000000
000000
000000
01FE00
030300
060180
0E01C0
1C00E0
3C00F0
3C00F0
7C00F8
7C00F8
7C00F8
FC00FC
FC00FC
FC00FC
FC00FC
FC00FC
FC00FC
FC00FC
FC00FC
7C00F8
7C00F8
7C00F8
3C00F0
3C00F0
1C00E0
0E01C0
060180
030300
01FE00
ENDCHAR
STARTCHAR 014D
ENCODING 333
SWIDTH 526 0
DWIDTH 20 0
BBX 16 26 2 0
BITMAP
1FF8
1FF8
1FF8
0000
0000
0000
0000
07C0
0C70
1C38
383C
781E
781E
F81E
F81F
F81F
F81F
F81F
F81F
F81E
781E
781E
383C
1C38
0C70
07C0
ENDCHAR
STARTCHAR 014E
ENCODING 334
SWIDTH 710 0
DWIDTH 27 0
BBX 22 36 3 0
BITMAP
040080
060180
030300
03FF00
01FE00
007800
000000
000000
01FE00
030300
060180
0E01C0
1C00E0
3C00F0
3C00F0
7C00F8
7C00F8
7C00F8
FC00FC
FC00FC
FC00FC
FC00FC
FC00FC
FC00FC
FC00FC
FC00FC
7C00F8
7C00F8
7C00F8
3C00F0
3C00F0
1C00E0
0E01C0
060180
030300
01FE00
ENDCHAR
STARTCHAR 014F
ENCODING 335
SWIDTH 526 0
DWIDTH 20 0
BBX 16 28 2 0
BITMAP
3008
1008
1018
1C38
0FF0
0FE0
03C0
0000
0000
07C0
0C70
1C38
383C
781E
781E
F81E
F81F
F81F
F81F
F81F
F81F
F81E
781E
781E
383C
1C38
0C70
07C0
ENDCHAR
STARTCHAR 0150
ENCODING 336
SWIDTH 710 0
DWIDTH 27 0
BBX 22 37 3 1
BITMAP
001CE0
003DE0
0039C0
007380
00E300
00C600
018400
000000
000000
01FE00
030300
060180
0E01C0
1C00E0
3C00F0
3C00F0
7C00F8
7C00F8
7C00F8
FC00FC
FC00FC
FC00FC
FC00FC
FC00FC
FC00FC
FC00FC
FC00FC
7C00F8
7C00F8
7C00F8
3C00F0
3C00F0
1C00E0
0E01C0
060180
030300
01FE00
ENDCHAR
STARTCHAR 0151
ENCODING 337
SWIDTH 526 0
DWIDTH 20 0
BBX 16 28 2 0
BITMAP
00E6
01EF
01EF
03DE
079C
0630
0C20
0000
0000
07C0
0C70
1C38
383C
781E
781E
F81E
F81F
F81F
F81F
F81F
F81F
F81E
781E
781E
383C
1C38
0C70
07C0
ENDCHAR
STARTCHAR 0152
ENCODING 338
SWIDTH 1026 0
DWIDTH 39 0
BBX 34 28 3 1
BITMAP
01FFFFFFC0
0307F80FC0
0603F807C0
0E03F803C0
1C01F801C0
3C01F801C0
3C01F800C0
7C01F800C0
7C01F810C0
7C01F81000
FC01F83000
FC01F83000
FC01F87000
FC01FFF000
FC01F8F000
FC01F87000
FC01F83000
FC01F81040
7C01F810C0
7C01F810C0
7C01F800C0
3C01F800C0
3C01F801C0
1C01F801C0
0E03F803C0
0603F807C0
0307F81FC0
01FFFFFFC0
ENDCHAR
STARTCHAR 0153
ENCODING 339
SWIDTH 763 0
DWIDTH 29 0
BBX 25 19 2 0
BITMAP
07C1F000
1C771C00
387F1E00
383E0F00
783E0F00
783E0F00
F83E0F80
F83E0F80
F83E0F80
F83FFF80
F83E0000
F83E0000
F83E0080
783E0080
783E0100
383F0100
38770200
1C638600
07C0F800
ENDCHAR
STARTCHAR 0154
ENCODING 340
SWIDTH 736 0
DWIDTH 28 0
BBX 25 37 2 1
BITMAP
000E0000
000F0000
001E0000
001C0000
00380000
00700000
00400000
00000000
00000000
FFFF0000
1F87C000
1F83E000
1F81F000
1F81F800
1F81F800
1F81F800
1F81F800
1F81F800
1F81F000
1F83E000
1F87C000
1FFE0000
1F878000
1F83C000
1F81F000
1F81F000
1F81F800
1F81F800
1F81F800
1F81F800
1F81F880
1F81F880
1F81F880
1F81F880
1F81F900
1F80F900
FFF87E00
ENDCHAR
STARTCHAR 0155
ENCODING 341
SWIDTH 447 0
DWIDTH 17 0
BBX 14 28 2 0
BITMAP
0030
0078
0070
00F0
01E0
0180
0300
0000
0000
FE30
3E78
3EBC
3F3C
3F7C
3E7C
3E38
3E00
3E00
3E00
3E00
3E00
3E00
3E00
3E00
3E00
3E00
3E00
FF80
ENDCHAR
STARTCHAR 0156
ENCODING 342
SWIDTH 736 0
DWIDTH 28 0
BBX 25 37 2 -9
BITMAP
FFFF0000
1F87C000
1F83E000
1F81F000
1F81F800
1F81F800
1F81F800
1F81F800
1F81F800
1F81F000
1F83E000
1F87C000
1FFE0000
1F878000
1F83E000
1F81F000
1F81F000
1F81F800
1F81F800
1F81F800
1F81F800
1F81F880
1F81F880
1F81F880
1F81F880
1F81F900
1F80F900
FFF87E00
00000000
001C0000
003E0000
003E0000
001E0000
00060000
00040000
00080000
00300000
ENDCHAR
STARTCHAR 0157
ENCODING 343
SWIDTH 421 0
DWIDTH 16 0
BBX 14 28 1 -9
BITMAP
FE38
3E78
3EBC
3F3C
3F7C
3F7C
3E38
3E00
3E00
3E00
3E00
3E00
3E00
3E00
3E00
3E00
3E00
3E00
FF80
0000
1C00
3E00
3E00
3E00
0600
0400
0800
3000
ENDCHAR
STARTCHAR 0158
ENCODING 344
SWIDTH 736 0
DWIDTH 28 0
BBX 25 36 2 0
BITMAP
08030000
0E060000
079C0000
03F80000
00F00000
00600000
00000000
00000000
FFFF0000
1F87C000
1F83E000
1F81F000
1F81F800
1F81F800
1F81F800
1F81F800
1F81F800
1F81F000
1F83E000
1F87C000
1FFE0000
1F878000
1F83C000
1F81F000
1F81F000
1F81F800
1F81F800
1F81F800
1F81F800
1F81F880
1F81F880
1F81F880
1F81F880
1F81F900
1F80F900
FFF87E00
ENDCHAR
STARTCHAR 0159
ENCODING 345
SWIDTH 447 0
DWIDTH 17 0
BBX 14 27 2 0
BITMAP
2008
1830
0C70
0FE0
07C0
0380
0180
0000
FE30
3E78
3EBC
3F3C
3F7C
3E7C
3E38
3E00
3E00
3E00
3E00
3E00
3E00
3E00
3E00
3E00
3E00
3E00
FF80
ENDCHAR
STARTCHAR 015A
ENCODING 346
SWIDTH 605 0
DWIDTH 23 0
BBX 18 37 3 1
BITMAP
003800
007800
007800
00F000
00C000
018000
030000
000000
010000
1FE180
303980
601F80
600F80
E00780
F00380
F00380
F80180
FE0180
FF0180
7FC000
7FE000
3FF800
1FFC00
07FF00
03FF00
80FF80
807F80
C01FC0
C00FC0
C003C0
E001C0
E001C0
F00180
F80180
FC0300
CE0600
87FC00
ENDCHAR
STARTCHAR 015B
ENCODING 347
SWIDTH 421 0
DWIDTH 16 0
BBX 13 28 2 0
BITMAP
00E0
00E0
01E0
03C0
0380
0700
0400
0000
0000
1F10
61D0
6070
E030
E030
F010
F800
7E00
7F80
3FE0
0FF0
87F0
C1F8
C078
E038
E018
F010
9C30
87C0
ENDCHAR
STARTCHAR 015C
ENCODING 348
SWIDTH 605 0
DWIDTH 23 0
BBX 18 37 3 0
BITMAP
010000
038000
03C000
07C000
0EE000
383800
600C00
000000
010000
1FE180
303980
601F80
600F80
E00780
F00380
F00380
F80180
FE0180
FF0180
7FC000
7FE000
3FF800
1FFC00
07FF00
03FF00
80FF80
807F80
C01FC0
C00FC0
C007C0
E003C0
E001C0
F00180
F80180
F80300
CE0200
87BC00
ENDCHAR
STARTCHAR 015D
ENCODING 349
SWIDTH 421 0
DWIDTH 16 0
BBX 13 28 2 0
BITMAP
0700
0F00
0F00
1F80
39C0
70E0
E030
0000
0000
1F10
61D0
6070
E030
E030
F010
F800
7E00
7F80
3FE0
0FF0
87F0
C1F8
C078
E038
E018
F010
9C30
87C0
ENDCHAR
STARTCHAR 015E
ENCODING 350
SWIDTH 605 0
DWIDTH 23 0
BBX 18 38 3 -9
BITMAP
010000
1FE100
303900
601F00
600F00
E00700
F00300
F00300
F80100
FE0100
FF0100
7FC000
7FE000
3FF800
1FFC00
07FF00
03FF00
80FF80
807F80
C01FC0
C00FC0
C007C0
E003C0
E001C0
F00180
F80180
F80300
CE0600
87BC00
00C000
008000
01E000
007000
003800
003800
003800
0C7000
03E000
ENDCHAR
STARTCHAR 015F
ENCODING 351
SWIDTH 421 0
DWIDTH 16 0
BBX 13 27 2 -8
BITMAP
1F10
61D0
6070
E030
E030
F010
F800
7E00
7F80
3FE0
0FF0
87F0
C1F8
C078
E038
E018
F010
9C30
87C0
0600
0400
0700
0180
01C0
01C0
11C0
0F80
ENDCHAR
STARTCHAR 0160
ENCODING 352
SWIDTH 605 0
DWIDTH 23 0
BBX 18 36 3 0
BITMAP
200C00
383800
1C7000
0FE000
07C000
038000
000000
010000
1FE180
303980
601F80
600F80
E00780
F00380
F00380
F80180
FE0180
FF0180
7FC000
7FE000
3FF800
1FFC00
07FF00
03FF00
80FF80
807F80
C01FC0
C00FC0
C007C0
E003C0
E001C0
F00180
F80180
F80300
CE0200
87BC00
ENDCHAR
STARTCHAR 0161
ENCODING 353
SWIDTH 421 0
DWIDTH 16 0
BBX 13 27 2 1
BITMAP
6020
30E0
39C0
1F80
0F00
0600
0000
0000
1F10
61D0
6070
E030
E030
F010
F800
7E00
7F80
3FE0
0FF0
87F0
C1F8
C078
E038
E018
F010
9C30
87C0
ENDCHAR
STARTCHAR 0162
ENCODING 354
SWIDTH 710 0
DWIDTH 27 0
BBX 24 37 2 -9
BITMAP
FFFFFF
FC7E3F
F87E1F
F07E0F
E07E0F
E07E07
C07E07
C07E03
C07E03
C07E03
807E03
807E02
007E00
007E00
007E00
007E00
007E00
007E00
007E00
007E00
007E00
007E00
007E00
007E00
007E00
007E00
007E00
07FFE0
001000
001000
003C00
000E00
000700
000700
000700
018E00
007C00
ENDCHAR
STARTCHAR 0163
ENCODING 355
SWIDTH 368 0
DWIDTH 14 0
BBX 12 35 1 -8
BITMAP
0600
0600
0600
0600
0600
0E00
1E00
3E00
FFE0
3E00
3E00
3E00
3E00
3E00
3E00
3E00
3E00
3E00
3E10
3E10
3E10
3E10
3E10
3E20
1E20
1FE0
0780
0200
0200
0380
00C0
00E0
00E0
11E0
0FC0
ENDCHAR
STARTCHAR 0164
ENCODING 356
SWIDTH 710 0
DWIDTH 27 0
BBX 24 36 2 0
BITMAP
020040
0381C0
01E780
00FE00
007C00
003800
000000
000000
FFFFFF
FC7E3F
F87E1F
F07E0F
E07E0F
E07E07
C07E07
C07E03
C07E03
C07E03
807E03
807E02
007E00
007E00
007E00
007E00
007E00
007E00
007E00
007E00
007E00
007E00
007E00
007E00
007E00
007E00
007E00
07FFE0
ENDCHAR
STARTCHAR 0165
ENCODING 357
SWIDTH 394 0
DWIDTH 15 0
BBX 15 28 1 1
BITMAP
003C
003E
063E
060E
0606
0604
0E08
1E30
3E00
FFE0
3E00
3E00
3E00
3E00
3E00
3E00
3E00
3E00
3E00
3E10
3E10
3E10
3E10
3E10
3E20
3E20
1FC0
0780
ENDCHAR
STARTCHAR 0166
ENCODING 358
SWIDTH 710 0
DWIDTH 27 0
BBX 23 28 3 0
BITMAP
FFFFFE
F8FC7E
F0FC3E
E0FC1E
E0FC1E
C0FC0E
C0FC0E
C0FC0E
80FC06
80FC06
80FC06
80FC06
00FC00
1FFFE0
00FC00
00FC00
00FC00
00FC00
00FC00
00FC00
00FC00
00FC00
00FC00
00FC00
00FC00
00FC00
00FC00
0FFFC0
ENDCHAR
STARTCHAR 0167
ENCODING 359
SWIDTH 368 0
DWIDTH 14 0
BBX 12 27 1 0
BITMAP
0600
0600
0600
0600
0600
0E00
1E00
3E00
FFE0
3E00
3E00
3E00
3E00
FFE0
3E00
3E00
3E00
3E00
3E10
3E10
3E10
3E10
3E10
3E20
3E20
1FC0
0780
ENDCHAR
STARTCHAR 0168
ENCODING 360
SWIDTH 789 0
DWIDTH 30 0
BBX 26 36 3 0
BITMAP
00382000
007E2000
007FE000
008FC000
00818000
00000000
00000000
00000000
FFF07FC0
1F801F00
1F800E00
1F800600
1F800600
1F800600
1F800600
1F800600
1F800600
1F800600
1F800600
1F800600
1F800600
1F800600
1F800600
1F800600
1F800600
1F800600
1F800600
1F800600
1F800600
1F800600
0F800C00
0FC00C00
07C01800
07E03800
01FCF000
00FFC000
ENDCHAR
STARTCHAR 0169
ENCODING 361
SWIDTH 552 0
DWIDTH 21 0
BBX 19 27 1 0
BITMAP
070400
0FC400
1FFC00
11F800
107000
000000
000000
000000
FE3F80
3E0F80
3E0F80
3E0F80
3E0F80
3E0F80
3E0F80
3E0F80
3E0F80
3E0F80
3E0F80
3E0F80
3E0F80
3E0F80
3E1F80
3E1F80
1E2F80
1E4F80
078FE0
ENDCHAR
STARTCHAR 016A
ENCODING 362
SWIDTH 789 0
DWIDTH 30 0
BBX 26 35 3 0
BITMAP
00FFE000
00FFE000
00FFE000
00000000
00000000
00000000
00000000
FFF07FC0
1F801F00
1F800E00
1F800600
1F800600
1F800600
1F800600
1F800600
1F800600
1F800600
1F800600
1F800600
1F800600
1F800600
1F800600
1F800600
1F800600
1F800600
1F800600
1F800600
1F800600
1F800600
0F800C00
0FC00C00
07C01800
07E03800
01FCF000
00FFC000
ENDCHAR
STARTCHAR 016B
ENCODING 363
SWIDTH 552 0
DWIDTH 21 0
BBX 19 26 1 0
BITMAP
1FF800
1FF800
1FF800
000000
000000
000000
000000
FE3F80
3E0F80
3E0F80
3E0F80
3E0F80
3E0F80
3E0F80
3E0F80
3E0F80
3E0F80
3E0F80
3E0F80
3E0F80
3E0F80
3E1F80
3E1F80
1E2F80
1E4F80
078FE0
ENDCHAR
STARTCHAR 016C
ENCODING 364
SWIDTH 789 0
DWIDTH 30 0
BBX 26 36 3 0
BITMAP
00803000
00C03000
00606000
007FE000
003FC000
000F0000
00000000
00000000
FFF07FC0
1F801F00
1F800E00
1F800600
1F800600
1F800600
1F800600
1F800600
1F800600
1F800600
1F800600
1F800600
1F800600
1F800600
1F800600
1F800600
1F800600
1F800600
1F800600
1F800600
1F800600
1F800600
0F800C00
0FC00C00
07C01800
07E03800
01FCF000
00FFC000
ENDCHAR
STARTCHAR 016D
ENCODING 365
SWIDTH 552 0
DWIDTH 21 0
BBX 19 28 1 0
BITMAP
100400
180400
080C00
0C1800
0FF800
07F000
01C000
000000
000000
FE3F80
3E0F80
3E0F80
3E0F80
3E0F80
3E0F80
3E0F80
3E0F80
3E0F80
3E0F80
3E0F80
3E0F80
3E0F80
3E0F80
3E1F80
3E1F80
1E2F80
1E4F80
078FE0
ENDCHAR
STARTCHAR 016E
ENCODING 366
SWIDTH 789 0
DWIDTH 30 0
BBX 26 37 3 0
BITMAP
001F0000
003F8000
0060C000
0060C000
0060C000
003F8000
001F0000
00000000
00000000
FFF07FC0
1F801F00
1F800E00
1F800600
1F800600
1F800600
1F800600
1F800600
1F800600
1F800600
1F800600
1F800600
1F800600
1F800600
1F800600
1F800600
1F800600
1F800600
1F800600
1F800600
1F800600
1F800600
0F800C00
0FC00C00
07C01800
07E03800
01FCF000
00FFC000
ENDCHAR
STARTCHAR 016F
ENCODING 367
SWIDTH 552 0
DWIDTH 21 0
BBX 19 29 1 0
BITMAP
008000
03E000
067000
0C1800
0C1800
0C1800
063000
07F000
01C000
000000
FE3F80
3E0F80
3E0F80
3E0F80
3E0F80
3E0F80
3E0F80
3E0F80
3E0F80
3E0F80
3E0F80
3E0F80
3E0F80
3E0F80
3E1F80
3E1F80
1E2F80
1E4F80
078FE0
ENDCHAR
STARTCHAR 0170
ENCODING 368
SWIDTH 789 0
DWIDTH 30 0
BBX 26 38 3 0
BITMAP
00000800
00039C00
0007BC00
000F3800
000E7000
001CE000
0018C000
00218000
00000000
00000000
FFF07FC0
1F801F00
1F800E00
1F800600
1F800600
1F800600
1F800600
1F800600
1F800600
1F800600
1F800600
1F800600
1F800600
1F800600
1F800600
1F800600
1F800600
1F800600
1F800600
1F800600
1F800600
1F800600
0F800400
0F800C00
07C01800
07E01800
01F07000
00FFC000
ENDCHAR
STARTCHAR 0171
ENCODING 369
SWIDTH 552 0
DWIDTH 21 0
BBX 19 28 1 0
BITMAP
006300
00F780
00E780
01CE00
039C00
031800
063000
000000
000000
FE3F80
3E0F80
3E0F80
3E0F80
3E0F80
3E0F80
3E0F80
3E0F80
3E0F80
3E0F80
3E0F80
3E0F80
3E0F80
3E0F80
3E1F80
3E1F80
1E2F80
1E4F80
078FE0
ENDCHAR
STARTCHAR 0172
ENCODING 370
SWIDTH 789 0
DWIDTH 30 0
BBX 26 37 3 -9
BITMAP
FFF07FC0
1F801F00
1F800E00
1F800600
1F800600
1F800600
1F800600
1F800600
1F800600
1F800600
1F800600
1F800600
1F800600
1F800600
1F800600
1F800600
1F800600
1F800600
1F800600
1F800600
1F800600
1F800600
0F800C00
0FC00C00
07C01800
07E03800
03FCE000
00FFC000
00030000
00060000
000E0000
001C0000
001C0000
001C0000
001E6000
000FC000
00078000
ENDCHAR
STARTCHAR 0173
ENCODING 371
SWIDTH 552 0
DWIDTH 21 0
BBX 19 28 1 -9
BITMAP
FE3F80
3E0F80
3E0F80
3E0F80
3E0F80
3E0F80
3E0F80
3E0F80
3E0F80
3E0F80
3E0F80
3E0F80
3E0F80
3E0F80
3E1F80
3E1F80
1E2F80
1E4F80
078FE0
0000C0
000100
000300
000600
000E00
000E00
000F20
000FE0
000380
ENDCHAR
STARTCHAR 0174
ENCODING 372
SWIDTH 1078 0
DWIDTH 41 0
BBX 38 37 2 0
BITMAP
0000180000
0000380000
00007C0000
00007E0000
0001C70000
0003818000
000200C000
0000000000
0000000000
FFF3FFCFFC
1FC07E01E0
0FC07E00C0
0FC03E00C0
07C03F0080
07E03F0080
07E03F0180
07E03F8100
03F03F8100
03F07F8300
03F06FC300
01F84FC200
01F8CFC200
01F8C7E600
00FC87E600
00FC87E400
00FD83F400
007F83FC00
007F03F800
007F03F800
007F01F800
003F01F800
003E01F000
003E00F000
001E00F000
001C00F000
001C006000
000C006000
ENDCHAR
STARTCHAR 0175
ENCODING 373
SWIDTH 789 0
DWIDTH 30 0
BBX 28 28 1 0
BITMAP
00070000
00070000
000F8000
000D8000
0018C000
00306000
00603000
00000000
00000000
FF3FE7F0
3E0F81C0
1E078180
1E078180
1F07C100
0F07C100
0F07C300
0F8FE200
0789E200
0789E600
07D9F400
03D0F400
03F0F800
03F0F800
01E0F800
01E07000
01C07000
00C07000
00C02000
ENDCHAR
STARTCHAR 0176
ENCODING 374
SWIDTH 736 0
DWIDTH 28 0
BBX 25 37 2 0
BITMAP
00060000
000E0000
000F0000
001F8000
0039C000
00E0E000
00803000
00000000
00000000
FFF0FF80
1FC03C00
1FC01800
0FC01800
0FE01800
07E01000
07F03000
03F02000
03F02000
01F86000
01F84000
01FCC000
00FCC000
00FE8000
007F8000
007F8000
003F0000
003F0000
003F0000
003F0000
003F0000
003F0000
003F0000
003F0000
003F0000
003F0000
003F0000
01FFE000
ENDCHAR
STARTCHAR 0177
ENCODING 375
SWIDTH 526 0
DWIDTH 20 0
BBX 19 37 0 -9
BITMAP
007000
00F000
00F000
01F800
039C00
070E00
040300
000000
000000
FFCFE0
3F0380
1F0300
1F0200
0F0200
0F8200
0F8200
07C400
07C400
03C400
03E800
03E800
01F800
01F800
00F000
00F000
007000
006000
006000
002000
004000
0C4000
1E4000
3E4000
3E8000
3C8000
1D0000
0E0000
ENDCHAR
STARTCHAR 0178
ENCODING 376
SWIDTH 736 0
DWIDTH 28 0
BBX 25 36 2 0
BITMAP
00E0E000
01F1F000
01F1F000
01F1F000
00E0E000
00000000
00000000
00000000
FFF0FF80
1FC03C00
1FC01800
0FC01800
0FC01800
07E01000
07E03000
03F02000
03F06000
01F86000
01F84000
01FCC000
00FCC000
00FC8000
007F8000
007F8000
003F0000
003F0000
003F0000
003F0000
003F0000
003F0000
003F0000
003F0000
003F0000
003F0000
003F0000
01FFE000
ENDCHAR
STARTCHAR 0179
ENCODING 377
SWIDTH 657 0
DWIDTH 25 0
BBX 20 37 3 0
BITMAP
000300
000700
000F00
001E00
001C00
003000
006000
000000
000000
7FFFF0
7E07F0
7C07E0
780FE0
700FC0
601FC0
601F80
603F80
403F00
407F00
00FE00
00FE00
01FC00
01F800
03F800
03F000
07F000
07E010
0FE010
0FC010
1FC030
1F8030
3F8070
3F0070
7F00F0
7E01F0
FE07F0
FFFFF0
ENDCHAR
STARTCHAR 017A
ENCODING 378
SWIDTH 447 0
DWIDTH 17 0
BBX 14 28 1 0
BITMAP
0030
0078
00F0
00E0
01C0
0380
0200
0000
0000
7FFC
787C
70F8
60F8
41F0
41E0
43E0
03C0
07C0
0780
0F80
1F04
1F04
3E04
3E0C
7C0C
781C
F83C
FFFC
ENDCHAR
STARTCHAR 017B
ENCODING 379
SWIDTH 657 0
DWIDTH 25 0
BBX 20 36 3 0
BITMAP
007000
00F800
00F800
00F800
007000
000000
000000
000000
7FFFF0
7E07F0
780FE0
780FE0
701FC0
601FC0
603F80
603F80
407F00
407F00
00FE00
00FE00
01FC00
01F800
03F800
03F000
07F000
07E010
0FE010
0FC010
1FC030
1F8030
3F8070
3F0070
7F00F0
7E01F0
FE07F0
FFFFF0
ENDCHAR
STARTCHAR 017C
ENCODING 380
SWIDTH 447 0
DWIDTH 17 0
BBX 14 27 1 0
BITMAP
03C0
07E0
07E0
07E0
07E0
03C0
0000
0000
7FFC
787C
7078
60F8
60F0
41F0
41E0
03C0
07C0
0780
0F80
0F04
1F04
1E04
3E0C
7C0C
7C1C
F83C
FFFC
ENDCHAR
STARTCHAR 017D
ENCODING 381
SWIDTH 657 0
DWIDTH 25 0
BBX 20 36 3 0
BITMAP
040180
070300
03CE00
01FC00
00F800
007000
000000
000000
7FFFF0
7E07F0
7C07E0
780FE0
700FC0
601FC0
601F80
603F80
403F00
407F00
00FE00
00FE00
01FC00
01F800
03F800
03F000
07F000
07E010
0FE010
0FC010
1FC030
1F8030
3F8070
3F0070
7F00F0
7E01F0
FE07F0
FFFFF0
ENDCHAR
STARTCHAR 017E
ENCODING 382
SWIDTH 447 0
DWIDTH 17 0
BBX 14 27 1 0
BITMAP
2018
1830
0C60
0EE0
07C0
0380
0100
0000
7FFC
787C
70F8
60F8
41F0
41E0
43E0
03C0
07C0
0780
0F80
1F04
1F04
3E04
3E0C
7C0C
781C
F83C
FFFC
ENDCHAR
STARTCHAR 017F
ENCODING 383
SWIDTH 368 0
DWIDTH 14 0
BBX 15 28 1 0
BITMAP
00F8
038C
070E
0F1E
0F3E
1F3E
1F3C
1F00
1F00
1F00
1F00
1F00
1F00
1F00
1F00
1F00
1F00
1F00
1F00
1F00
1F00
1F00
1F00
1F00
1F00
1F00
1F00
FFE0
ENDCHAR
STARTCHAR 0180
ENCODING 384
SWIDTH 552 0
DWIDTH 21 0
BBX 18 28 1 0
BITMAP
FE0000
3E0000
3E0000
3E0000
FFFC00
3E0000
3E0000
3E0000
3E0000
3E7800
3E8E00
3F0F00
3F0F00
3F0780
3E0780
3E07C0
3E07C0
3E07C0
3E07C0
3E07C0
3E07C0
3E0780
3E0780
3F0780
3F0F00
310F00
318E00
207800
ENDCHAR
STARTCHAR 0186
ENCODING 390
SWIDTH 657 0
DWIDTH 25 0
BBX 20 28 3 1
BITMAP
07F800
180E00
300700
200780
6003C0
4003C0
C003E0
C003E0
8003E0
8003F0
8003F0
0003F0
0003F0
0003F0
0003F0
0003F0
C003F0
C003F0
C003F0
C003E0
E003E0
E003E0
F003C0
F003C0
F80780
FC0700
EE0E00
C3BC00
ENDCHAR
STARTCHAR 018E
ENCODING 398
SWIDTH 684 0
DWIDTH 26 0
BBX 22 28 3 0
BITMAP
7FFFFC
7C07E0
7807E0
7007E0
6007E0
6007E0
4007E0
4007E0
4207E0
0207E0
0207E0
0307E0
0387E0
03FFE0
0387E0
0307E0
0307E0
8207E0
C207E0
C207E0
C007E0
C007E0
E007E0
E007E0
F007E0
F807E0
FE07E0
FFFFFC
ENDCHAR
STARTCHAR 018F
ENCODING 399
SWIDTH 710 0
DWIDTH 27 0
BBX 22 28 3 1
BITMAP
03FE00
040780
0807C0
1003E0
3003F0
2001F0
6001F8
4001F8
4001F8
C001FC
0001FC
0001FC
0001FC
0001FC
FFFFFC
FC01FC
FC01FC
FC01FC
FC01F8
7C01F8
7C01F8
7C01F8
3C01F0
3E03F0
1E03E0
0E03C0
070780
01FE00
ENDCHAR
STARTCHAR 0190
ENCODING 400
SWIDTH 631 0
DWIDTH 24 0
BBX 20 28 2 1
BITMAP
07FE60
0F03E0
1F01E0
3E01E0
7E00E0
7E00E0
7E0060
7E0060
7E0060
3E0060
3F0000
1F0000
078000
007C00
078000
1F0000
3F0000
7E0000
FE01E0
FE03F0
FE03F0
FE03F0
FE01F0
FE00F0
7F00E0
3F00C0
1F8180
07FE00
ENDCHAR
STARTCHAR 0192
ENCODING 402
SWIDTH 578 0
DWIDTH 22 0
BBX 21 34 -1 -6
BITMAP
0003E0
000E30
001E38
001C78
003CF8
003CF8
003C70
007C00
007C00
07FFC0
007C00
007C00
007C00
007800
007800
007800
007800
007800
00F800
00F800
00F800
00F800
00F000
00F000
00F000
00F000
00F000
71E000
F9E000
F9C000
F1C000
F38000
730000
3E0000
ENDCHAR
STARTCHAR 0195
ENCODING 405
SWIDTH 736 0
DWIDTH 28 0
BBX 25 28 1 0
BITMAP
FF000000
1F000000
1F000000
1F000000
1F000000
1F000000
1F000000
1F000000
1F000000
1F1E0E00
1F6F1F00
1F879F00
1F87CF00
1F87CF80
1F07C780
1F07C380
1F07C180
1F07C080
1F07C080
1F07C080
1F07C080
1F07C080
1F07C080
1F07C100
1F07C100
1F03C200
1F03E400
FFC0F800
ENDCHAR
STARTCHAR 01A6
ENCODING 422
SWIDTH 736 0
DWIDTH 28 0
BBX 25 34 2 -6
BITMAP
FFF80000
1F800000
1F800000
1F800000
1F800000
1FFF0000
1F87C000
1F83E000
1F81F000
1F81F800
1F81F800
1F81F800
1F81F800
1F81F800
1F81F000
1F83E000
1F87C000
1FFE0000
1F878000
1F83E000
1F81F000
1F81F000
1F81F800
1F81F800
1F81F800
1F81F800
1F81F800
FFF9F880
0001F880
0001F880
0001F880
0000F900
0000FF00
00003E00
ENDCHAR
STARTCHAR 01B7
ENCODING 439
SWIDTH 605 0
DWIDTH 23 0
BBX 20 28 2 0
BITMAP
7FFFE0
7FFFE0
7FFFC0
7FFF80
7FFF00
700600
600E00
600C00
401800
403000
006000
00C000
01FE00
030F80
0007C0
0007E0
0003E0
1803F0
7E03F0
FE03F0
FE03F0
FE03F0
FC03F0
F003E0
7007E0
7007C0
380F00
0FFC00
ENDCHAR
STARTCHAR 01BF
ENCODING 447
SWIDTH 526 0
DWIDTH 20 0
BBX 18 28 0 -9
BITMAP
071F00
0F3F80
3F4780
FF87C0
1F87C0
1F07C0
1F07C0
1F07C0
1F0780
1F0780
1F0F00
1F0F00
1F0E00
1F0C00
1F1800
1F3000
1F6000
1FC000
1F0000
1F0000
1F0000
1F0000
1F0000
1F0000
1F0000
1E0000
380000
E00000
ENDCHAR
STARTCHAR 01C4
ENCODING 452
SWIDTH 1447 0
DWIDTH 55 0
BBX 51 36 2 0
BITMAP
00000000100600
000000001C0C00
000000000F3800
0000000007F000
0000000003E000
0000000001C000
00000000000000
00000000000000
FFFFC001FFFFC0
0FC07001F81FC0
0FC03801F01F80
0FC01C01E03F80
0FC01E01C03F00
0FC00F01807F00
0FC00F01807E00
0FC00F8180FE00
0FC00F8100FC00
0FC00F8101FC00
0FC00FC001F800
0FC00FC003F800
0FC00FC003F000
0FC00FC007E000
0FC00FC007E000
0FC00FC00FC000
0FC00FC00FC000
0FC00FC01F8060
0FC00F801F8060
0FC00F801F0060
0FC00F803F00E0
0FC00F003E00E0
0FC00F007E01E0
0FC01E007C01E0
0FC01C00FC03E0
0FC03800F807E0
0FC0F001F81FE0
FFFFC001FFFFE0
ENDCHAR
STARTCHAR 01C5
ENCODING 453
SWIDTH 1263 0
DWIDTH 48 0
BBX 43 28 3 0
BITMAP
FFFF80000000
1F80E00180C0
1F807000C180
1F8038007700
1F803C003E00
1F801E003E00
1F801E001C00
1F801F000000
1F801F000000
1F801F03FFE0
1F801F83C3E0
1F801F8387C0
1F801F8307C0
1F801F820F80
1F801F821F00
1F801F821F00
1F801F803E00
1F801F803E00
1F801F007C00
1F801F00FC00
1F801F00F820
1F801E01F820
1F801E01F020
1F803C03F060
1F803807E060
1F807007C0E0
1F80E00FC1E0
FFFF800FFFE0
ENDCHAR
STARTCHAR 01C6
ENCODING 454
SWIDTH 1026 0
DWIDTH 39 0
BBX 35 28 2 0
BITMAP
00FE000000
003E0180C0
003E00C180
003E006300
003E007700
003E003E00
003E001C00
003E000000
003E000000
0F3E03FFE0
1CBE03C3E0
3C7E0387C0
787E0307C0
783E020F80
783E021F80
F83E021F00
F83E003E00
F83E003E00
F83E007C00
F83E00FC00
F83E00F820
F83E01F820
783E01F020
783E03F060
787E07E060
3C7E07C0E0
1CBE0FC1E0
0F3FCFFFE0
ENDCHAR
STARTCHAR 01C7
ENCODING 455
SWIDTH 1210 0
DWIDTH 46 0
BBX 43 28 2 0
BITMAP
FFF80003FFE0
1F8000007E00
1F8000007E00
1F8000007E00
1F8000007E00
1F8000007E00
1F8000007E00
1F8000007E00
1F8000007E00
1F8000007E00
1F8000007E00
1F8000007E00
1F8000007E00
1F8000007E00
1F8000007E00
1F8000007E00
1F8004007E00
1F8004187E00
1F800C3E7E00
1F800C7E7E00
1F800C7E7E00
1F801C7E7E00
1F801C7C7E00
1F803C707C00
1F803C707C00
1F807C207800
1F81FC10F000
FFFFFC0FE000
ENDCHAR
STARTCHAR 01C8
ENCODING 456
SWIDTH 1000 0
DWIDTH 38 0
BBX 33 37 2 -9
BITMAP
FFF8000F00
1F80001F80
1F80001F80
1F80001F80
1F80001F80
1F80000F00
1F80000000
1F80000000
1F80000000
1F80007F00
1F80001F00
1F80001F00
1F80001F00
1F80001F00
1F80001F00
1F80001F00
1F800C1F00
1F800C1F00
1F800C1F00
1F800C1F00
1F801C1F00
1F801C1F00
1F801C1F00
1F803C1F00
1F807C1F00
1F807C1F00
1F81FC1F00
FFFFFC1F00
0000001F00
0000001F00
000003DF00
000007DF00
000007DF00
0000079E00
0000079E00
0000033C00
000000F000
ENDCHAR
STARTCHAR 01C9
ENCODING 457
SWIDTH 657 0
DWIDTH 25 0
BBX 21 37 1 -9
BITMAP
FF00F0
1F01F8
1F01F8
1F01F8
1F01F8
1F00F0
1F0000
1F0000
1F0000
1F07F0
1F01F0
1F01F0
1F01F0
1F01F0
1F01F0
1F01F0
1F01F0
1F01F0
1F01F0
1F01F0
1F01F0
1F01F0
1F01F0
1F01F0
1F01F0
1F01F0
1F01F0
FFC1F0
0001F0
0001F0
003DF0
007DF0
007DF0
0079E0
0079E0
0033C0
000F00
ENDCHAR
STARTCHAR 01CA
ENCODING 458
SWIDTH 1315 0
DWIDTH 50 0
BBX 47 28 2 0
BITMAP
FF80FFE03FFE
1FC03F0003F0
1FC01E0003F0
0FE00C0003F0
07F00C0003F0
07F00C0003F0
07F80C0003F0
07F80C0003F0
06FC0C0003F0
06FE0C0003F0
067E0C0003F0
063F0C0003F0
063F8C0003F0
061F8C0003F0
061FCC0003F0
060FEC0003F0
0607EC0003F0
0607FC0083F0
0603FC03C3F0
0601FC07E3F0
0601FC07E3F0
0600FC07E3F0
0600FC07C3F0
06007C0783E0
06003C0703E0
0F003C0303C0
1F801C010780
FFE00C00FF00
ENDCHAR
STARTCHAR 01CB
ENCODING 459
SWIDTH 1105 0
DWIDTH 42 0
BBX 37 37 2 -9
BITMAP
FF80FFE0F0
1FC03F01F8
1FC01E01F8
0FE00C01F8
07F00C01F8
07F00C00F0
07F80C0000
07F80C0000
07FC0C0000
06FE0C07F0
067E0C01F0
067F0C01F0
063F8C01F0
061F8C01F0
061FCC01F0
060FEC01F0
0607EC01F0
0607FC01F0
0603FC01F0
0603FC01F0
0601FC01F0
0600FC01F0
0600FC01F0
06007C01F0
06003C01F0
0F003C01F0
1F801C01F0
FFE00C01F0
00000C01F0
00000001F0
0000003DF0
0000007DF0
0000007DF0
00000079E0
00000079E0
0000003BC0
0000000F00
ENDCHAR
STARTCHAR 01CC
ENCODING 460
SWIDTH 894 0
DWIDTH 34 0
BBX 29 37 2 -9
BITMAP
000000F0
000001F8
000001F8
000001F8
000001F8
000000F0
00000000
00000000
00000000
FE3C03F8
3EDE00F8
3F0F00F8
3F0F80F8
3F0F80F8
3E0F80F8
3E0F80F8
3E0F80F8
3E0F80F8
3E0F80F8
3E0F80F8
3E0F80F8
3E0F80F8
3E0F80F8
3E0F80F8
3E0F80F8
3E0F80F8
3E0F80F8
FFBFE0F8
000000F8
000000F8
00001CF8
00003EF8
00003EF0
00003CF0
000038E0
000019E0
00000F80
ENDCHAR
STARTCHAR 01DD
ENCODING 477
SWIDTH 473 0
DWIDTH 18 0
BBX 14 19 2 0
BITMAP
0F80
31C0
40F0
4070
8078
8078
007C
007C
007C
FFFC
F87C
F87C
F87C
F878
7878
7870
3870
1CE0
0F80
ENDCHAR
STARTCHAR 01E2
ENCODING 482
SWIDTH 1000 0
DWIDTH 38 0
BBX 36 34 1 0
BITMAP
00003FF800
00003FF800
00003FF800
0000000000
0000000000
0000000000
0007FFFFE0
0001FE03E0
0001FE01E0
0001FE00E0
0001FE00E0
00037E0060
00037E0060
00067E0020
00067E0420
000C7E0400
000C7E0C00
00187E0C00
00187E1C00
00307FFC00
00307E3C00
00607E1C00
00607E0C00
00C07E0430
00C07E0430
01FFFE0430
01807E0030
03007E0070
03007E0070
06007E00F0
06007E00F0
0E007E01F0
3F007E07F0
FFC7FFFFF0
ENDCHAR
STARTCHAR 01E3
ENCODING 483
SWIDTH 710 0
DWIDTH 27 0
BBX 23 26 2 0
BITMAP
01FF80
01FF80
01FF80
000000
000000
000000
000000
0FC3E0
18EE70
307C38
707C3C
787C3C
7C7C3E
7C7C3E
187C3E
03FC3E
0E7FFE
3C7C00
787C00
F87C02
F87C02
F87C02
F87C04
FCDE04
7F8F08
3F03F0
ENDCHAR
STARTCHAR 01EA
ENCODING 490
SWIDTH 710 0
DWIDTH 27 0
BBX 22 37 3 -8
BITMAP
01FE00
030300
060180
0E01C0
1C00E0
3C00F0
3C00F0
7C00F8
7C00F8
7C00F8
FC00FC
FC00FC
FC00FC
FC00FC
FC00FC
FC00FC
FC00FC
FC00FC
7C00F8
7C00F8
7C00F8
3C00F0
3C00F0
1C00E0
0E01C0
0601C0
030380
00FE00
001800
006000
00E000
01C000
01C000
01C000
01E400
00FC00
007800
ENDCHAR
STARTCHAR 01EB
ENCODING 491
SWIDTH 526 0
DWIDTH 20 0
BBX 16 28 2 -9
BITMAP
07C0
0C70
1C38
383C
781E
781E
F81E
F81F
F81F
F81F
F81F
F81F
F81F
781E
781E
781C
383C
1C38
0E70
03C0
0300
0600
0C00
1C00
1C00
1E60
0FC0
0780
ENDCHAR
STARTCHAR 01EC
ENCODING 492
SWIDTH 710 0
DWIDTH 27 0
BBX 22 44 3 -9
BITMAP
03FF80
03FF80
03FF80
000000
000000
000000
000000
01FE00
030300
060180
0E01C0
1C00E0
3C00F0
3C00F0
7C00F8
7C00F8
7C00F8
FC00FC
FC00FC
FC00FC
FC00FC
FC00FC
FC00FC
FC00FC
FC00FC
7C00F8
7C00F8
7C00F8
3C00F0
3C00F0
1C00E0
0E01C0
0601C0
030380
00FE00
001800
006000
00E000
01C000
01C000
01C000
01E400
00FC00
007800
ENDCHAR
STARTCHAR 01ED
ENCODING 493
SWIDTH 500 0
DWIDTH 19 0
BBX 16 34 2 -9
BITMAP
1FF8
1FF8
1FF8
0000
0000
0000
07C0
0C70
1C38
383C
781E
781E
F81E
F81F
F81F
F81F
F81F
F81F
F81F
781E
781E
781C
383C
1C38
0E70
03C0
0300
0600
0C00
1C00
1C00
1E60
0FC0
0780
ENDCHAR
STARTCHAR 01F0
ENCODING 496
SWIDTH 315 0
DWIDTH 12 0
BBX 13 36 -2 -8
BITMAP
1808
0C38
0E70
07E0
03C0
0180
0000
0000
0FE0
03E0
03E0
03E0
03E0
03E0
03E0
03E0
03E0
03E0
03E0
03E0
03E0
03E0
03E0
03E0
03E0
03E0
03E0
03E0
03E0
7BE0
FBE0
FBE0
F3C0
E3C0
6780
1E00
ENDCHAR
STARTCHAR 01F1
ENCODING 497
SWIDTH 1447 0
DWIDTH 55 0
BBX 51 28 2 0
BITMAP
FFFFC001FFFFC0
0FC07001F81FC0
0FC03801F01F80
0FC01C01E03F80
0FC01E01C03F00
0FC00F01807F00
0FC00F01807E00
0FC00F8180FE00
0FC00F8100FC00
0FC00F8101FC00
0FC00FC001F800
0FC00FC003F800
0FC00FC003F000
0FC00FC007E000
0FC00FC007E000
0FC00FC00FC000
0FC00FC00FC000
0FC00FC01F8060
0FC00F801F8060
0FC00F801F0060
0FC00F803F00E0
0FC00F003E00E0
0FC00F007E01E0
0FC01E007C01E0
0FC01C00FC03E0
0FC03800F807E0
0FC0F001F81FE0
FFFFC001FFFFE0
ENDCHAR
STARTCHAR 01F2
ENCODING 498
SWIDTH 1263 0
DWIDTH 48 0
BBX 43 28 3 0
BITMAP
FFFF80000000
1F80E0000000
1F8070000000
1F8038000000
1F803C000000
1F801E000000
1F801E000000
1F801F000000
1F801F000000
1F801F03FFE0
1F801F83C3E0
1F801F8387C0
1F801F8307C0
1F801F820F80
1F801F821F00
1F801F821F00
1F801F803E00
1F801F803E00
1F801F007C00
1F801F00FC00
1F801F00F820
1F801E01F820
1F801E01F020
1F803C03F060
1F803807E060
1F807007C0E0
1F80E00FC1E0
FFFF800FFFE0
ENDCHAR
STARTCHAR 01F3
ENCODING 499
SWIDTH 1026 0
DWIDTH 39 0
BBX 35 28 2 0
BITMAP
00FE000000
003E000000
003E000000
003E000000
003E000000
003E000000
003E000000
003E000000
003E000000
0F3E03FFE0
1CBE03C3E0
3C7E0387C0
787E0307C0
783E020F80
783E021F80
F83E021F00
F83E003E00
F83E003E00
F83E007C00
F83E00FC00
F83E00F820
F83E01F820
783E01F020
783E03F060
787E07E060
3C7E07C0E0
1CBE0FC1E0
0F3FCFFFE0
ENDCHAR
STARTCHAR 01F4
ENCODING 500
SWIDTH 736 0
DWIDTH 28 0
BBX 24 37 3 1
BITMAP
000380
000780
000F00
000E00
001C00
001800
003000
000000
001000
01EF18
030398
0E00F8
1E00F8
1C0078
3C0038
3C0038
7C0018
7C0018
7C0018
FC0008
FC0000
FC0000
FC0000
FC1FFF
FC01F8
FC01F8
FC01F8
FC01F8
7C01F8
7C01F8
7C01F8
3C01F8
3C01F8
1E0398
0E0318
070618
01DC18
ENDCHAR
STARTCHAR 01F5
ENCODING 501
SWIDTH 578 0
DWIDTH 22 0
BBX 19 37 2 -9
BITMAP
003800
003800
007800
00F000
00E000
01C000
010000
000000
000000
07E1C0
1E7660
3C3CE0
3C3CE0
7C3EC0
7C3E00
7C3E00
7C3E00
3C3C00
3C3C00
1E7800
07E000
380000
600000
600000
7FE000
7FFE00
7FFF00
3FFF80
1FFF80
600780
C00380
800380
800300
800300
400600
301C00
0FF000
ENDCHAR
STARTCHAR 01F6
ENCODING 502
SWIDTH 973 0
DWIDTH 37 0
BBX 33 28 2 0
BITMAP
FFFBFFE000
1F803F0000
1F803F0000
1F803F0000
1F803F0000
1F803F0000
1F803F0000
1F803F0000
1F803F0000
1F803F0000
1F803F0000
1F803F0800
1F803F1E00
1FFFFF3F00
1F803F3F00
1F803F1F00
1F803F0F80
1F803F0380
1F803F0180
1F803F0080
1F803F0080
1F803F0080
1F803F0080
1F803F0100
1F801F0100
1F801F8300
1F800FC600
FFF807F800
ENDCHAR
STARTCHAR 01F7
ENCODING 503
SWIDTH 657 0
DWIDTH 25 0
BBX 21 34 2 -6
BITMAP
0387C0
0F9FE0
3FBFE0
FFE7F0
1F83F0
1F83F8
1F81F8
1F81F8
1F81F8
1F81F8
1F81F8
1F81F8
1F81F0
1F81F0
1F81F0
1F83E0
1F83E0
1F83C0
1F83C0
1F8780
1F8700
1F8E00
1F9C00
1FF000
1FC000
1F8000
1F8000
1F8000
1F8000
1F8000
1F8000
1E0000
380000
E00000
ENDCHAR
STARTCHAR 01FA
ENCODING 506
SWIDTH 763 0
DWIDTH 29 0
BBX 26 37 2 0
BITMAP
00018000
00030000
00040000
000F0000
00118000
00118000
00118000
000F0000
00040000
000E0000
000E0000
000E0000
001F0000
001F0000
001F0000
003F8000
003F8000
003F8000
006F8000
006FC000
0067C000
00C7C000
00C7E000
0087E000
0183E000
0183F000
0103F000
0303F000
03FFF800
0201F800
0601F800
0600FC00
0400FC00
0C00FC00
0C007E00
3E00FF00
FFC7FFC0
ENDCHAR
STARTCHAR 01FB
ENCODING 507
SWIDTH 526 0
DWIDTH 20 0
BBX 17 37 2 0
BITMAP
003000
007000
00F000
00F000
01C000
018000
030000
020000
000000
078000
0FC000
186000
186000
186000
1CE000
0FC000
078000
000000
0FC000
10F000
307800
707800
787C00
7C7C00
7C7C00
00FC00
077C00
1C7C00
387C00
787C00
F87C00
F87C80
F87C80
F87C80
FCFD80
7FFF00
3E3E00
ENDCHAR
STARTCHAR 01FC
ENCODING 508
SWIDTH 1000 0
DWIDTH 38 0
BBX 36 37 1 0
BITMAP
0000001800
0000003C00
0000007800
0000007000
000000E000
000001C000
0000010000
0000000000
0000000000
0007FFFFE0
0001FE03E0
0001FE01E0
0001FE00E0
0001FE00E0
00037E0060
00037E0060
00067E0020
00067E0420
000C7E0400
000C7E0C00
00187E0C00
00187E1C00
00307FFC00
00307E3C00
00607E1C00
00607E0C00
00C07E0430
00C07E0430
01FFFE0430
01807E0030
03007E0070
03007E0070
06007E00F0
06007E00F0
0E007E01F0
3F007E07F0
FFC7FFFFF0
ENDCHAR
STARTCHAR 01FD
ENCODING 509
SWIDTH 710 0
DWIDTH 27 0
BBX 23 28 2 0
BITMAP
000380
000780
000780
000F00
000E00
001800
003000
000000
000000
0FC3E0
18EE70
307C38
707C3C
787C3C
7C7C3E
7C7C3E
187C3E
03FC3E
0E7FFE
3C7C00
787C00
F87C02
F87C02
F87C02
F87C04
FCDE04
7F8F08
3F03F0
ENDCHAR
STARTCHAR 01FE
ENCODING 510
SWIDTH 710 0
DWIDTH 27 0
BBX 22 37 3 1
BITMAP
000780
000780
000F00
000E00
001C00
003800
002000
000000
000000
01FE0C
030398
0603D0
0E01F0
1C01E0
3C01F0
3C01F0
7C01F8
7C03F8
7C06F8
FC0EFC
FC0CFC
FC18FC
FC38FC
FC70FC
FC60FC
FCC0FC
FDC0FC
7D80F8
7F00F8
7E00F8
3E00F0
3E00F0
1E00E0
3E01C0
2E0180
670300
C1FE00
ENDCHAR
STARTCHAR 01FF
ENCODING 511
SWIDTH 526 0
DWIDTH 20 0
BBX 16 28 2 0
BITMAP
0038
0038
0078
00F0
00E0
01C0
0300
0000
0000
03E1
0C72
1C3C
383C
783E
783E
F87E
F85F
F8DF
F99F
FB1F
FE1F
FC1E
7C1E
781E
3C1C
7C38
4E30
87C0
ENDCHAR
STARTCHAR 0200
ENCODING 512
SWIDTH 763 0
DWIDTH 29 0
BBX 26 37 2 0
BITMAP
03180000
079C0000
03DE0000
01CE0000
00E70000
00630000
00318000
00000000
00040000
00060000
000E0000
000E0000
000F0000
001F0000
001F0000
001F8000
003F8000
002F8000
002FC000
006FC000
004FC000
0047C000
00C7E000
0087E000
0083E000
0183F000
0103F000
0301F000
03FFF800
0201F800
0600F800
0600FC00
0400FC00
0C00FC00
0C007C00
1E00FE00
FFC7FFC0
ENDCHAR
STARTCHAR 0201
ENCODING 513
SWIDTH 526 0
DWIDTH 20 0
BBX 18 28 1 0
BITMAP
E30000
F78000
F38000
7BC000
3CC000
0C6000
062000
000000
000000
07E000
0C7800
183C00
383C00
3E3E00
3E3E00
3E3E00
007E00
03BE00
0E3E00
1C3E00
3C3E00
7C3E00
7C3E40
7C3E40
7C3E40
7E7EC0
3FDF80
1F0F00
ENDCHAR
STARTCHAR 0202
ENCODING 514
SWIDTH 763 0
DWIDTH 29 0
BBX 26 36 2 0
BITMAP
000E0000
003F8000
007FC000
0060C000
00C06000
00802000
00000000
00000000
00060000
000E0000
000E0000
000F0000
001F0000
001F0000
001F8000
003F8000
002F8000
002FC000
006FC000
004FC000
0047C000
00C7E000
0087E000
0083E000
0183F000
0103F000
0101F000
03FFF800
0201F800
0600F800
0600FC00
0400FC00
0C00FC00
0C007C00
1E00FE00
FFC7FFC0
ENDCHAR
STARTCHAR 0203
ENCODING 515
SWIDTH 526 0
DWIDTH 20 0
BBX 17 27 2 0
BITMAP
038000
0FC000
0FE000
186000
103000
201000
201000
000000
0FC000
18F000
307800
707800
7C7C00
7C7C00
7C7C00
00FC00
077C00
1C7C00
387C00
787C00
F87C00
F87C80
F87C80
F87C80
FCFD80
7FBF00
3E1E00
ENDCHAR
STARTCHAR 0204
ENCODING 516
SWIDTH 684 0
DWIDTH 26 0
BBX 22 37 2 0
BITMAP
0E3000
0F3800
0F3800
039C00
01CC00
00C600
006200
000000
000000
FFFFFC
0FC07C
0FC03C
0FC01C
0FC01C
0FC00C
0FC00C
0FC00C
0FC104
0FC100
0FC300
0FC300
0FC700
0FFF00
0FC700
0FC300
0FC300
0FC104
0FC104
0FC104
0FC00C
0FC00C
0FC00C
0FC01C
0FC01C
0FC03C
0FC0FC
FFFFFC
ENDCHAR
STARTCHAR 0205
ENCODING 517
SWIDTH 473 0
DWIDTH 18 0
BBX 15 28 1 0
BITMAP
E300
F780
F380
7BC0
39C0
0C60
0620
0000
0000
03E0
0E70
1C38
1C3C
3C3C
3C3E
7C3E
7C3E
7C3E
7FFE
7C00
7C00
7C00
3C02
3C02
1C04
1E04
0F08
03F0
ENDCHAR
STARTCHAR 0206
ENCODING 518
SWIDTH 684 0
DWIDTH 26 0
BBX 22 36 2 0
BITMAP
003C00
007E00
00FF00
01C380
018180
0100C0
000000
000000
FFFFFC
0FC07C
0FC03C
0FC01C
0FC01C
0FC00C
0FC00C
0FC00C
0FC104
0FC100
0FC300
0FC300
0FC700
0FFF00
0FC700
0FC300
0FC300
0FC104
0FC104
0FC104
0FC00C
0FC00C
0FC00C
0FC01C
0FC01C
0FC03C
0FC0FC
FFFFFC
ENDCHAR
STARTCHAR 0207
ENCODING 519
SWIDTH 473 0
DWIDTH 18 0
BBX 14 27 2 0
BITMAP
0380
0FC0
0FE0
1860
1030
2010
0010
0000
07C0
1CE0
3870
3878
7878
787C
F87C
F87C
F87C
FFFC
F800
F800
F800
7804
7804
3808
3C08
1E10
07E0
ENDCHAR
STARTCHAR 0208
ENCODING 520
SWIDTH 447 0
DWIDTH 17 0
BBX 14 37 1 0
BITMAP
CE00
EF00
EF00
7780
31C0
18C0
0860
0000
0000
7FFC
0FC0
0FC0
0FC0
0FC0
0FC0
0FC0
0FC0
0FC0
0FC0
0FC0
0FC0
0FC0
0FC0
0FC0
0FC0
0FC0
0FC0
0FC0
0FC0
0FC0
0FC0
0FC0
0FC0
0FC0
0FC0
0FC0
7FFC
ENDCHAR
STARTCHAR 0209
ENCODING 521
SWIDTH 315 0
DWIDTH 12 0
BBX 13 28 -2 0
BITMAP
E300
F780
F3C0
79C0
1CE0
0C70
0610
0000
0000
0FE0
03E0
03E0
03E0
03E0
03E0
03E0
03E0
03E0
03E0
03E0
03E0
03E0
03E0
03E0
03E0
03E0
03E0
0FF8
ENDCHAR
STARTCHAR 020A
ENCODING 522
SWIDTH 447 0
DWIDTH 17 0
BBX 13 36 2 0
BITMAP
0700
1FC0
3FE0
7060
4030
4010
0000
0000
FFF8
1F80
1F80
1F80
1F80
1F80
1F80
1F80
1F80
1F80
1F80
1F80
1F80
1F80
1F80
1F80
1F80
1F80
1F80
1F80
1F80
1F80
1F80
1F80
1F80
1F80
1F80
FFF8
ENDCHAR
STARTCHAR 020B
ENCODING 523
SWIDTH 315 0
DWIDTH 12 0
BBX 11 26 1 0
BITMAP
1E00
3F80
7F80
60C0
C060
8000
0000
7F00
1F00
1F00
1F00
1F00
1F00
1F00
1F00
1F00
1F00
1F00
1F00
1F00
1F00
1F00
1F00
1F00
1F00
7FC0
ENDCHAR
STARTCHAR 020C
ENCODING 524
SWIDTH 710 0
DWIDTH 27 0
BBX 22 37 3 1
BITMAP
1CE000
1EF000
0EF000
073800
031C00
018C00
008600
000000
000000
01FE00
030300
060180
0E01C0
1C00E0
3C00F0
3C00F0
7C00F8
7C00F8
7C00F8
FC00FC
FC00FC
FC00FC
FC00FC
FC00FC
FC00FC
FC00FC
FC00FC
7C00F8
7C00F8
7C00F8
3C00F0
3C00F0
1C00E0
0E01C0
060180
030300
01FE00
ENDCHAR
STARTCHAR 020D
ENCODING 525
SWIDTH 526 0
DWIDTH 20 0
BBX 16 28 2 0
BITMAP
C700
E700
F780
73C0
39C0
1CE0
0C20
0000
0000
07C0
0C70
1C38
383C
781E
781E
F81E
F81F
F81F
F81F
F81F
F81F
F81E
781E
781E
383C
1C38
0C70
07C0
ENDCHAR
STARTCHAR 020E
ENCODING 526
SWIDTH 710 0
DWIDTH 27 0
BBX 22 36 3 0
BITMAP
007800
00FC00
01FE00
038700
020100
040080
000000
000000
01FE00
030300
060180
0E01C0
1C00E0
3C00F0
3C00F0
7C00F8
7C00F8
7C00F8
FC00FC
FC00FC
FC00FC
FC00FC
FC00FC
FC00FC
FC00FC
FC00FC
7C00F8
7C00F8
7C00F8
3C00F0
3C00F0
1C00E0
0E01C0
060180
030300
01FE00
ENDCHAR
STARTCHAR 020F
ENCODING 527
SWIDTH 526 0
DWIDTH 20 0
BBX 16 27 2 0
BITMAP
03C0
07E0
0FF0
0C30
1818
1008
0008
0000
07C0
0C70
1C38
383C
781E
781E
F81E
F81F
F81F
F81F
F81F
F81F
F81E
781E
781E
383C
1C38
0C70
07C0
ENDCHAR
STARTCHAR 0210
ENCODING 528
SWIDTH 736 0
DWIDTH 28 0
BBX 25 38 2 0
BITMAP
00800000
39C00000
3DE00000
3CE00000
0E700000
06300000
03180000
01080000
00000000
00000000
FFFF0000
1F87C000
1F83E000
1F81F000
1F81F800
1F81F800
1F81F800
1F81F800
1F81F800
1F81F000
1F83E000
1F87C000
1FFE0000
1F878000
1F83C000
1F81F000
1F81F000
1F81F800
1F81F800
1F81F800
1F81F800
1F81F880
1F81F880
1F81F880
1F81F880
1F81F900
1F80F900
FFF87E00
ENDCHAR
STARTCHAR 0211
ENCODING 529
SWIDTH 421 0
DWIDTH 16 0
BBX 14 28 1 0
BITMAP
C600
E700
F780
7380
39C0
1CC0
0C60
0000
0000
FE30
3E78
3EBC
3F3C
3F7C
3E7C
3E38
3E00
3E00
3E00
3E00
3E00
3E00
3E00
3E00
3E00
3E00
3E00
FF80
ENDCHAR
STARTCHAR 0212
ENCODING 530
SWIDTH 736 0
DWIDTH 28 0
BBX 25 37 2 0
BITMAP
00F00000
01F80000
03FC0000
070E0000
04020000
0C030000
08010000
00000000
00000000
FFFF0000
1F87C000
1F83E000
1F81F000
1F81F800
1F81F800
1F81F800
1F81F800
1F81F800
1F81F000
1F83E000
1F87C000
1FFE0000
1F878000
1F83C000
1F81F000
1F81F000
1F81F800
1F81F800
1F81F800
1F81F800
1F81F880
1F81F880
1F81F880
1F81F880
1F81F900
1F80F900
FFF87E00
ENDCHAR
STARTCHAR 0213
ENCODING 531
SWIDTH 447 0
DWIDTH 17 0
BBX 14 26 2 0
BITMAP
0380
0FE0
0FE0
1830
1010
2008
0000
FE30
3E78
3EBC
3F3C
3F7C
3E7C
3E38
3E00
3E00
3E00
3E00
3E00
3E00
3E00
3E00
3E00
3E00
3E00
FF80
ENDCHAR
STARTCHAR 0214
ENCODING 532
SWIDTH 789 0
DWIDTH 30 0
BBX 26 37 3 1
BITMAP
039C0000
039E0000
03DE0000
01CF0000
00E30000
00218000
00108000
00000000
00000000
FFF07FC0
1F801F00
1F800E00
1F800600
1F800600
1F800600
1F800600
1F800600
1F800600
1F800600
1F800600
1F800600
1F800600
1F800600
1F800600
1F800600
1F800600
1F800600
1F800600
1F800600
1F800600
1F800600
0F800C00
0FC00C00
07C01800
07E03800
01FCF000
00FFC000
ENDCHAR
STARTCHAR 0215
ENCODING 533
SWIDTH 552 0
DWIDTH 21 0
BBX 19 28 1 0
BITMAP
630000
738000
7BC000
39C000
1CE000
063000
021000
000000
000000
FE3F80
3E0F80
3E0F80
3E0F80
3E0F80
3E0F80
3E0F80
3E0F80
3E0F80
3E0F80
3E0F80
3E0F80
3E0F80
3E0F80
3E1F80
3E1F80
1E2F80
1E4F80
078FE0
ENDCHAR
STARTCHAR 0216
ENCODING 534
SWIDTH 789 0
DWIDTH 30 0
BBX 26 36 3 0
BITMAP
000F0000
001F8000
003FC000
0060E000
00C02000
00803000
00000000
00000000
FFF07FC0
1F801F00
1F800E00
1F800600
1F800600
1F800600
1F800600
1F800600
1F800600
1F800600
1F800600
1F800600
1F800600
1F800600
1F800600
1F800600
1F800600
1F800600
1F800600
1F800600
1F800600
1F800600
0F800C00
0FC00C00
07C01800
07E03800
01FCF000
00FFC000
ENDCHAR
STARTCHAR 0217
ENCODING 535
SWIDTH 552 0
DWIDTH 21 0
BBX 19 27 1 0
BITMAP
01C000
03F000
07F000
0E1800
080800
180400
000000
000000
FE3F80
3E0F80
3E0F80
3E0F80
3E0F80
3E0F80
3E0F80
3E0F80
3E0F80
3E0F80
3E0F80
3E0F80
3E0F80
3E0F80
3E1F80
3E1F80
1E2F80
1E4F80
078FE0
ENDCHAR
STARTCHAR 0218
ENCODING 536
SWIDTH 605 0
DWIDTH 23 0
BBX 18 38 3 -9
BITMAP
010000
1FE180
303980
601F80
600F80
E00780
F00380
F00380
F80180
FE0180
FF0180
7FC000
7FE000
3FF800
1FFC00
07FF00
03FF00
80FF80
807F80
C01FC0
C00FC0
C003C0
E003C0
E001C0
F00180
F80180
F80300
CE0200
87BC00
004000
00E000
01E000
01F000
01F000
003000
002000
004000
018000
ENDCHAR
STARTCHAR 0219
ENCODING 537
SWIDTH 421 0
DWIDTH 16 0
BBX 13 28 2 -9
BITMAP
1F10
61D0
6070
E030
E030
F010
F800
7E00
7F80
3FE0
0FF0
87F0
C1F8
C078
E038
E018
F010
9C30
87C0
0000
0700
0F80
0F80
0780
0180
0100
0200
0C00
ENDCHAR
STARTCHAR 021A
ENCODING 538
SWIDTH 710 0
DWIDTH 27 0
BBX 24 37 2 -9
BITMAP
FFFFFF
FC7E3F
F87E1F
F07E0F
E07E07
E07E07
C07E07
C07E03
C07E03
C07E03
807E03
807E02
007E00
007E00
007E00
007E00
007E00
007E00
007E00
007E00
007E00
007E00
007E00
007E00
007E00
007E00
007E00
07FFE0
000000
003800
007C00
007C00
003C00
000C00
000800
001800
006000
ENDCHAR
STARTCHAR 021B
ENCODING 539
SWIDTH 368 0
DWIDTH 14 0
BBX 12 36 1 -9
BITMAP
0600
0600
0600
0600
0600
0E00
1E00
3E00
FFE0
3E00
3E00
3E00
3E00
3E00
3E00
3E00
3E00
3E00
3E10
3E10
3E10
3E10
3E10
3E20
3E20
1FC0
0780
0000
0700
0F80
0F80
0780
0180
0100
0300
0C00
ENDCHAR
STARTCHAR 021C
ENCODING 540
SWIDTH 552 0
DWIDTH 21 0
BBX 17 34 2 -5
BITMAP
07F000
0FF800
1FFC00
307E00
603E00
403E00
003E00
003C00
007800
007000
00E000
01C000
03F000
07FC00
0FFE00
3FFF00
7FFF00
007F80
003F80
001F80
001F80
001F80
001F00
001F00
003F00
003E00
007C00
00F800
01F000
03C000
0F8000
3E0000
F00000
C00000
ENDCHAR
STARTCHAR 021D
ENCODING 541
SWIDTH 447 0
DWIDTH 17 0
BBX 14 28 1 -9
BITMAP
03C0
0FE0
1FF0
30F8
6078
C078
0078
0070
00E0
01C0
0100
03E0
0FF0
1FF8
30F8
20FC
007C
007C
007C
0078
00F8
00F0
01E0
03C0
0780
0E00
3C00
E000
ENDCHAR
STARTCHAR 0224
ENCODING 548
SWIDTH 657 0
DWIDTH 25 0
BBX 21 37 3 -9
BITMAP
7FFFF0
7E07F0
7C07E0
780FE0
700FC0
601FC0
601F80
603F80
403F00
407F00
00FE00
00FE00
01FC00
01FC00
03F800
03F000
07F000
07E000
0FE000
0FC000
1FC000
1F8000
3F8000
3F0000
7F0000
7E0000
FE0000
FFFFE0
000FF0
0003F8
0001F8
0001F8
0001F0
0003E0
0007C0
001F00
007800
ENDCHAR
STARTCHAR 0225
ENCODING 549
SWIDTH 421 0
DWIDTH 16 0
BBX 14 26 1 -7
BITMAP
7FFC
707C
60F8
60F8
41F0
43E0
43E0
07C0
07C0
0F80
0F80
1F00
1F00
3E00
3C00
7C00
7800
F800
FFF8
007C
003C
003C
0038
0070
00E0
0380
ENDCHAR
STARTCHAR 0228
ENCODING 552
SWIDTH 684 0
DWIDTH 26 0
BBX 22 37 2 -9
BITMAP
FFFFFC
0FC07C
0FC03C
0FC01C
0FC01C
0FC00C
0FC00C
0FC00C
0FC104
0FC100
0FC300
0FC300
0FC700
0FFF00
0FC700
0FC300
0FC300
0FC104
0FC104
0FC104
0FC004
0FC00C
0FC00C
0FC01C
0FC01C
0FC03C
0FC0FC
FFFFFC
000800
000800
000E00
000700
000380
000380
000380
004700
003E00
ENDCHAR
STARTCHAR 0229
ENCODING 553
SWIDTH 473 0
DWIDTH 18 0
BBX 14 27 2 -8
BITMAP
07C0
1CE0
3870
3878
7878
787C
F87C
F87C
F87C
FFFC
F800
F800
F800
7804
7804
3808
3C08
1E10
07E0
0200
0200
0380
00C0
00E0
00E0
00E0
0780
ENDCHAR
STARTCHAR 0232
ENCODING 562
SWIDTH 736 0
DWIDTH 28 0
BBX 25 34 2 0
BITMAP
00FFE000
00FFE000
00FFE000
00000000
00000000
00000000
FFF0FF80
1FC03C00
1FC01800
0FC01800
0FE01800
07E01000
07E03000
03F02000
03F02000
01F86000
01F84000
01FC4000
00FCC000
00FE8000
007F8000
007F8000
003F0000
003F0000
003F0000
003F0000
003F0000
003F0000
003F0000
003F0000
003F0000
003F0000
003F0000
01FFE000
ENDCHAR
STARTCHAR 0233
ENCODING 563
SWIDTH 526 0
DWIDTH 20 0
BBX 19 35 0 -9
BITMAP
07FE00
07FE00
07FE00
000000
000000
000000
000000
FFCFE0
3F0380
1F0300
1F0200
0F8200
0F8200
078200
07C400
07C400
03E400
03E800
01E800
01F800
01F000
00F000
00F000
007000
006000
002000
002000
004000
0C4000
1E4000
3E4000
3E8000
3C8000
1D0000
0E0000
ENDCHAR
STARTCHAR 0237
ENCODING 567
SWIDTH 315 0
DWIDTH 12 0
BBX 11 28 -2 -9
BITMAP
0FE0
03E0
03E0
03E0
03E0
03E0
03E0
03E0
03E0
03E0
03E0
03E0
03E0
03E0
03E0
03E0
03E0
03E0
03E0
03E0
03E0
7BE0
FBE0
FBE0
F3C0
E3C0
6780
1E00
ENDCHAR
STARTCHAR 0243
ENCODING 579
SWIDTH 710 0
DWIDTH 27 0
BBX 23 28 2 0
BITMAP
FFFF80
1F83E0
1F81F0
1F80F8
1F80FC
1F80FC
1F80FC
1F80FC
1F80FC
1F80F8
1F80F8
1F81E0
1F83C0
1FFE00
1F81C0
1F80F0
1F80F8
1F807C
1F807E
1F807E
FFF87E
1F807E
1F807E
1F807C
1F80FC
1F80F8
1F81F0
FFFF80
ENDCHAR
STARTCHAR 0254
ENCODING 596
SWIDTH 500 0
DWIDTH 19 0
BBX 15 19 2 0
BITMAP
0F80
30E0
2070
4078
403C
803C
003C
003E
003E
003E
183E
3C3E
7C3C
783C
707C
7078
3070
30E0
0F80
ENDCHAR
STARTCHAR 0259
ENCODING 601
SWIDTH 473 0
DWIDTH 18 0
BBX 14 19 2 0
BITMAP
0F80
31C0
40F0
4070
8078
8078
007C
007C
007C
FFFC
F87C
F87C
F87C
F878
7878
7870
3870
1CE0
0F80
ENDCHAR
STARTCHAR 025B
ENCODING 603
SWIDTH 447 0
DWIDTH 17 0
BBX 14 19 2 0
BITMAP
0FE0
3C38
7838
F83C
F87C
F87C
7810
3C00
0780
1C00
7800
F838
F83C
F83C
F81C
F81C
7C18
3E30
0FC0
ENDCHAR
STARTCHAR 0280
ENCODING 640
SWIDTH 552 0
DWIDTH 21 0
BBX 18 19 2 0
BITMAP
FFF800
3E3C00
3E1E00
3E1F00
3E1F00
3E1F00
3E1E00
3E3C00
3FC000
3E7000
3E3C00
3E3E00
3E3E00
3E3E00
3E3E40
3E3E40
3E3E40
3E1E80
FF9F80
ENDCHAR
STARTCHAR 0292
ENCODING 658
SWIDTH 500 0
DWIDTH 19 0
BBX 17 28 1 -9
BITMAP
7FFF00
7FFF00
7FFE00
7FFC00
700800
601800
403000
402000
404000
00C000
018000
010000
03F800
063C00
0C1E00
000F00
000F00
000F80
000F80
780F80
FC0F80
FC0F80
FC0F80
F00F00
F01E00
701C00
387800
0FE000
ENDCHAR
STARTCHAR 02BB
ENCODING 699
SWIDTH 263 0
DWIDTH 10 0
BBX 6 9 2 19
BITMAP
18
30
60
C0
C0
F8
FC
7C
38
ENDCHAR
STARTCHAR 02BC
ENCODING 700
SWIDTH 263 0
DWIDTH 10 0
BBX 5 9 3 20
BITMAP
F0
F8
F8
78
18
18
30
60
C0
ENDCHAR
STARTCHAR 02BD
ENCODING 701
SWIDTH 263 0
DWIDTH 10 0
BBX 6 9 2 20
BITMAP
7C
FC
FC
F0
C0
40
60
30
08
ENDCHAR
STARTCHAR 02BE
ENCODING 702
SWIDTH 210 0
DWIDTH 8 0
BBX 5 9 2 20
BITMAP
E0
70
18
18
18
18
30
F0
C0
ENDCHAR
STARTCHAR 02BF
ENCODING 703
SWIDTH 210 0
DWIDTH 8 0
BBX 5 9 2 20
BITMAP
38
70
C0
C0
C0
C0
60
78
18
ENDCHAR
STARTCHAR 02C6
ENCODING 710
SWIDTH 447 0
DWIDTH 17 0
BBX 11 7 3 21
BITMAP
0E00
1E00
1F00
3F00
3380
60C0
C060
ENDCHAR
STARTCHAR 02C7
ENCODING 711
SWIDTH 447 0
DWIDTH 17 0
BBX 11 7 3 20
BITMAP
8000
C060
60C0
3380
1F00
1E00
0E00
ENDCHAR
STARTCHAR 02C9
ENCODING 713
SWIDTH 421 0
DWIDTH 16 0
BBX 10 3 3 23
BITMAP
FFC0
FFC0
FFC0
ENDCHAR
STARTCHAR 02CA
ENCODING 714
SWIDTH 447 0
DWIDTH 17 0
BBX 7 7 7 21
BITMAP
0E
1E
1E
3C
78
60
C0
ENDCHAR
STARTCHAR 02CB
ENCODING 715
SWIDTH 447 0
DWIDTH 17 0
BBX 7 7 3 21
BITMAP
E0
F0
F0
78
3C
0C
06
ENDCHAR
STARTCHAR 02D8
ENCODING 728
SWIDTH 447 0
DWIDTH 17 0
BBX 11 6 3 21
BITMAP
8060
C040
60C0
7FC0
3F80
1F00
ENDCHAR
STARTCHAR 02D9
ENCODING 729
SWIDTH 473 0
DWIDTH 18 0
BBX 6 6 6 21
BITMAP
78
FC
FC
FC
FC
78
ENDCHAR
STARTCHAR 02DA
ENCODING 730
SWIDTH 421 0
DWIDTH 16 0
BBX 8 8 4 21
BITMAP
7E
66
C3
C3
C3
C3
7E
3C
ENDCHAR
STARTCHAR 02DB
ENCODING 731
SWIDTH 447 0
DWIDTH 17 0
BBX 7 9 3 -9
BITMAP
0C
18
30
60
E0
E0
F2
FC
78
ENDCHAR
STARTCHAR 02DC
ENCODING 732
SWIDTH 447 0
DWIDTH 17 0
BBX 11 4 3 22
BITMAP
3C20
7FE0
FFE0
87C0
ENDCHAR
STARTCHAR 02DD
ENCODING 733
SWIDTH 447 0
DWIDTH 17 0
BBX 11 7 5 21
BITMAP
1CE0
1CE0
3DE0
7BC0
7380
C600
8400
ENDCHAR
STARTCHAR 0300
ENCODING 768
SWIDTH 0 0
DWIDTH 0 0
BBX 7 7 -15 21
BITMAP
E0
F0
F0
78
38
0C
06
ENDCHAR
STARTCHAR 0301
ENCODING 769
SWIDTH 0 0
DWIDTH 0 0
BBX 7 7 -12 21
BITMAP
0E
1E
1E
3C
78
60
C0
ENDCHAR
STARTCHAR 0302
ENCODING 770
SWIDTH 0 0
DWIDTH 0 0
BBX 12 7 -16 21
BITMAP
0700
0F00
0F00
1F80
39C0
70E0
C030
ENDCHAR
STARTCHAR 0303
ENCODING 771
SWIDTH 0 0
DWIDTH 0 0
BBX 11 4 -15 22
BITMAP
3C20
7FE0
FFE0
87C0
ENDCHAR
STARTCHAR 0304
ENCODING 772
SWIDTH 0 0
DWIDTH 0 0
BBX 10 3 -15 23
BITMAP
FFC0
FFC0
FFC0
ENDCHAR
STARTCHAR 0305
ENCODING 773
SWIDTH 0 0
DWIDTH 0 0
BBX 20 3 -20 32
BITMAP
FFFFF0
FFFFF0
FFFFF0
ENDCHAR
STARTCHAR 0306
ENCODING 774
SWIDTH 0 0
DWIDTH 0 0
BBX 10 6 -15 21
BITMAP
8040
8040
C0C0
7F80
3F80
1E00
ENDCHAR
STARTCHAR 0307
ENCODING 775
SWIDTH 0 0
DWIDTH 0 0
BBX 6 6 -13 21
BITMAP
78
FC
FC
FC
FC
78
ENDCHAR
STARTCHAR 0308
ENCODING 776
SWIDTH 0 0
DWIDTH 0 0
BBX 12 5 -16 22
BITMAP
70E0
F9F0
F9F0
F9F0
70E0
ENDCHAR
STARTCHAR 030A
ENCODING 778
SWIDTH 0 0
DWIDTH 0 0
BBX 8 8 -14 21
BITMAP
7E
66
C3
C3
C3
C3
7E
3C
ENDCHAR
STARTCHAR 030B
ENCODING 779
SWIDTH 0 0
DWIDTH 0 0
BBX 11 7 -13 21
BITMAP
1CE0
1CE0
3DE0
7BC0
7380
C600
8400
ENDCHAR
STARTCHAR 030C
ENCODING 780
SWIDTH 0 0
DWIDTH 0 0
BBX 10 6 -15 21
BITMAP
C040
6180
7380
3F00
1E00
0C00
ENDCHAR
STARTCHAR 030F
ENCODING 783
SWIDTH 0 0
DWIDTH 0 0
BBX 11 7 -18 21
BITMAP
E700
E700
F780
7BC0
39C0
0C60
0420
ENDCHAR
STARTCHAR 0311
ENCODING 785
SWIDTH 0 0
DWIDTH 0 0
BBX 10 6 -15 20
BITMAP
1E00
3F00
7F80
6180
C0C0
8040
ENDCHAR
STARTCHAR 0312
ENCODING 786
SWIDTH 0 0
DWIDTH 0 0
BBX 6 9 -13 21
BITMAP
18
30
60
C0
C0
F8
FC
7C
38
ENDCHAR
STARTCHAR 0313
ENCODING 787
SWIDTH 0 0
DWIDTH 0 0
BBX 5 10 -12 20
BITMAP
F0
F8
F8
F8
18
18
10
20
C0
80
ENDCHAR
STARTCHAR 0314
ENCODING 788
SWIDTH 0 0
DWIDTH 0 0
BBX 6 9 -13 20
BITMAP
38
7C
FC
F8
C0
C0
60
30
18
ENDCHAR
STARTCHAR 0316
ENCODING 790
SWIDTH 0 0
DWIDTH 0 0
BBX 7 7 -15 -8
BITMAP
E0
F0
F0
78
38
0C
06
ENDCHAR
STARTCHAR 0317
ENCODING 791
SWIDTH 0 0
DWIDTH 0 0
BBX 7 7 -12 -8
BITMAP
0E
1E
1E
3C
78
60
C0
ENDCHAR
STARTCHAR 0323
ENCODING 803
SWIDTH 0 0
DWIDTH 0 0
BBX 6 6 -13 -8
BITMAP
78
FC
FC
FC
FC
78
ENDCHAR
STARTCHAR 0324
ENCODING 804
SWIDTH 0 0
DWIDTH 0 0
BBX 12 5 -16 -8
BITMAP
70E0
F9F0
F9F0
F9F0
70E0
ENDCHAR
STARTCHAR 0325
ENCODING 805
SWIDTH 0 0
DWIDTH 0 0
BBX 8 8 -14 -9
BITMAP
3C
7E
C3
C3
C3
C3
7E
3C
ENDCHAR
STARTCHAR 0326
ENCODING 806
SWIDTH 0 0
DWIDTH 0 0
BBX 5 8 -12 -9
BITMAP
70
F0
F8
F8
18
10
20
C0
ENDCHAR
STARTCHAR 0327
ENCODING 807
SWIDTH 0 0
DWIDTH 0 0
BBX 7 8 -13 -8
BITMAP
20
20
38
0C
0E
0E
0E
FC
ENDCHAR
STARTCHAR 0328
ENCODING 808
SWIDTH 0 0
DWIDTH 0 0
BBX 7 9 -15 -9
BITMAP
0C
18
30
60
E0
E0
F2
FC
78
ENDCHAR
STARTCHAR 032C
ENCODING 812
SWIDTH 0 0
DWIDTH 0 0
BBX 10 6 -15 -8
BITMAP
C040
6180
7380
3F00
1E00
0C00
ENDCHAR
STARTCHAR 032D
ENCODING 813
SWIDTH 0 0
DWIDTH 0 0
BBX 12 7 -16 -9
BITMAP
0700
0F00
0F00
1F80
39C0
70E0
C030
ENDCHAR
STARTCHAR 032E
ENCODING 814
SWIDTH 0 0
DWIDTH 0 0
BBX 10 6 -15 -8
BITMAP
8040
8040
C0C0
7F80
3F80
1E00
ENDCHAR
STARTCHAR 032F
ENCODING 815
SWIDTH 0 0
DWIDTH 0 0
BBX 10 6 -15 -9
BITMAP
1E00
3F00
7F80
6180
C0C0
8040
ENDCHAR
STARTCHAR 0330
ENCODING 816
SWIDTH 0 0
DWIDTH 0 0
BBX 11 4 -15 -7
BITMAP
3C20
7FE0
FFE0
87C0
ENDCHAR
STARTCHAR 0331
ENCODING 817
SWIDTH 0 0
DWIDTH 0 0
BBX 10 3 -15 -6
BITMAP
FFC0
FFC0
FFC0
ENDCHAR
STARTCHAR 0332
ENCODING 818
SWIDTH 0 0
DWIDTH 0 0
BBX 20 3 -20 -7
BITMAP
FFFFF0
FFFFF0
FFFFF0
ENDCHAR
STARTCHAR 0333
ENCODING 819
SWIDTH 0 0
DWIDTH 0 0
BBX 20 8 -20 -11
BITMAP
FFFFF0
FFFFF0
FFFFF0
000000
000000
000000
FFFFF0
FFFFF0
ENDCHAR
STARTCHAR 033E
ENCODING 830
SWIDTH 0 0
DWIDTH 0 0
BBX 3 10 -12 20
BITMAP
C0
60
60
60
E0
E0
C0
C0
C0
60
ENDCHAR
STARTCHAR 0342
ENCODING 834
SWIDTH 0 0
DWIDTH 0 0
BBX 14 5 -17 22
BITMAP
1C04
3F08
7FF8
43F0
81E0
ENDCHAR
STARTCHAR 0343
ENCODING 835
SWIDTH 0 0
DWIDTH 0 0
BBX 6 9 -13 20
BITMAP
70
F8
FC
FC
0C
08
18
10
60
ENDCHAR
STARTCHAR 0344
ENCODING 836
SWIDTH 0 0
DWIDTH 0 0
BBX 13 10 -16 20
BITMAP
00C0
01C0
01C0
01C0
0380
7370
FBF8
FAF8
F8F8
7070
ENDCHAR
STARTCHAR 0345
ENCODING 837
SWIDTH 0 0
DWIDTH 0 0
BBX 5 8 -12 -11
BITMAP
60
70
70
70
F8
F8
F8
70
ENDCHAR
STARTCHAR 0351
ENCODING 849
SWIDTH 0 0
DWIDTH 0 0
BBX 5 9 -12 20
BITMAP
38
70
C0
C0
C0
C0
60
78
18
ENDCHAR
STARTCHAR 0357
ENCODING 855
SWIDTH 0 0
DWIDTH 0 0
BBX 5 9 -12 20
BITMAP
E0
70
18
18
18
18
30
F0
C0
ENDCHAR
STARTCHAR 0359
ENCODING 857
SWIDTH 0 0
DWIDTH 0 0
BBX 9 10 -14 -11
BITMAP
1C00
1C00
D980
EB80
FF80
EB80
EB80
DD80
1C00
1C00
ENDCHAR
STARTCHAR 035C
ENCODING 860
SWIDTH 0 0
DWIDTH 0 0
BBX 22 5 -11 -8
BITMAP
C0000C
780078
1FFFE0
07FF80
01FE00
ENDCHAR
STARTCHAR 035D
ENCODING 861
SWIDTH 0 0
DWIDTH 0 0
BBX 22 5 -11 28
BITMAP
C0000C
780078
1FFFE0
07FF80
01FE00
ENDCHAR
STARTCHAR 0361
ENCODING 865
SWIDTH 0 0
DWIDTH 0 0
BBX 22 5 -11 26
BITMAP
01FE00
07FF80
1FFFE0
780078
C0000C
ENDCHAR
STARTCHAR 0363
ENCODING 867
SWIDTH 0 0
DWIDTH 0 0
BBX 11 11 -15 20
BITMAP
1E00
6700
4380
6380
2380
1F80
6380
E380
E3A0
E3A0
7DC0
ENDCHAR
STARTCHAR 0364
ENCODING 868
SWIDTH 0 0
DWIDTH 0 0
BBX 9 11 -15 20
BITMAP
1C00
7700
6300
E380
E380
FF80
E000
E080
6080
3100
1E00
ENDCHAR
STARTCHAR 0365
ENCODING 869
SWIDTH 0 0
DWIDTH 0 0
BBX 6 16 -13 20
BITMAP
30
78
78
30
00
F0
70
70
70
70
70
70
70
70
70
FC
ENDCHAR
STARTCHAR 0366
ENCODING 870
SWIDTH 0 0
DWIDTH 0 0
BBX 10 11 -15 20
BITMAP
1E00
3300
6180
E1C0
E1C0
E1C0
E1C0
E1C0
6180
3300
1E00
ENDCHAR
STARTCHAR 0367
ENCODING 871
SWIDTH 0 0
DWIDTH 0 0
BBX 11 11 -16 20
BITMAP
F3C0
71C0
71C0
71C0
71C0
71C0
71C0
71C0
73C0
75C0
3DE0
ENDCHAR
STARTCHAR 0368
ENCODING 872
SWIDTH 0 0
DWIDTH 0 0
BBX 9 11 -14 20
BITMAP
1E00
3100
6180
E380
E380
E000
E000
E000
6080
3180
1E00
ENDCHAR
STARTCHAR 0369
ENCODING 873
SWIDTH 0 0
DWIDTH 0 0
BBX 12 15 -15 20
BITMAP
07C0
01C0
01C0
01C0
1DC0
73C0
63C0
E1C0
E1C0
E1C0
E1C0
E1C0
63C0
73C0
1DF0
ENDCHAR
STARTCHAR 036A
ENCODING 874
SWIDTH 0 0
DWIDTH 0 0
BBX 12 15 -17 20
BITMAP
F800
3800
3800
3800
3800
3BC0
3CE0
38E0
38E0
38E0
38E0
38E0
38E0
38E0
FDF0
ENDCHAR
STARTCHAR 036B
ENCODING 875
SWIDTH 0 0
DWIDTH 0 0
BBX 17 11 -18 20
BITMAP
F39E00
7DE700
79E700
71C700
71C700
71C700
71C700
71C700
71C700
71C700
FBEF80
ENDCHAR
STARTCHAR 036C
ENCODING 876
SWIDTH 0 0
DWIDTH 0 0
BBX 9 11 -13 20
BITMAP
F300
7F80
7B80
7300
7000
7000
7000
7000
7000
7000
F800
ENDCHAR
STARTCHAR 036D
ENCODING 877
SWIDTH 0 0
DWIDTH 0 0
BBX 7 14 -13 20
BITMAP
10
10
30
70
FC
70
70
70
70
72
72
72
72
3C
ENDCHAR
STARTCHAR 036E
ENCODING 878
SWIDTH 0 0
DWIDTH 0 0
BBX 12 11 -16 20
BITMAP
FCF0
3840
3840
1C80
1C80
1E80
0F00
0F00
0600
0600
0600
ENDCHAR
STARTCHAR 036F
ENCODING 879
SWIDTH 0 0
DWIDTH 0 0
BBX 11 11 -15 20
BITMAP
FBC0
7980
3900
3E00
1C00
1E00
0F00
1700
2780
63C0
F7E0
ENDCHAR
STARTCHAR 0374
ENCODING 884
SWIDTH 236 0
DWIDTH 9 0
BBX 6 9 2 20
BITMAP
1C
1C
3C
38
70
70
E0
C0
80
ENDCHAR
STARTCHAR 0375
ENCODING 885
SWIDTH 236 0
DWIDTH 9 0
BBX 6 9 1 -11
BITMAP
04
0C
1C
38
38
70
F0
E0
E0
ENDCHAR
STARTCHAR 037A
ENCODING 890
SWIDTH 421 0
DWIDTH 16 0
BBX 4 8 6 -11
BITMAP
60
60
60
F0
F0
F0
F0
60
ENDCHAR
STARTCHAR 037E
ENCODING 894
SWIDTH 263 0
DWIDTH 10 0
BBX 7 26 2 -7
BITMAP
78
FC
FC
FC
FC
78
00
00
00
00
00
00
00
78
FC
FC
FE
FE
7E
06
04
04
08
10
60
C0
ENDCHAR
STARTCHAR 0384
ENCODING 900
SWIDTH 236 0
DWIDTH 9 0
BBX 6 9 4 20
BITMAP
1C
1C
3C
38
70
70
E0
C0
80
ENDCHAR
STARTCHAR 0385
ENCODING 901
SWIDTH 421 0
DWIDTH 16 0
BBX 12 10 2 20
BITMAP
01C0
01C0
03C0
0380
0380
0700
E6E0
F6F0
F4F0
6060
ENDCHAR
STARTCHAR 0386
ENCODING 902
SWIDTH 789 0
DWIDTH 30 0
BBX 26 29 3 0
BITMAP
0E060000
0E0E0000
1E0E0000
1C0E0000
381F0000
301F0000
601F0000
403F8000
403F8000
002F8000
006FC000
006FC000
0047C000
00C7E000
00C7E000
0087E000
0183E000
0183F000
0103F000
0301F000
03FFF800
0201F800
0600F800
0600FC00
0400FC00
0C007C00
0C007E00
3E00FF00
FFC7FFC0
ENDCHAR
STARTCHAR 0387
ENCODING 903
SWIDTH 315 0
DWIDTH 12 0
BBX 6 6 3 14
BITMAP
78
FC
FC
FC
FC
78
ENDCHAR
STARTCHAR 0388
ENCODING 904
SWIDTH 921 0
DWIDTH 35 0
BBX 30 29 3 0
BITMAP
0C000000
1CFFFFFC
1C0FC0FC
3C0FC03C
380FC01C
700FC01C
600FC00C
C00FC00C
C00FC00C
000FC104
000FC100
000FC300
000FC300
000FC700
000FFF00
000FC700
000FC300
000FC300
000FC104
000FC104
000FC104
000FC00C
000FC00C
000FC00C
000FC01C
000FC01C
000FC03C
000FC0FC
00FFFFFC
ENDCHAR
STARTCHAR 0389
ENCODING 905
SWIDTH 1078 0
DWIDTH 41 0
BBX 36 29 3 0
BITMAP
0E00000000
1E7FFDFFF0
1E0FC01F80
1C0FC01F80
380FC01F80
300FC01F80
700FC01F80
600FC01F80
C00FC01F80
000FC01F80
000FC01F80
000FC01F80
000FC01F80
000FC01F80
000FFFFF80
000FC01F80
000FC01F80
000FC01F80
000FC01F80
000FC01F80
000FC01F80
000FC01F80
000FC01F80
000FC01F80
000FC01F80
000FC01F80
000FC01F80
000FC01F80
007FFDFFF0
ENDCHAR
STARTCHAR 038A
ENCODING 906
SWIDTH 710 0
DWIDTH 27 0
BBX 21 29 4 0
BITMAP
1C0000
3CFFF8
3C1F80
381F80
701F80
601F80
C01F80
C01F80
801F80
001F80
001F80
001F80
001F80
001F80
001F80
001F80
001F80
001F80
001F80
001F80
001F80
001F80
001F80
001F80
001F80
001F80
001F80
001F80
00FFF8
ENDCHAR
STARTCHAR 038C
ENCODING 908
SWIDTH 842 0
DWIDTH 32 0
BBX 27 29 3 0
BITMAP
1C000000
1C0FF000
3C181800
38300C00
70700E00
60E00700
E1E00780
C1E00780
83E007C0
03E007C0
03E007C0
07E007E0
07E007E0
07E007E0
07E007E0
07E007E0
07E007E0
07E007E0
07E007E0
03E007C0
03E007C0
03E007C0
01E00780
01E00780
00E00700
00700E00
00300C00
00181800
000FF000
ENDCHAR
STARTCHAR 038E
ENCODING 910
SWIDTH 947 0
DWIDTH 36 0
BBX 32 29 3 0
BITMAP
0C000000
1CE000FC
3C7801FE
3C1E033F
380F063F
7007847F
6007CC7F
C003CC7E
8003E83C
0003E800
0001F800
0001F800
0001F800
0001F800
0001F800
0001F800
0001F800
0001F800
0001F800
0001F800
0001F800
0001F800
0001F800
0001F800
0001F800
0001F800
0001F800
0001F800
000FFF00
ENDCHAR
STARTCHAR 038F
ENCODING 911
SWIDTH 868 0
DWIDTH 33 0
BBX 28 29 3 0
BITMAP
0C000000
1E0FFC00
1C3E1F00
3C7C0F80
38F807C0
71F807C0
61F007E0
C1F003E0
C3F003F0
03F003F0
03F003F0
03F003F0
03F003F0
03F003F0
03F003F0
01F003E0
01F003E0
00F807C0
007807C0
00780780
001C0E00
000F3C00
02033010
02033010
03033030
03FF3FF0
03FF3FF0
03FF3FF0
03FF3FF0
ENDCHAR
STARTCHAR 0390
ENCODING 912
SWIDTH 315 0
DWIDTH 12 0
BBX 12 30 -1 1
BITMAP
01C0
01C0
0180
0380
0300
6360
F6F0
F4F0
F0F0
0000
0000
0700
0F00
0F00
0F00
0F00
0F00
0E00
0C00
0C00
0C00
0800
0800
0820
0820
0C60
0FC0
0FC0
07C0
0380
ENDCHAR
STARTCHAR 0391
ENCODING 913
SWIDTH 763 0
DWIDTH 29 0
BBX 26 29 2 0
BITMAP
00060000
000E0000
000E0000
000E0000
001F0000
001F0000
001F0000
003F8000
003F8000
002F8000
006FC000
006FC000
0047C000
00C7E000
00C7E000
0087E000
0183E000
0183F000
0103F000
0301F000
03FFF800
0201F800
0600F800
0600FC00
0400FC00
0C00FC00
0C007E00
1E00FE00
FFC7FFC0
ENDCHAR
STARTCHAR 0392
ENCODING 914
SWIDTH 710 0
DWIDTH 27 0
BBX 22 28 3 0
BITMAP
FFFF00
1F87C0
1F83E0
1F81F0
1F81F8
1F81F8
1F81F8
1F81F8
1F81F8
1F81F0
1F81F0
1F83E0
1F8380
1FFC00
1F8380
1F81E0
1F81F0
1F80F8
1F80FC
1F80FC
1F80FC
1F80FC
1F80FC
1F80F8
1F81F8
1F81F0
1F83E0
FFFF80
ENDCHAR
STARTCHAR 0393
ENCODING 915
SWIDTH 631 0
DWIDTH 24 0
BBX 21 28 2 0
BITMAP
FFFFF8
1F83F8
1F81F8
1F80F8
1F8078
1F8078
1F8038
1F8038
1F8018
1F8018
1F8018
1F8018
1F8000
1F8000
1F8000
1F8000
1F8000
1F8000
1F8000
1F8000
1F8000
1F8000
1F8000
1F8000
1F8000
1F8000
1F8000
FFFC00
ENDCHAR
STARTCHAR 0394
ENCODING 916
SWIDTH 657 0
DWIDTH 25 0
BBX 22 29 2 0
BITMAP
003000
003800
007800
007800
007C00
00FC00
00FC00
00FE00
01BE00
013E00
033F00
031F00
021F00
061F80
060F80
040F80
0C07C0
0807C0
1807E0
1803E0
1003E0
3003F0
3001F0
2001F0
6001F8
7FFFF8
FFFFF8
FFFFFC
FFFFFC
ENDCHAR
STARTCHAR 0395
ENCODING 917
SWIDTH 684 0
DWIDTH 26 0
BBX 22 28 2 0
BITMAP
FFFFFC
0FC0FC
0FC03C
0FC01C
0FC01C
0FC00C
0FC00C
0FC00C
0FC104
0FC100
0FC300
0FC300
0FC700
0FFF00
0FC700
0FC300
0FC300
0FC104
0FC104
0FC104
0FC00C
0FC00C
0FC00C
0FC01C
0FC01C
0FC03C
0FC0FC
FFFFFC
ENDCHAR
STARTCHAR 0396
ENCODING 918
SWIDTH 657 0
DWIDTH 25 0
BBX 20 28 3 0
BITMAP
7FFFF0
7E07F0
7C07E0
780FE0
700FC0
601FC0
601F80
603F80
403F00
407F00
007E00
00FE00
00FC00
01FC00
03F800
03F000
07F000
07E010
0FE010
0FC010
1FC030
1F8030
3F8070
3F0070
7F00F0
7E01F0
FE07F0
FFFFF0
ENDCHAR
STARTCHAR 0397
ENCODING 919
SWIDTH 815 0
DWIDTH 31 0
BBX 27 28 2 0
BITMAP
FFFBFFE0
1F803F00
1F803F00
1F803F00
1F803F00
1F803F00
1F803F00
1F803F00
1F803F00
1F803F00
1F803F00
1F803F00
1F803F00
1FFFFF00
1F803F00
1F803F00
1F803F00
1F803F00
1F803F00
1F803F00
1F803F00
1F803F00
1F803F00
1F803F00
1F803F00
1F803F00
1F803F00
FFFBFFE0
ENDCHAR
STARTCHAR 0398
ENCODING 920
SWIDTH 736 0
DWIDTH 28 0
BBX 23 29 3 0
BITMAP
001000
01FF00
030180
0E00E0
1E00F0
1C0070
3C0078
3C0078
7C007C
7C007C
7CC27C
FCC27E
FCFE7E
FCFE7E
FCFE7E
FCFE7E
FCC27E
FCC27E
FCC27E
7C007C
7C007C
7C007C
7C0078
3C0078
1C0070
1E00F0
0E00E0
030180
01FF00
ENDCHAR
STARTCHAR 0399
ENCODING 921
SWIDTH 447 0
DWIDTH 17 0
BBX 13 28 2 0
BITMAP
FFF8
1F80
1F80
1F80
1F80
1F80
1F80
1F80
1F80
1F80
1F80
1F80
1F80
1F80
1F80
1F80
1F80
1F80
1F80
1F80
1F80
1F80
1F80
1F80
1F80
1F80
1F80
FFF8
ENDCHAR
STARTCHAR 039A
ENCODING 922
SWIDTH 763 0
DWIDTH 29 0
BBX 26 28 2 0
BITMAP
FFF1FF00
1F807C00
1F807000
1F806000
1F806000
1F80C000
1F818000
1F830000
1F860000
1F860000
1F8E0000
1F9F0000
1FBF0000
1FFF8000
1FDF8000
1F9FC000
1F8FC000
1F8FE000
1F87E000
1F87F000
1F83F000
1F83F800
1F81F800
1F81FC00
1F80FC00
1F80FE00
1F80FF00
FFF3FFC0
ENDCHAR
STARTCHAR 039B
ENCODING 923
SWIDTH 763 0
DWIDTH 29 0
BBX 26 29 2 0
BITMAP
00060000
000E0000
000E0000
000E0000
001F0000
001F0000
001F0000
003F8000
003F8000
002F8000
006FC000
006FC000
0047C000
00C7E000
00C7E000
0087E000
0183E000
0183F000
0103F000
0301F000
0301F800
0201F800
0600F800
0600FC00
0400FC00
0C00FC00
0C007E00
3E00FF00
FFC7FFC0
ENDCHAR
STARTCHAR 039C
ENCODING 924
SWIDTH 894 0
DWIDTH 34 0
BBX 31 28 2 0
BITMAP
FF800FFE
0F800FE0
0FC00FE0
0FC00FE0
0FC00FE0
0FE017E0
0FE017E0
0FF017E0
0DF017E0
0DF027E0
0DF827E0
0CF827E0
0CF827E0
0CFC47E0
0C7C47E0
0C7C47E0
0C7E47E0
0C3E87E0
0C3F87E0
0C3F87E0
0C1F87E0
0C1F07E0
0C1F07E0
0C0F07E0
0C0F07E0
1C0E07E0
3E0607E0
FF863FFE
ENDCHAR
STARTCHAR 039D
ENCODING 925
SWIDTH 789 0
DWIDTH 30 0
BBX 27 28 2 0
BITMAP
FF80FFE0
3FC03F80
1FC01E00
0FE00C00
07F00C00
07F00C00
07F80C00
07F80C00
07FC0C00
06FE0C00
067E0C00
067F0C00
063F8C00
061F8C00
061FCC00
060FEC00
0607EC00
0607FC00
0603FC00
0601FC00
0601FC00
0600FC00
06007C00
06007C00
06003C00
0F001C00
3F801C00
FFE00C00
ENDCHAR
STARTCHAR 039E
ENCODING 926
SWIDTH 657 0
DWIDTH 25 0
BBX 20 28 3 0
BITMAP
FFFFF0
FFFFF0
FFFFF0
FFFFF0
800010
800010
800010
800010
800010
0C0100
0C0100
0FFF00
0FFF00
0FFF00
0FFF00
0C0100
0C0100
0C0100
000000
000000
800010
800010
800010
800010
FFFFF0
FFFFF0
FFFFF0
FFFFF0
ENDCHAR
STARTCHAR 039F
ENCODING 927
SWIDTH 710 0
DWIDTH 27 0
BBX 22 28 3 1
BITMAP
01FE00
030300
060180
0E01C0
1C00E0
3C00F0
3C00F0
7C00F8
7C00F8
7C00F8
FC00FC
FC00FC
FC00FC
FC00FC
FC00FC
FC00FC
FC00FC
FC00FC
7C00F8
7C00F8
7C00F8
3C00F0
3C00F0
1C00E0
0E01C0
060180
030300
01FE00
ENDCHAR
STARTCHAR 03A0
ENCODING 928
SWIDTH 815 0
DWIDTH 31 0
BBX 27 28 2 0
BITMAP
FFFFFFE0
1F803F00
1F803F00
1F803F00
1F803F00
1F803F00
1F803F00
1F803F00
1F803F00
1F803F00
1F803F00
1F803F00
1F803F00
1F803F00
1F803F00
1F803F00
1F803F00
1F803F00
1F803F00
1F803F00
1F803F00
1F803F00
1F803F00
1F803F00
1F803F00
1F803F00
1F803F00
FFFBFFE0
ENDCHAR
STARTCHAR 03A1
ENCODING 929
SWIDTH 710 0
DWIDTH 27 0
BBX 23 28 2 0
BITMAP
FFFF80
1F81E0
1F80F8
1F80FC
1F807C
1F807E
1F807E
1F807E
1F807E
1F807E
1F807C
1F80FC
1F80F8
1F81F0
1FFFC0
1F8000
1F8000
1F8000
1F8000
1F8000
1F8000
1F8000
1F8000
1F8000
1F8000
1F8000
1F8000
FFF800
ENDCHAR
STARTCHAR 03A3
ENCODING 931
SWIDTH 684 0
DWIDTH 26 0
BBX 21 28 3 0
BITMAP
7FFFF8
7E01F8
7F0078
3F8078
3F8038
1FC038
0FC018
0FE018
07F018
07F000
03F800
01FC00
01FC00
00FC00
007800
007000
006000
004000
00C008
018018
030018
060018
0C0038
180078
3FFFF8
7FFFF8
FFFFF8
FFFFF8
ENDCHAR
STARTCHAR 03A4
ENCODING 932
SWIDTH 710 0
DWIDTH 27 0
BBX 24 28 2 0
BITMAP
FFFFFF
FC7E3F
F87E1F
F07E0F
E07E0F
E07E07
C07E07
C07E03
C07E03
C07E03
807E03
807E02
007E00
007E00
007E00
007E00
007E00
007E00
007E00
007E00
007E00
007E00
007E00
007E00
007E00
007E00
007E00
07FFE0
ENDCHAR
STARTCHAR 03A5
ENCODING 933
SWIDTH 710 0
DWIDTH 27 0
BBX 24 28 2 1
BITMAP
E000FC
7801FE
1E033F
0F063F
07847F
07CC7F
03CC7E
03E83C
03E800
01F800
01F800
01F800
01F800
01F800
01F800
01F800
01F800
01F800
01F800
01F800
01F800
01F800
01F800
01F800
01F800
01F800
01F800
0FFF00
ENDCHAR
STARTCHAR 03A6
ENCODING 934
SWIDTH 842 0
DWIDTH 32 0
BBX 29 28 2 0
BITMAP
007FF800
000FC000
000FC000
000FC000
000FC000
01FFFE00
0F8FCF80
1E0FC3C0
3E0FC3E0
7C0FC1F0
7C0FC1F0
FC0FC1F8
FC0FC1F8
FC0FC1F8
FC0FC1F8
FC0FC1F8
7C0FC1F0
7C0FC1F0
3E0FC3E0
1E0FC3E0
0F0FC780
03FFFF00
000FC000
000FC000
000FC000
000FC000
000FC000
007FF800
ENDCHAR
STARTCHAR 03A7
ENCODING 935
SWIDTH 763 0
DWIDTH 29 0
BBX 26 28 2 0
BITMAP
FFF1FF80
3FE07C00
0FE03800
0FE03000
07E02000
07F06000
03F0C000
03F88000
01FD8000
00FF0000
00FF0000
007E0000
007F0000
003F0000
003F8000
001F8000
003FC000
006FC000
004FE000
00C7E000
0187F000
0103F000
0303F800
0201F800
0601FC00
0E00FE00
1E01FF00
FFC7FFC0
ENDCHAR
STARTCHAR 03A8
ENCODING 936
SWIDTH 947 0
DWIDTH 36 0
BBX 33 28 2 1
BITMAP
F83FFC3F00
3C07E03F80
1E07E07F80
1F07E04F80
1F07E0CF80
1F87E0CF80
1F87E0C780
1F87E0C000
1F87E0C000
1F87E0C000
1F87E0C000
1F87E0C000
1F87E0C000
1F87E0C000
0F87E08000
0F87E18000
0F87E18000
07C7E30000
03C7E30000
01E7EE0000
007FF80000
0007E00000
0007E00000
0007E00000
0007E00000
0007E00000
0007E00000
003FFC0000
ENDCHAR
STARTCHAR 03A9
ENCODING 937
SWIDTH 710 0
DWIDTH 27 0
BBX 22 28 3 1
BITMAP
03FF00
0F87C0
1F03E0
3E01F0
7E01F0
7C01F8
7C00F8
FC00FC
FC00FC
FC00FC
FC00FC
FC00FC
FC00FC
FC00FC
7C00F8
7C00F8
3E01F0
1E01F0
1E01E0
070380
03CF00
80CC04
80CC04
C0CC0C
FFCFFC
FFCFFC
FFCFFC
FFCFFC
ENDCHAR
STARTCHAR 03AA
ENCODING 938
SWIDTH 447 0
DWIDTH 17 0
BBX 13 36 2 0
BITMAP
7070
F8F8
F8F8
F8F8
7070
0000
0000
0000
FFF8
1F80
1F80
1F80
1F80
1F80
1F80
1F80
1F80
1F80
1F80
1F80
1F80
1F80
1F80
1F80
1F80
1F80
1F80
1F80
1F80
1F80
1F80
1F80
1F80
1F80
1F80
FFF8
ENDCHAR
STARTCHAR 03AB
ENCODING 939
SWIDTH 710 0
DWIDTH 27 0
BBX 24 36 2 0
BITMAP
070700
0F8F80
0F8F80
0F8F80
070700
000000
000000
000000
E000FC
7801FE
1E033F
0F063F
07847F
078C7F
03CC7E
03C83C
03F800
01F800
01F800
01F800
01F800
01F800
01F800
01F800
01F800
01F800
01F800
01F800
01F800
01F800
01F800
01F800
01F800
01F800
01F800
0FFF00
ENDCHAR
STARTCHAR 03AC
ENCODING 940
SWIDTH 578 0
DWIDTH 22 0
BBX 19 29 2 0
BITMAP
000600
000E00
000E00
001E00
001C00
003800
003000
006000
006000
000000
03C3C0
0FE3C0
1FE7C0
1FF7C0
3E7F80
781F00
701F00
601E00
C01E00
C03C00
803C00
807800
80F820
81F860
C3ECC0
FFEFC0
7FCFC0
3F8780
1E0700
ENDCHAR
STARTCHAR 03AD
ENCODING 941
SWIDTH 447 0
DWIDTH 17 0
BBX 13 29 2 0
BITMAP
0070
00F0
00F0
01E0
01C0
0380
0300
0600
0600
0000
0FC0
3FF0
7FF8
7FF8
F870
E000
C000
4FC0
7FE0
3FE0
47C0
C000
C008
C018
F078
FFF0
7FF0
3FE0
0F80
ENDCHAR
STARTCHAR 03AE
ENCODING 942
SWIDTH 631 0
DWIDTH 24 0
BBX 20 40 2 -11
BITMAP
000300
000780
000F00
000F00
000E00
001C00
001800
003000
002000
000000
380F80
7C1FC0
FC3FE0
FE7C30
C6F810
82F010
83F010
03E010
03E010
03E010
03E030
03E030
07C030
07C070
07C070
07C060
07C0E0
0780E0
0781E0
0001E0
0001E0
0003E0
0003E0
0003E0
0007E0
0007E0
0007E0
0007E0
0007C0
0003C0
ENDCHAR
STARTCHAR 03AF
ENCODING 943
SWIDTH 315 0
DWIDTH 12 0
BBX 8 29 3 0
BITMAP
07
0F
0F
1E
1C
38
30
70
60
00
70
F8
F8
F8
F0
F0
E0
E0
C0
C0
80
80
81
81
E7
FE
FE
7C
38
ENDCHAR
STARTCHAR 03B0
ENCODING 944
SWIDTH 552 0
DWIDTH 21 0
BBX 18 30 1 1
BITMAP
01C000
01C000
038000
038000
030000
636000
F6F000
F4F000
F0F000
000000
000000
702000
F81800
F81C00
F80E00
780700
780700
380780
380380
1803C0
1803C0
1803C0
1803C0
1803C0
1807C0
180780
0C0F80
0FFF00
07FE00
01F800
ENDCHAR
STARTCHAR 03B1
ENCODING 945
SWIDTH 578 0
DWIDTH 22 0
BBX 19 19 2 0
BITMAP
03C3C0
0FE3C0
1FE7C0
1FE7C0
3E7F80
781F00
701F00
601E00
C01E00
C03C00
803C00
807800
80F820
81F860
C3ECC0
FFEFC0
7FCFC0
3F8780
1E0700
ENDCHAR
STARTCHAR 03B2
ENCODING 946
SWIDTH 526 0
DWIDTH 20 0
BBX 16 39 2 -10
BITMAP
07F0
1FF8
1FFC
3E0C
3C06
7806
7006
7006
6006
600E
439C
47FC
47F8
47F0
43F8
400C
400C
4006
4006
4007
600F
600F
701F
7C7F
5FFE
4FFE
47FC
41F0
6000
6000
E000
F000
F000
F800
F800
F800
F800
F800
7000
ENDCHAR
STARTCHAR 03B3
ENCODING 947
SWIDTH 552 0
DWIDTH 21 0
BBX 20 30 2 -11
BITMAP
3803F0
7C07F0
FE07E0
FE0FC0
FF0F80
FF0F00
C71E00
839C00
819800
019000
00B000
00E000
006000
006000
006000
006000
006000
006000
00E000
00E000
00E000
00F000
01F000
01F000
01F000
01F000
01F000
01F000
01F000
00E000
ENDCHAR
STARTCHAR 03B4
ENCODING 948
SWIDTH 500 0
DWIDTH 19 0
BBX 15 28 2 1
BITMAP
7E00
7F80
FFE0
FFFC
C7FE
41FE
207E
181E
0604
0780
1FE0
3FF0
3FF8
7F8C
7E04
FC04
F006
F006
E00E
C01E
C03E
C07C
C0FC
63FC
7FF8
3FF8
1FE0
0FC0
ENDCHAR
STARTCHAR 03B5
ENCODING 949
SWIDTH 447 0
DWIDTH 17 0
BBX 13 19 2 0
BITMAP
0FC0
3FF0
7FF8
7FF8
F870
E000
C000
4FC0
7FE0
3FE0
47C0
C000
C008
C018
F078
FFF0
7FF0
3FE0
0F80
ENDCHAR
STARTCHAR 03B6
ENCODING 950
SWIDTH 500 0
DWIDTH 19 0
BBX 16 35 2 -6
BITMAP
307C
70FE
71FE
33FC
3FF8
1FE0
0800
1800
1000
3000
2000
2000
6000
4000
4000
C000
C000
C000
C000
C000
C000
C000
E000
7000
7FFC
3FFE
1FFE
0FFF
0003
0001
0001
01C1
03E2
03FC
01F8
ENDCHAR
STARTCHAR 03B7
ENCODING 951
SWIDTH 631 0
DWIDTH 24 0
BBX 20 30 2 -11
BITMAP
380F80
7C1FC0
FC3FE0
FE7C30
C6F810
82F010
83F010
03E010
03E010
03E010
03E030
03E030
07C030
07C070
07C070
07C060
07C0E0
0780E0
0781E0
0001E0
0001E0
0003E0
0003E0
0003E0
0007E0
0007E0
0007E0
0007E0
0007C0
0003C0
ENDCHAR
STARTCHAR 03B8
ENCODING 952
SWIDTH 657 0
DWIDTH 25 0
BBX 23 29 1 0
BITMAP
03E000
0E3800
0C1C00
1C0E00
1C0E00
1C0700
1C0700
0E0700
0E0780
070780
038780
00E780
001FFE
3C079E
7E079E
4F079E
8F079E
8F0780
8F0780
0F0780
1F0780
1F0780
1F0780
1F0700
1F0700
1F0600
0F0E00
079C00
01F000
ENDCHAR
STARTCHAR 03B9
ENCODING 953
SWIDTH 315 0
DWIDTH 12 0
BBX 8 19 3 0
BITMAP
70
F8
F8
F8
F0
F0
E0
E0
C0
C0
80
80
80
83
E6
FE
FE
7C
38
ENDCHAR
STARTCHAR 03BA
ENCODING 954
SWIDTH 578 0
DWIDTH 22 0
BBX 19 19 2 0
BITMAP
380600
7C0F00
FE1F00
FE1F00
FE1F00
863E00
827E00
02FC00
02F800
03F800
03E800
07C800
0FC820
3F8C60
3F0E60
7F0FE0
7E07C0
7C07C0
380380
ENDCHAR
STARTCHAR 03BB
ENCODING 955
SWIDTH 526 0
DWIDTH 20 0
BBX 18 29 1 0
BITMAP
780000
FE0000
FF0000
FF0000
7F8000
038000
008000
00C000
004000
004000
00C000
00C000
01E000
01E000
03E000
03E000
07E000
07E000
0FF000
0F9000
1F9800
1F1800
3F1C00
3E1F00
3E0F80
7E0FC0
7C07C0
FC07C0
F803C0
ENDCHAR
STARTCHAR 03BC
ENCODING 956
SWIDTH 578 0
DWIDTH 22 0
BBX 19 30 2 -11
BITMAP
301C00
781C00
F83E00
F83E00
F83E00
F83E00
F83E00
F83E00
F03E00
F03E00
703C00
701C20
601C20
601820
203860
203FE0
38FFC0
2FE7C0
27C3C0
200000
200000
700000
700000
780000
780000
7C0000
7C0000
7C0000
7C0000
380000
ENDCHAR
STARTCHAR 03BD
ENCODING 957
SWIDTH 500 0
DWIDTH 19 0
BBX 16 19 1 0
BITMAP
E008
F00C
F80E
F80E
7C0F
3C0F
1C1F
0E1F
061F
063F
027E
03FE
03FC
03FC
03F8
03F0
03E0
03C0
0300
ENDCHAR
STARTCHAR 03BE
ENCODING 958
SWIDTH 447 0
DWIDTH 17 0
BBX 14 37 2 -7
BITMAP
2000
6000
61FC
37FC
3FFC
1FF8
3000
2000
6000
4000
4000
41F0
47F8
3FFC
3FFC
3FF8
73F0
6000
C000
C000
8000
8000
8000
8000
C000
E000
7FF0
7FF8
3FF8
1FFC
001C
000C
000C
0E08
1F18
1FF0
0FE0
ENDCHAR
STARTCHAR 03BF
ENCODING 959
SWIDTH 500 0
DWIDTH 19 0
BBX 15 19 2 0
BITMAP
07C0
1FF0
3FF8
3FF8
7F8C
7E04
FC04
F006
E006
E00E
C01E
C03E
C07C
40FC
63FC
7FF8
3FF0
1FE0
0FC0
ENDCHAR
STARTCHAR 03C0
ENCODING 960
SWIDTH 657 0
DWIDTH 25 0
BBX 22 19 2 0
BITMAP
1FFFFC
3FFFFC
7FFFFC
FFFFFC
C10400
810400
810400
010400
010400
030400
030408
070610
0F0710
1F07F0
3F07F0
3F07F0
3F07F0
3E03E0
1C01C0
ENDCHAR
STARTCHAR 03C1
ENCODING 961
SWIDTH 500 0
DWIDTH 19 0
BBX 15 30 2 -11
BITMAP
03E0
0FF0
1FF8
3FFC
3F8C
7E04
7C06
7806
7006
600E
600E
401E
403E
40FC
61FC
7FF8
7FF8
5FF0
47C0
6000
6000
F000
F000
F800
F800
FC00
FC00
FC00
7C00
7800
ENDCHAR
STARTCHAR 03C2
ENCODING 962
SWIDTH 473 0
DWIDTH 18 0
BBX 15 26 2 -7
BITMAP
00F8
07FC
0FFC
1FFE
3FFC
78F8
6000
4000
8000
8000
8000
8000
8000
C000
E000
7FE0
7FF0
3FF8
1FF8
0018
0008
0008
0E08
0F10
0FE0
07C0
ENDCHAR
STARTCHAR 03C3
ENCODING 963
SWIDTH 552 0
DWIDTH 21 0
BBX 18 19 2 0
BITMAP
07FFC0
1FFFC0
3FFFC0
7FFFC0
786000
601000
C01800
800C00
800C00
800E00
800E00
800E00
C01E00
603E00
787E00
3FFC00
3FFC00
0FF800
03E000
ENDCHAR
STARTCHAR 03C4
ENCODING 964
SWIDTH 500 0
DWIDTH 19 0
BBX 16 19 2 0
BITMAP
1FFF
3FFF
7FFF
FFFF
C100
8100
8100
0100
0100
0100
0102
0184
01C4
01FC
01FC
01FC
01FC
00F8
0070
ENDCHAR
STARTCHAR 03C5
ENCODING 965
SWIDTH 552 0
DWIDTH 21 0
BBX 18 19 1 0
BITMAP
701000
F81800
F80C00
F80E00
780700
780700
380380
380380
1803C0
1803C0
1803C0
1803C0
1803C0
1807C0
1C0780
0E0F80
0FFF00
07FE00
01F800
ENDCHAR
STARTCHAR 03C6
ENCODING 966
SWIDTH 631 0
DWIDTH 24 0
BBX 20 30 2 -11
BITMAP
0E0F80
1F1FC0
3F3FE0
7F3FE0
7E7C70
F07030
C06010
806010
804010
804030
804030
C04070
6041E0
7847E0
7FFFC0
3FFFC0
1FFF80
0FFE00
03F800
004000
004000
004000
00C000
00E000
00E000
01F000
01F000
01F000
01F000
00E000
ENDCHAR
STARTCHAR 03C7
ENCODING 967
SWIDTH 578 0
DWIDTH 22 0
BBX 22 29 1 -10
BITMAP
7003E0
FC03E0
FC07E0
FE07C0
7F0FC0
030F80
011F80
009F00
00BF00
00BE00
007E00
007C00
00FC00
00F800
01F800
01F000
03F000
03F800
07E800
07C800
0FCC00
0F8400
1F8600
1F0300
3F03F8
3E01FC
7E01FC
7C00FC
7C0078
ENDCHAR
STARTCHAR 03C8
ENCODING 968
SWIDTH 657 0
DWIDTH 25 0
BBX 21 39 2 -10
BITMAP
007C00
00FE00
00FE00
00FE00
00FE00
00FE00
00FC00
007C00
007C00
1C7C40
3E7860
7E7830
7E7830
FC3030
FC3038
F83038
F03038
E03038
C02078
C02078
4020F0
4020F0
6023F0
3C2FE0
3FFFE0
1FFFC0
07FF00
01FC00
002000
002000
002000
007000
007000
00F000
00F800
00F800
00F800
00F800
007000
ENDCHAR
STARTCHAR 03C9
ENCODING 969
SWIDTH 710 0
DWIDTH 27 0
BBX 23 19 2 0
BITMAP
1C00C0
3E00E0
3E0070
7E0038
7C3838
FC383C
F87C1C
F87C1E
F07C1E
F07C1E
F07C1E
F07C1E
F0781E
70383C
70383C
78307C
3C3078
1FEFF0
0783E0
ENDCHAR
STARTCHAR 03CA
ENCODING 970
SWIDTH 315 0
DWIDTH 12 0
BBX 12 27 -1 0
BITMAP
70E0
F9F0
F9F0
F9F0
70E0
0000
0000
0000
0600
0F00
0F00
0F00
0F00
0E00
0E00
0C00
0C00
0800
0800
0800
0820
0820
0C60
0FE0
0FC0
07C0
0380
ENDCHAR
STARTCHAR 03CB
ENCODING 971
SWIDTH 552 0
DWIDTH 21 0
BBX 18 27 1 0
BITMAP
70E000
F9F000
F9F000
F9F000
70E000
000000
000000
000000
702000
F81800
F81C00
F80E00
780700
780700
380380
380380
1803C0
1803C0
1803C0
1803C0
1803C0
1807C0
1C0780
0E0F80
0FFF00
07FE00
01F800
ENDCHAR
STARTCHAR 03CC
ENCODING 972
SWIDTH 500 0
DWIDTH 19 0
BBX 15 29 2 0
BITMAP
0030
0078
0070
00F0
00E0
01C0
0180
0300
0300
0000
07C0
1FF0
3FF8
3FF8
7F8C
7E04
FC04
F006
E006
E00E
C01E
C03E
C07C
40FC
63FC
7FF8
3FF0
1FE0
0FC0
ENDCHAR
STARTCHAR 03CD
ENCODING 973
SWIDTH 552 0
DWIDTH 21 0
BBX 18 29 1 0
BITMAP
006000
00F000
00E000
01E000
01C000
038000
030000
060000
040000
000000
701000
F81800
F80C00
F80E00
780700
780700
380380
380380
1803C0
1803C0
1803C0
1803C0
1803C0
1807C0
180780
0C0F80
0FFF00
07FE00
01F800
ENDCHAR
STARTCHAR 03CE
ENCODING 974
SWIDTH 710 0
DWIDTH 27 0
BBX 23 29 2 0
BITMAP
000700
000F00
000F00
000E00
001C00
001800
003000
003000
006000
000000
1C00C0
3E00E0
3E0070
7E0038
7C3838
FC383C
F87C1C
F87C1E
F07C1E
F07C1E
F07C1E
F07C1E
F0781E
70383C
70383C
78307C
3C3078
1FEFF0
0783E0
ENDCHAR
STARTCHAR 03CF
ENCODING 975
SWIDTH 763 0
DWIDTH 29 0
BBX 25 38 2 -11
BITMAP
FFF1FF00
1F807C00
1F807000
1F806000
1F806000
1F80C000
1F818000
1F830000
1F860000
1F860000
1F8E0000
1F9F0000
1FBF8000
1FFF8000
1FDFC000
1F8FC000
1F8FE000
1F87E000
1F87F000
1F83F800
1F81F800
1F81FC00
1F80FC00
1F80FE00
1F807E00
1F803F00
1F803F80
FFF03F80
00007F80
0000FF00
0001FE00
0013FC00
000FF800
0007F000
0003E000
0001C000
0000C000
00004000
ENDCHAR
STARTCHAR 03D0
ENCODING 976
SWIDTH 526 0
DWIDTH 20 0
BBX 17 28 2 1
BITMAP
00FF00
039F80
060780
080780
080780
1C1F00
23FC00
200000
200000
400000
400000
478000
DFE000
BFF000
FE3000
FC1800
F81800
F81C00
F01C00
F03C00
E03C00
E03C00
607C00
60FC00
71F800
3FF800
1FF000
07C000
ENDCHAR
STARTCHAR 03D1
ENCODING 977
SWIDTH 552 0
DWIDTH 21 0
BBX 23 29 1 0
BITMAP
03E000
0E3800
0C1C00
1C0E00
1C0E00
1C0700
1C0700
0E0700
0E0780
070780
038780
00E780
001FFE
3C079E
7E079E
4F079E
8F079E
8F0780
8F0780
0F0780
1F0780
1F0780
1F0780
1F0700
1F0700
1F0600
0F0E00
079C00
01F000
ENDCHAR
STARTCHAR 03D2
ENCODING 978
SWIDTH 710 0
DWIDTH 27 0
BBX 24 28 2 1
BITMAP
E000FC
7801FE
1E033F
0F063F
07847F
07CC7F
03CC7E
03E83C
03E800
01F800
01F800
01F800
01F800
01F800
01F800
01F800
01F800
01F800
01F800
01F800
01F800
01F800
01F800
01F800
01F800
01F800
01F800
0FFF00
ENDCHAR
STARTCHAR 03D3
ENCODING 979
SWIDTH 947 0
DWIDTH 36 0
BBX 32 29 3 0
BITMAP
0C000000
1CE000FC
3C7801FE
3C1E033F
380F063F
7007847F
6007CC7F
C003CC7E
8003E83C
0003E800
0001F800
0001F800
0001F800
0001F800
0001F800
0001F800
0001F800
0001F800
0001F800
0001F800
0001F800
0001F800
0001F800
0001F800
0001F800
0001F800
0001F800
0001F800
000FFF00
ENDCHAR
STARTCHAR 03D4
ENCODING 980
SWIDTH 710 0
DWIDTH 27 0
BBX 24 36 2 0
BITMAP
070700
0F8F80
0F8F80
0F8F80
070700
000000
000000
000000
E000FC
7801FE
1E033F
0F063F
07847F
078C7F
03CC7E
03C83C
03F800
01F800
01F800
01F800
01F800
01F800
01F800
01F800
01F800
01F800
01F800
01F800
01F800
01F800
01F800
01F800
01F800
01F800
01F800
0FFF00
ENDCHAR
STARTCHAR 03D5
ENCODING 981
SWIDTH 605 0
DWIDTH 23 0
BBX 19 40 2 -11
BITMAP
004000
01E000
01F000
01F000
01F000
01E000
00E000
00E000
00C000
00C000
03F800
0FFE00
1FFF00
3FFF80
7FE1C0
7FC040
FCC060
F0C060
E0C060
C0C060
C0C0E0
C0C3E0
C0C7E0
40DFC0
71FFC0
3FFF80
3FFF00
1FFC00
07F000
00C000
00C000
00C000
00E000
00E000
01E000
01F000
01F000
01F000
01F000
00E000
ENDCHAR
STARTCHAR 03D6
ENCODING 982
SWIDTH 789 0
DWIDTH 30 0
BBX 27 19 2 0
BITMAP
0FFFFFE0
3FFFFFE0
7FFFFFE0
7FFFFFE0
C7000600
8F000700
8E000700
8E070380
1C078380
1C0F83C0
1C0F83C0
1C0F83C0
1C0F83C0
1C0F03C0
0E070780
0E060780
07060F80
03FDFF00
01F07C00
ENDCHAR
STARTCHAR 03D7
ENCODING 983
SWIDTH 578 0
DWIDTH 22 0
BBX 19 26 2 -7
BITMAP
380600
7C0F00
FE1F00
FE1F00
FE1F00
863E00
827C00
02F800
02F800
03F000
03D000
07D000
0F9020
3F1860
3F1CC0
7E1FC0
7C0FC0
7C0FC0
3807C0
000080
000080
01C180
03E300
03FE00
03FC00
00F800
ENDCHAR
STARTCHAR 03D8
ENCODING 984
SWIDTH 684 0
DWIDTH 26 0
BBX 23 28 2 1
BITMAP
03FF80
0F81E0
1E00F0
3E00F8
7E007C
7C007C
FC007E
FC007E
FC007E
FC007E
FC007E
FC007E
7C007C
3E00FC
3E00F8
0F01F0
0783C0
01FF00
007E00
007E00
007E00
007E00
007E00
007E00
007E00
007E00
007E00
03FFC0
ENDCHAR
STARTCHAR 03D9
ENCODING 985
SWIDTH 500 0
DWIDTH 19 0
BBX 15 30 2 -11
BITMAP
07C0
1FF0
3FF8
3FF8
7F8C
7E04
FC04
F006
E006
E00E
C01E
C03E
C07C
C0FC
63FC
7FF8
3FF8
1FF0
0FC0
0100
0100
0300
0380
0380
0380
07C0
07C0
07C0
07C0
0380
ENDCHAR
STARTCHAR 03DA
ENCODING 986
SWIDTH 605 0
DWIDTH 23 0
BBX 22 28 2 1
BITMAP
07FE0C
1FFFF8
3FFFF8
7FFFF0
701FE0
6000E0
C00000
C00000
C00000
C00000
C00000
C00000
600000
700000
380000
1E0000
07FE00
00FE00
007E00
007E00
007E00
007E00
007E00
007E00
007E00
007E00
007E00
03FFC0
ENDCHAR
STARTCHAR 03DB
ENCODING 987
SWIDTH 500 0
DWIDTH 19 0
BBX 17 30 2 -7
BITMAP
000080
000080
000080
000180
01FF80
07FF00
0FFF00
1FFE00
3FFC00
600000
400000
400000
800000
800000
800000
800000
800000
C00000
E00000
7FE000
7FF000
3FF800
1FF800
001800
000800
000800
0E0800
0F1000
0FE000
07C000
ENDCHAR
STARTCHAR 03DC
ENCODING 988
SWIDTH 657 0
DWIDTH 25 0
BBX 22 28 2 0
BITMAP
FFFFFC
1F81FC
1F807C
1F803C
1F801C
1F801C
1F800C
1F800C
1F800C
1F800C
1F800C
1FFF00
1F8F00
1F8700
1F8300
1F8300
1F8100
1F8100
1F8100
1F8000
1F8000
1F8000
1F8000
1F8000
1F8000
1F8000
1F8000
FFFC00
ENDCHAR
STARTCHAR 03DD
ENCODING 989
SWIDTH 526 0
DWIDTH 20 0
BBX 20 30 -2 -11
BITMAP
00FFF0
01FFF0
01FFF0
01FFF0
010000
010000
010000
010000
010000
010000
01FFE0
01FFE0
01FFE0
01FFC0
010000
010000
010000
010000
010000
010000
010000
010000
010000
010000
710000
F10000
F90000
FF0000
7E0000
3C0000
ENDCHAR
STARTCHAR 03DE
ENCODING 990
SWIDTH 684 0
DWIDTH 26 0
BBX 23 28 2 1
BITMAP
7C0000
FE0000
FF0000
FF0000
F30000
E30000
030030
0200E0
0201E0
0607E0
061FE0
047FC0
05FFC0
0FFFC0
0FFFC0
0FFE80
0FF880
0FE180
1F8180
1F0100
1C0100
100300
00031C
00033E
0003FE
0003FE
0001FC
0000F8
ENDCHAR
STARTCHAR 03DF
ENCODING 991
SWIDTH 394 0
DWIDTH 15 0
BBX 14 35 0 -7
BITMAP
1C00
3E00
3F00
7F00
6700
8600
0200
0600
0400
0C00
0800
1800
1000
1FFC
3FFC
3FFC
3FFC
000C
0008
0018
0038
0030
0070
0070
00F0
00E0
01E0
01E0
03C0
03C0
07C0
07C0
0780
0780
0300
ENDCHAR
STARTCHAR 03E0
ENCODING 992
SWIDTH 763 0
DWIDTH 29 0
BBX 24 28 3 1
BITMAP
0FF000
1FFC00
3FFE00
7FFF00
60FF80
C03FC0
C01FE0
C00FF0
C00FF8
C013F8
C031FC
6063FC
2042FE
00C67E
018C3E
03081F
02181F
06300F
0C200F
186007
10C007
318F07
611F06
C31F06
861E0E
001C0C
000C18
0007F0
ENDCHAR
STARTCHAR 03E1
ENCODING 993
SWIDTH 526 0
DWIDTH 20 0
BBX 22 33 -3 -7
BITMAP
F80000
FF0000
FFC000
07E000
01F800
007C00
001E00
000F00
000780
000FC0
001FC0
007CE0
01F0E0
03E070
038070
0200F8
0003F8
0007F8
001F38
007C1C
00701C
00201C
00001C
00001C
00001C
00001C
00001C
000038
000038
000038
000030
000070
000070
ENDCHAR
STARTCHAR 03F0
ENCODING 1008
SWIDTH 526 0
DWIDTH 20 0
BBX 19 19 2 0
BITMAP
380600
7C0F00
FE1F00
FE1F00
FE1F00
863E00
827E00
02FC00
02F800
03F800
03E800
07C800
0FC820
3F8C60
3F0E60
7F0FE0
7E07C0
7C07C0
380380
ENDCHAR
STARTCHAR 03F1
ENCODING 1009
SWIDTH 500 0
DWIDTH 19 0
BBX 15 30 2 -11
BITMAP
03E0
0FF0
1FF8
3FFC
3F8C
7E04
7C06
7806
7006
600E
600E
401E
403E
40FC
61FC
7FF8
7FF8
5FF0
47C0
6000
6000
F000
F000
F800
F800
FC00
FC00
FC00
7C00
7800
ENDCHAR
STARTCHAR 03F2
ENCODING 1010
SWIDTH 447 0
DWIDTH 17 0
BBX 14 19 2 0
BITMAP
07E0
0E10
3C08
3C0C
7800
7800
F800
F800
F800
F800
F800
F800
F800
7800
7800
3C0C
3C08
0E10
07E0
ENDCHAR
STARTCHAR 03F3
ENCODING 1011
SWIDTH 342 0
DWIDTH 13 0
BBX 12 37 -2 -9
BITMAP
01E0
03F0
03F0
03F0
03F0
01E0
0000
0000
0000
0FE0
01E0
01E0
01E0
01E0
01E0
01E0
01E0
01E0
01E0
01E0
01E0
01E0
01E0
01E0
01E0
01E0
01E0
01E0
01E0
01E0
79E0
F9E0
F9E0
F1C0
E1C0
6380
1E00
ENDCHAR
STARTCHAR 03F4
ENCODING 1012
SWIDTH 710 0
DWIDTH 27 0
BBX 22 28 3 1
BITMAP
01FE00
030300
060180
0E01C0
1C00E0
3C00F0
3C00F0
7C00F8
7C00F8
7C00F8
FC00FC
FC00FC
FC00FC
FFFFFC
FC00FC
FC00FC
FC00FC
FC00FC
7C00F8
7C00F8
7C00F8
3C00F0
3C00F0
1C00E0
0E01C0
060180
030300
01FE00
ENDCHAR
STARTCHAR 03F5
ENCODING 1013
SWIDTH 447 0
DWIDTH 17 0
BBX 14 19 2 0
BITMAP
07E0
0E10
3C08
3C04
7800
7800
F800
F800
FFE0
F800
F800
F800
F800
7800
7800
3C0C
3C08
0E10
07E0
ENDCHAR
STARTCHAR 03F6
ENCODING 1014
SWIDTH 447 0
DWIDTH 17 0
BBX 14 19 1 0
BITMAP
1F80
21C0
40E0
80F0
0078
0078
007C
007C
1FFC
007C
007C
007C
007C
0078
0078
C0F0
40F0
21C0
1F80
ENDCHAR
STARTCHAR 03F9
ENCODING 1017
SWIDTH 631 0
DWIDTH 24 0
BBX 19 28 3 1
BITMAP
01FE00
070300
0E0180
1E00C0
3C0040
3C0020
7C0020
7C0000
7C0000
FC0000
FC0000
FC0000
FC0000
FC0000
FC0000
FC0000
FC0000
FC0000
FC0000
7C0000
7C0000
7C0020
3C0020
3C0060
1E00C0
0E0180
070300
01FE00
ENDCHAR
STARTCHAR 0400
ENCODING 1024
SWIDTH 684 0
DWIDTH 26 0
BBX 22 37 2 0
BITMAP
018000
01C000
01E000
00E000
007000
001800
000800
000000
000000
FFFFFC
0FC07C
0FC03C
0FC01C
0FC01C
0FC00C
0FC00C
0FC00C
0FC104
0FC100
0FC300
0FC300
0FC700
0FFF00
0FC700
0FC300
0FC300
0FC104
0FC104
0FC104
0FC00C
0FC00C
0FC00C
0FC01C
0FC01C
0FC03C
0FC0FC
FFFFFC
ENDCHAR
STARTCHAR 0401
ENCODING 1025
SWIDTH 684 0
DWIDTH 26 0
BBX 22 36 2 0
BITMAP
01C1C0
03E3E0
03E3E0
03E3E0
01C1C0
000000
000000
000000
FFFFFC
0FC07C
0FC03C
0FC01C
0FC01C
0FC00C
0FC00C
0FC004
0FC104
0FC100
0FC300
0FC300
0FC700
0FFF00
0FC700
0FC300
0FC300
0FC104
0FC104
0FC104
0FC004
0FC00C
0FC00C
0FC01C
0FC01C
0FC03C
0FC0FC
FFFFFC
ENDCHAR
STARTCHAR 0402
ENCODING 1026
SWIDTH 842 0
DWIDTH 32 0
BBX 29 28 2 0
BITMAP
FFFFFE00
F8FC3E00
E0FC1E00
C0FC0E00
C0FC0E00
80FC0600
80FC0600
80FC0600
80FC0600
80FC0600
00FC0000
00FC3E00
00FCFF80
00FF07E0
00FE03F0
00FC03F0
00FC01F0
00FC01F8
00FC01F8
00FC01F8
00FC01F8
00FC61F8
00FCF1F8
00FDF1F0
00FDF1F0
00FDE3E0
00FCE3C0
0FFC7F80
ENDCHAR
STARTCHAR 0403
ENCODING 1027
SWIDTH 631 0
DWIDTH 24 0
BBX 21 37 2 0
BITMAP
000380
000780
000780
000F00
001C00
001800
003000
000000
000000
FFFFF8
1F83F8
1F81F8
1F80F8
1F8078
1F8078
1F8038
1F8038
1F8018
1F8018
1F8018
1F8010
1F8000
1F8000
1F8000
1F8000
1F8000
1F8000
1F8000
1F8000
1F8000
1F8000
1F8000
1F8000
1F8000
1F8000
1F8000
FFFC00
ENDCHAR
STARTCHAR 0404
ENCODING 1028
SWIDTH 631 0
DWIDTH 24 0
BBX 20 28 2 1
BITMAP
03FC20
0F0760
1E03E0
1E01E0
3C00E0
7C00E0
7C0060
7C0060
FC0060
FC0020
FC0020
FC0000
FC0000
FFFE00
FC0000
FC0000
FC0000
FC03C0
7C07E0
7C07F0
7C07F0
7C07F0
3C03F0
1C01F0
1E00E0
0E00E0
0701C0
01EF00
ENDCHAR
STARTCHAR 0405
ENCODING 1029
SWIDTH 605 0
DWIDTH 23 0
BBX 18 29 3 0
BITMAP
010000
1FE180
303980
601F80
600F80
E00780
F00380
F00380
F80180
FE0180
FF0180
7FC000
7FE000
3FF800
1FFC00
07FF00
03FF00
80FF80
807F80
C01FC0
C00FC0
C007C0
E003C0
E001C0
F00180
F80180
F80300
CE0200
87BC00
ENDCHAR
STARTCHAR 0406
ENCODING 1030
SWIDTH 447 0
DWIDTH 17 0
BBX 13 28 2 0
BITMAP
FFF8
1F80
1F80
1F80
1F80
1F80
1F80
1F80
1F80
1F80
1F80
1F80
1F80
1F80
1F80
1F80
1F80
1F80
1F80
1F80
1F80
1F80
1F80
1F80
1F80
1F80
1F80
FFF8
ENDCHAR
STARTCHAR 0407
ENCODING 1031
SWIDTH 421 0
DWIDTH 16 0
BBX 13 36 2 0
BITMAP
7070
F8F8
F8F8
F8F8
7070
0000
0000
0000
FFF8
1F80
1F80
1F80
1F80
1F80
1F80
1F80
1F80
1F80
1F80
1F80
1F80
1F80
1F80
1F80
1F80
1F80
1F80
1F80
1F80
1F80
1F80
1F80
1F80
1F80
1F80
FFF8
ENDCHAR
STARTCHAR 0408
ENCODING 1032
SWIDTH 526 0
DWIDTH 20 0
BBX 18 28 1 0
BITMAP
07FFC0
007E00
007E00
007E00
007E00
007E00
007E00
007E00
007E00
007E00
007E00
007E00
007E00
007E00
007E00
007E00
007E00
107E00
7C7E00
FC7E00
FC7E00
FC7E00
F87E00
F07C00
E07C00
607800
20F000
1FE000
ENDCHAR
STARTCHAR 0409
ENCODING 1033
SWIDTH 1026 0
DWIDTH 39 0
BBX 37 28 1 0
BITMAP
03FFFFC000
00387E0000
00187E0000
00107E0000
00107E0000
00107E0000
00107E0000
00107E0000
00107E0000
00107E0000
00107E0000
00107E0000
00107FFE00
00107E0780
00307E03E0
00307E03F0
00207E01F0
00207E01F8
00207E01F8
38207E01F8
7C207E01F8
FC607E01F8
FC407E01F8
FC407E01F0
F8807E03F0
F9807E03E0
7F007E0780
3C03FFFE00
ENDCHAR
STARTCHAR 040A
ENCODING 1034
SWIDTH 1052 0
DWIDTH 40 0
BBX 37 28 2 0
BITMAP
FFFBFFE000
1F803F0000
1F803F0000
1F803F0000
1F803F0000
1F803F0000
1F803F0000
1F803F0000
1F803F0000
1F803F0000
1F803F0000
1F803F0000
1F803F0000
1FFFFFFF00
1F803F07C0
1F803F03E0
1F803F03F0
1F803F01F0
1F803F01F8
1F803F01F8
1F803F01F8
1F803F01F8
1F803F01F8
1F803F01F0
1F803F03F0
1F803F03E0
1F803F07C0
FFFBFFFE00
ENDCHAR
STARTCHAR 040B
ENCODING 1035
SWIDTH 894 0
DWIDTH 34 0
BBX 31 28 2 0
BITMAP
FFFFFE00
F8FC3E00
F0FC1E00
E0FC0E00
E0FC0600
C0FC0600
C0FC0200
C0FC0200
80FC0200
80FC0200
80FC0200
00FC0000
00FC0000
00FFFF00
00FC07C0
00FC03E0
00FC03F0
00FC03F0
00FC03F0
00FC03F0
00FC03F0
00FC03F0
00FC03F0
00FC03F0
00FC03F0
00FC03F0
00FC03F0
07FF9FFE
ENDCHAR
STARTCHAR 040C
ENCODING 1036
SWIDTH 736 0
DWIDTH 28 0
BBX 25 37 2 1
BITMAP
0001C000
0003C000
0003C000
00078000
000E0000
000C0000
00180000
00000000
00000000
FFF83E00
1F806E00
1F80CF00
1F809F00
1F80BF00
1F80BF00
1F80BE00
1F808800
1F808000
1F818000
1F810000
1F830000
1FFE0000
1F83C000
1F81E000
1F80F000
1F80F000
1F80F000
1F80F800
1F80F800
1F80F800
1F80F880
1F80F880
1F80F880
1F80F880
1F80F900
1F807900
FFF83E00
ENDCHAR
STARTCHAR 040D
ENCODING 1037
SWIDTH 815 0
DWIDTH 31 0
BBX 27 37 2 0
BITMAP
00C00000
00E00000
00F00000
00780000
00380000
000C0000
00040000
00000000
00000000
FFFBFFE0
1F803F00
1F803F00
1F803F00
1F807F00
1F807F00
1F80FF00
1F80BF00
1F81BF00
1F813F00
1F833F00
1F823F00
1F863F00
1F843F00
1F843F00
1F883F00
1F883F00
1F983F00
1F903F00
1FB03F00
1FA03F00
1FE03F00
1FC03F00
1FC03F00
1F803F00
1F803F00
1F803F00
FFFBFFE0
ENDCHAR
STARTCHAR 040E
ENCODING 1038
SWIDTH 789 0
DWIDTH 30 0
BBX 27 37 2 1
BITMAP
00F03800
01F07C00
01F03C00
01E03C00
01C01C00
00C01800
00603000
001FC000
00000000
FFFE7FE0
1FE00F00
0FE00E00
07E00E00
07F00C00
03F00C00
03F80800
01F81800
01FC1800
00FE1000
00FE3000
007F3000
007F2000
003FE000
003FC000
001FC000
001FC000
000F8000
000F8000
00078000
07870000
07C30000
0FC20000
0FC60000
0F860000
0F0C0000
07180000
03F00000
ENDCHAR
STARTCHAR 040F
ENCODING 1039
SWIDTH 815 0
DWIDTH 31 0
BBX 27 37 2 -9
BITMAP
FFFBFFE0
1F803F00
1F803F00
1F803F00
1F803F00
1F803F00
1F803F00
1F803F00
1F803F00
1F803F00
1F803F00
1F803F00
1F803F00
1F803F00
1F803F00
1F803F00
1F803F00
1F803F00
1F803F00
1F803F00
1F803F00
1F803F00
1F803F00
1F803F00
1F803F00
1F803F00
1F803F00
FFFFFFE0
00040000
000E0000
000E0000
000E0000
001E0000
001F0000
001F0000
001F0000
000E0000
ENDCHAR
STARTCHAR 0410
ENCODING 1040
SWIDTH 763 0
DWIDTH 29 0
BBX 26 29 2 0
BITMAP
00040000
00060000
000E0000
000E0000
000F0000
001F0000
001F0000
001F8000
003F8000
002F8000
002FC000
006FC000
004FC000
0047C000
00C7E000
0087E000
0083E000
0183F000
0103F000
0301F000
03FFF800
0201F800
0600F800
0600FC00
0400FC00
0C00FC00
0C007C00
1E00FE00
FFC7FFC0
ENDCHAR
STARTCHAR 0411
ENCODING 1041
SWIDTH 710 0
DWIDTH 27 0
BBX 22 28 3 0
BITMAP
FFFFF0
1F81F0
1F80F0
1F8070
1F8070
1F8030
1F8030
1F8030
1F8030
1F8010
1F8000
1F8000
1F8000
1FFF80
1F83E0
1F81F0
1F80F8
1F80F8
1F80FC
1F80FC
1F80FC
1F80FC
1F80FC
1F80F8
1F81F8
1F81F0
1F83E0
FFFF00
ENDCHAR
STARTCHAR 0412
ENCODING 1042
SWIDTH 710 0
DWIDTH 27 0
BBX 22 28 3 0
BITMAP
FFFF00
1F83C0
1F83E0
1F81F0
1F81F8
1F81F8
1F81F8
1F81F8
1F81F8
1F81F0
1F81F0
1F83C0
1F8380
1FFC00
1F8380
1F81E0
1F80F0
1F80F8
1F80FC
1F80FC
1F80FC
1F80FC
1F80FC
1F80F8
1F80F8
1F81F0
1F83E0
FFFF80
ENDCHAR
STARTCHAR 0413
ENCODING 1043
SWIDTH 631 0
DWIDTH 24 0
BBX 21 28 2 0
BITMAP
FFFFF8
1F83F8
1F81F8
1F80F8
1F8078
1F8078
1F8038
1F8038
1F8018
1F8018
1F8018
1F8010
1F8000
1F8000
1F8000
1F8000
1F8000
1F8000
1F8000
1F8000
1F8000
1F8000
1F8000
1F8000
1F8000
1F8000
1F8000
FFFC00
ENDCHAR
STARTCHAR 0414
ENCODING 1044
SWIDTH 710 0
DWIDTH 27 0
BBX 25 36 1 -8
BITMAP
0FFFFF00
00E1F800
00C1F800
00C1F800
00C1F800
00C1F800
00C1F800
00C1F800
00C1F800
00C1F800
00C1F800
00C1F800
0081F800
0081F800
0181F800
0181F800
0181F800
0181F800
0181F800
0101F800
0301F800
0301F800
0301F800
0601F800
0601F800
0601F800
0E01F800
FFFFFF80
F8000F80
F0000780
E0000380
C0000180
C0000180
C0000180
80000080
80000080
ENDCHAR
STARTCHAR 0415
ENCODING 1045
SWIDTH 684 0
DWIDTH 26 0
BBX 22 28 2 0
BITMAP
FFFFFC
0FC07C
0FC03C
0FC01C
0FC01C
0FC00C
0FC00C
0FC00C
0FC104
0FC100
0FC300
0FC300
0FC700
0FFF00
0FC700
0FC300
0FC300
0FC104
0FC104
0FC104
0FC00C
0FC00C
0FC00C
0FC01C
0FC01C
0FC03C
0FC0FC
FFFFFC
ENDCHAR
STARTCHAR 0416
ENCODING 1046
SWIDTH 1000 0
DWIDTH 38 0
BBX 35 28 2 1
BITMAP
3E1FFF0F80
7B01F81B80
7901F833C0
7C81F827C0
7E81F82FC0
7E81F82FC0
3E81F82F80
0881F82200
0081F82000
0081F82000
00C1F84000
0061F8C000
003FFF8000
01E1F87000
0381F87800
0781F83C00
0781F83C00
0F81F83E00
0F81F83E00
0F81F83E00
0F81F83E00
8F81F83E20
8F81F83E20
8F81F83E20
8F81F83E20
4F01F83E40
4F01F81E40
3E1FFF0F80
ENDCHAR
STARTCHAR 0417
ENCODING 1047
SWIDTH 657 0
DWIDTH 25 0
BBX 20 28 3 1
BITMAP
43FE00
6E0F80
7C07C0
7807C0
7007E0
7007E0
6007E0
6007E0
6007E0
6007C0
400F80
001F00
07FC00
001F00
000FC0
0007C0
3C07E0
7E07F0
7F07F0
FF07F0
FF07F0
FE07F0
FC07F0
F807E0
7007E0
300FC0
181F80
0F7E00
ENDCHAR
STARTCHAR 0418
ENCODING 1048
SWIDTH 815 0
DWIDTH 31 0
BBX 27 28 2 0
BITMAP
FFFBFFE0
1F803F00
1F803F00
1F803F00
1F807F00
1F807F00
1F80FF00
1F80BF00
1F81BF00
1F813F00
1F833F00
1F823F00
1F863F00
1F843F00
1F843F00
1F883F00
1F883F00
1F983F00
1F903F00
1FB03F00
1FA03F00
1FE03F00
1FC03F00
1FC03F00
1F803F00
1F803F00
1F803F00
FFFBFFE0
ENDCHAR
STARTCHAR 0419
ENCODING 1049
SWIDTH 815 0
DWIDTH 31 0
BBX 27 37 2 0
BITMAP
01C07000
01E0F800
03E0F800
03C07800
03803800
01803000
00C06000
003F8000
00000000
FFFBFFE0
1F803F00
1F803F00
1F803F00
1F807F00
1F807F00
1F80FF00
1F80BF00
1F81BF00
1F813F00
1F813F00
1F823F00
1F823F00
1F863F00
1F843F00
1F8C3F00
1F883F00
1F983F00
1F903F00
1FB03F00
1FA03F00
1FE03F00
1FC03F00
1FC03F00
1F803F00
1F803F00
1F803F00
FFFBFFE0
ENDCHAR
STARTCHAR 041A
ENCODING 1050
SWIDTH 736 0
DWIDTH 28 0
BBX 25 28 2 1
BITMAP
FFF83E00
1F806E00
1F80CF00
1F809F00
1F80BF00
1F80BF00
1F80BE00
1F808800
1F808000
1F818000
1F810000
1F830000
1FFE0000
1F83C000
1F81E000
1F80F000
1F80F000
1F80F000
1F80F800
1F80F800
1F80F800
1F80F880
1F80F880
1F80F880
1F80F880
1F80F900
1F807900
FFF83E00
ENDCHAR
STARTCHAR 041B
ENCODING 1051
SWIDTH 763 0
DWIDTH 29 0
BBX 26 28 1 0
BITMAP
03FFFFC0
00387E00
00187E00
00107E00
00107E00
00107E00
00107E00
00107E00
00107E00
00107E00
00107E00
00107E00
00107E00
00107E00
00307E00
00307E00
00207E00
00207E00
00207E00
38207E00
7C207E00
FC607E00
FC407E00
FC407E00
F8807E00
F9807E00
7F007E00
3C03FFC0
ENDCHAR
STARTCHAR 041C
ENCODING 1052
SWIDTH 894 0
DWIDTH 34 0
BBX 31 28 2 0
BITMAP
FF800FFE
0F800FE0
0FC00FE0
0FC00FE0
0FC00FE0
0FE017E0
0FE017E0
0FF017E0
0DF017E0
0DF027E0
0DF827E0
0CF827E0
0CF827E0
0CFC47E0
0C7C47E0
0C7C47E0
0C7E47E0
0C3E87E0
0C3F87E0
0C3F87E0
0C1F87E0
0C1F07E0
0C1F07E0
0C0F07E0
0C0F07E0
1C0E07E0
3E0607E0
FF863FFE
ENDCHAR
STARTCHAR 041D
ENCODING 1053
SWIDTH 815 0
DWIDTH 31 0
BBX 27 28 2 0
BITMAP
FFFBFFE0
1F803F00
1F803F00
1F803F00
1F803F00
1F803F00
1F803F00
1F803F00
1F803F00
1F803F00
1F803F00
1F803F00
1F803F00
1FFFFF00
1F803F00
1F803F00
1F803F00
1F803F00
1F803F00
1F803F00
1F803F00
1F803F00
1F803F00
1F803F00
1F803F00
1F803F00
1F803F00
FFFBFFE0
ENDCHAR
STARTCHAR 041E
ENCODING 1054
SWIDTH 710 0
DWIDTH 27 0
BBX 22 28 3 1
BITMAP
01FE00
030300
060180
0E01C0
1C00E0
3C00F0
3C00F0
7C00F8
7C00F8
7C00F8
FC00FC
FC00FC
FC00FC
FC00FC
FC00FC
FC00FC
FC00FC
FC00FC
7C00F8
7C00F8
7C00F8
3C00F0
3C00F0
1C00E0
0E01C0
060180
030300
01FE00
ENDCHAR
STARTCHAR 041F
ENCODING 1055
SWIDTH 815 0
DWIDTH 31 0
BBX 27 28 2 0
BITMAP
FFFFFFE0
1F803F00
1F803F00
1F803F00
1F803F00
1F803F00
1F803F00
1F803F00
1F803F00
1F803F00
1F803F00
1F803F00
1F803F00
1F803F00
1F803F00
1F803F00
1F803F00
1F803F00
1F803F00
1F803F00
1F803F00
1F803F00
1F803F00
1F803F00
1F803F00
1F803F00
1F803F00
FFFBFFE0
ENDCHAR
STARTCHAR 0420
ENCODING 1056
SWIDTH 710 0
DWIDTH 27 0
BBX 23 28 2 0
BITMAP
FFFF80
1F81F0
1F80F8
1F80FC
1F807C
1F807E
1F807E
1F807E
1F807E
1F807E
1F807C
1F80FC
1F80F8
1F81E0
1FFF80
1F8000
1F8000
1F8000
1F8000
1F8000
1F8000
1F8000
1F8000
1F8000
1F8000
1F8000
1F8000
FFF800
ENDCHAR
STARTCHAR 0421
ENCODING 1057
SWIDTH 684 0
DWIDTH 26 0
BBX 21 28 3 1
BITMAP
01FE30
070330
0E01F0
1E00F0
3C00F0
3C0070
7C0070
7C0030
7C0030
FC0030
FC0030
FC0010
FC0000
FC0000
FC0000
FC0000
FC0000
FC0018
FC0018
7C0010
7C0010
7C0010
3C0030
3C0020
1E0060
0E00C0
070180
01FE00
ENDCHAR
STARTCHAR 0422
ENCODING 1058
SWIDTH 710 0
DWIDTH 27 0
BBX 24 28 2 0
BITMAP
FFFFFF
FC7E3F
F87E1F
F07E0F
E07E0F
E07E07
C07E07
C07E03
C07E03
C07E03
807E03
807E02
007E00
007E00
007E00
007E00
007E00
007E00
007E00
007E00
007E00
007E00
007E00
007E00
007E00
007E00
007E00
07FFE0
ENDCHAR
STARTCHAR 0423
ENCODING 1059
SWIDTH 789 0
DWIDTH 30 0
BBX 27 28 2 0
BITMAP
FFFE7FE0
1FE00F00
0FE00600
07E00600
07F00400
03F00C00
03F80800
01F80800
01FC1800
00FE1000
00FE1000
007F3000
007F2000
003FE000
003FC000
001FC000
001FC000
000F8000
000F8000
00078000
07870000
07C30000
0FC20000
0FC60000
0F860000
0F8C0000
07180000
03F00000
ENDCHAR
STARTCHAR 0424
ENCODING 1060
SWIDTH 842 0
DWIDTH 32 0
BBX 29 28 2 0
BITMAP
007FF800
000FC000
000FC000
000FC000
000FC000
01FFFE00
0F8FC780
1E0FC3C0
3E0FC3E0
7C0FC1F0
7C0FC1F0
FC0FC1F8
FC0FC1F8
FC0FC1F8
FC0FC1F8
FC0FC1F8
FC0FC1F8
7C0FC1F0
7C0FC1F0
3E0FC3E0
1E0FC3C0
0F8FC780
01FFFE00
000FC000
000FC000
000FC000
000FC000
007FF800
ENDCHAR
STARTCHAR 0425
ENCODING 1061
SWIDTH 763 0
DWIDTH 29 0
BBX 26 28 2 0
BITMAP
FFF1FF80
1FE07C00
0FE03800
0FE03000
07F06000
07F06000
03F8C000
03F88000
01FD8000
00FF0000
00FE0000
007E0000
007F0000
003F0000
003F8000
001F8000
003FC000
006FC000
004FE000
00C7E000
0187F000
0183F000
0303F800
0201F800
0601FC00
0E00FC00
1E01FE00
FFC7FFC0
ENDCHAR
STARTCHAR 0426
ENCODING 1062
SWIDTH 815 0
DWIDTH 31 0
BBX 28 36 2 -8
BITMAP
FFFBFFE0
1F803F00
1F803F00
1F803F00
1F803F00
1F803F00
1F803F00
1F803F00
1F803F00
1F803F00
1F803F00
1F803F00
1F803F00
1F803F00
1F803F00
1F803F00
1F803F00
1F803F00
1F803F00
1F803F00
1F803F00
1F803F00
1F803F00
1F803F00
1F803F00
1F803F00
1F803F00
FFFFFFF0
000001F0
000000F0
00000070
00000070
00000030
00000030
00000030
00000010
ENDCHAR
STARTCHAR 0427
ENCODING 1063
SWIDTH 789 0
DWIDTH 30 0
BBX 26 28 2 0
BITMAP
FFF3FFC0
1F807E00
1F807E00
1F807E00
1F807E00
1F807E00
1F807E00
1F807E00
1F807E00
1F807E00
1F807E00
1F807E00
0F807E00
0F807E00
07C07E00
01FFFE00
00007E00
00007E00
00007E00
00007E00
00007E00
00007E00
00007E00
00007E00
00007E00
00007E00
00007E00
0007FFC0
ENDCHAR
STARTCHAR 0428
ENCODING 1064
SWIDTH 1157 0
DWIDTH 44 0
BBX 40 28 2 0
BITMAP
FFF3FFCFFF
1F807E01F8
1F807E01F8
1F807E01F8
1F807E01F8
1F807E01F8
1F807E01F8
1F807E01F8
1F807E01F8
1F807E01F8
1F807E01F8
1F807E01F8
1F807E01F8
1F807E01F8
1F807E01F8
1F807E01F8
1F807E01F8
1F807E01F8
1F807E01F8
1F807E01F8
1F807E01F8
1F807E01F8
1F807E01F8
1F807E01F8
1F807E01F8
1F807E01F8
1F807E01F8
FFFFFFFFFF
ENDCHAR
STARTCHAR 0429
ENCODING 1065
SWIDTH 1131 0
DWIDTH 43 0
BBX 40 36 2 -8
BITMAP
FFF3FFDFFE
1F807E03F0
1F807E03F0
1F807E03F0
1F807E03F0
1F807E03F0
1F807E03F0
1F807E03F0
1F807E03F0
1F807E03F0
1F807E03F0
1F807E03F0
1F807E03F0
1F807E03F0
1F807E03F0
1F807E03F0
1F807E03F0
1F807E03F0
1F807E03F0
1F807E03F0
1F807E03F0
1F807E03F0
1F807E03F0
1F807E03F0
1F807E03F0
1F807E03F0
1F807E03F0
FFFFFFFFFF
000000001F
000000000F
0000000007
0000000007
0000000003
0000000003
0000000003
0000000001
ENDCHAR
STARTCHAR 042A
ENCODING 1066
SWIDTH 868 0
DWIDTH 33 0
BBX 30 28 2 0
BITMAP
FFFFF800
FC1F8000
F81F8000
F01F8000
F01F8000
E01F8000
E01F8000
C01F8000
C01F8000
C01F8000
801F8000
801F8000
001FFF80
001F83E0
001F81F0
001F81F8
001F80F8
001F80FC
001F80FC
001F80FC
001F80FC
001F80FC
001F80FC
001F80F8
001F81F8
001F81F0
001F83E0
01FFFF00
ENDCHAR
STARTCHAR 042B
ENCODING 1067
SWIDTH 1000 0
DWIDTH 38 0
BBX 34 28 2 0
BITMAP
FFF807FFC0
1F80007E00
1F80007E00
1F80007E00
1F80007E00
1F80007E00
1F80007E00
1F80007E00
1F80007E00
1F80007E00
1F80007E00
1F80007E00
1FFF007E00
1F83C07E00
1F81F07E00
1F81F07E00
1F80F87E00
1F80FC7E00
1F80FC7E00
1F80FC7E00
1F80FC7E00
1F80FC7E00
1F80FC7E00
1F80F87E00
1F81F87E00
1F81F07E00
1F83E07E00
FFFF07FFC0
ENDCHAR
STARTCHAR 042C
ENCODING 1068
SWIDTH 684 0
DWIDTH 26 0
BBX 23 28 2 0
BITMAP
FFF800
1F8000
1F8000
1F8000
1F8000
1F8000
1F8000
1F8000
1F8000
1F8000
1F8000
1F8000
1FFF80
1F81E0
1F80F8
1F80FC
1F807C
1F807E
1F807E
1F807E
1F807E
1F807E
1F807E
1F807C
1F80FC
1F80F8
1F81E0
FFFF80
ENDCHAR
STARTCHAR 042D
ENCODING 1069
SWIDTH 657 0
DWIDTH 25 0
BBX 20 28 3 1
BITMAP
43FC00
6E0F00
7C0780
780780
7003C0
7003E0
6003E0
6003E0
6003E0
4003F0
4003F0
0003F0
0003F0
07FFF0
0003F0
0003F0
0003F0
3C03F0
7E03E0
FE03E0
FE03E0
FE03E0
FC03C0
F80780
700780
700700
380E00
0FF800
ENDCHAR
STARTCHAR 042E
ENCODING 1070
SWIDTH 1000 0
DWIDTH 38 0
BBX 34 29 2 0
BITMAP
0000010000
FFF81EE000
1F80383800
1F80701C00
1F80F01E00
1F81E00F00
1F81E00F00
1F83E00F80
1F83E00F80
1F83E00F80
1F87E00FC0
1F87E00FC0
1F87E00FC0
1F87E00FC0
1FFFE00FC0
1F87E00FC0
1F87E00FC0
1F87E00FC0
1F87E00FC0
1F87E00FC0
1F83E00F80
1F83E00F80
1F83E00F80
1F81E00F00
1F81E00F00
1F80F01E00
1F80701C00
1F80383800
FFF81FE000
ENDCHAR
STARTCHAR 042F
ENCODING 1071
SWIDTH 736 0
DWIDTH 28 0
BBX 25 28 1 0
BITMAP
007FFF80
03E1F800
07C1F800
0F81F800
0F81F800
1F81F800
1F81F800
1F81F800
1F81F800
1F81F800
0F81F800
07C1F800
01E1F800
003FF800
00E1F800
03E1F800
07C1F800
07C1F800
0FC1F800
0FC1F800
0FC1F800
8FC1F800
8FC1F800
8FC1F800
8FC1F800
4FC1F800
4F81F800
3F0FFF80
ENDCHAR
STARTCHAR 0430
ENCODING 1072
SWIDTH 526 0
DWIDTH 20 0
BBX 17 19 2 0
BITMAP
0FC000
18F000
307800
707800
7C7C00
7C7C00
7C7C00
00FC00
077C00
1C7C00
387C00
787C00
F87C00
F87C80
F87C80
F87C80
FCFD80
7FBF00
3E1E00
ENDCHAR
STARTCHAR 0431
ENCODING 1073
SWIDTH 500 0
DWIDTH 19 0
BBX 15 28 2 0
BITMAP
0004
000C
00FC
03FC
0FF8
1FF0
3E00
7000
6000
C7C0
DC60
9878
B838
F83C
F83C
F83E
F83E
F83E
F83E
F83E
F83E
F83E
783C
783C
3838
3878
1C70
07C0
ENDCHAR
STARTCHAR 0432
ENCODING 1074
SWIDTH 526 0
DWIDTH 20 0
BBX 16 19 2 0
BITMAP
FFF0
3E7C
3E3C
3E3E
3E3E
3E3E
3E3E
3E3C
3E70
3FC0
3E3C
3E1E
3E1E
3E1F
3E1F
3E1F
3E1E
3E3C
FFF8
ENDCHAR
STARTCHAR 0433
ENCODING 1075
SWIDTH 447 0
DWIDTH 17 0
BBX 14 19 2 0
BITMAP
FFFC
3E3C
3E1C
3E1C
3E0C
3E0C
3E0C
3E04
3E00
3E00
3E00
3E00
3E00
3E00
3E00
3E00
3E00
3E00
FF80
ENDCHAR
STARTCHAR 0434
ENCODING 1076
SWIDTH 526 0
DWIDTH 20 0
BBX 18 25 1 -6
BITMAP
1FFF80
063E00
043E00
043E00
043E00
043E00
043E00
043E00
043E00
043E00
0C3E00
083E00
083E00
083E00
083E00
183E00
103E00
103E00
FFFFC0
F003C0
E001C0
C000C0
C000C0
800040
800040
ENDCHAR
STARTCHAR 0435
ENCODING 1077
SWIDTH 473 0
DWIDTH 18 0
BBX 14 19 2 0
BITMAP
07C0
1CE0
3870
3878
7878
787C
F87C
F87C
F87C
FFFC
F800
F800
F800
7804
7804
3808
3C08
1E10
07E0
ENDCHAR
STARTCHAR 0436
ENCODING 1078
SWIDTH 736 0
DWIDTH 28 0
BBX 26 19 1 0
BITMAP
38FF8F00
7C3E1F80
723E2780
7A3E2F80
7A3E2F80
323E2200
023E2000
023E2000
023E2000
03FFE000
0F3E7800
1E3E3C00
1E3E3C00
1E3E3C00
9E3E3C40
9E3E3C40
9E3E3CC0
7C3E1F80
78FF8F00
ENDCHAR
STARTCHAR 0437
ENCODING 1079
SWIDTH 421 0
DWIDTH 16 0
BBX 13 19 2 0
BITMAP
CFC0
F1F0
E0F0
E0F8
C0F8
C0F8
C0F0
01C0
1F00
01E0
00F0
30F8
F8F8
F8F8
F0F8
E0F8
60F0
71E0
1F80
ENDCHAR
STARTCHAR 0438
ENCODING 1080
SWIDTH 578 0
DWIDTH 22 0
BBX 19 19 2 0
BITMAP
FF3FE0
3E0F80
3E0F80
3E1F80
3E1F80
3E1F80
3E2F80
3E2F80
3E4F80
3E4F80
3ECF80
3E8F80
3E8F80
3F0F80
3F0F80
3E0F80
3E0F80
3E0F80
FF3FE0
ENDCHAR
STARTCHAR 0439
ENCODING 1081
SWIDTH 578 0
DWIDTH 22 0
BBX 19 27 2 0
BITMAP
061800
0F1C00
0E1C00
0C0C00
061800
03F000
000000
000000
FF3FE0
3C0F80
3C0F80
3C1F80
3C1F80
3C3F80
3C2F80
3C6F80
3C4F80
3CCF80
3C8F80
3D8F80
3D0F80
3D0F80
3E0F80
3E0F80
3C0F80
3C0F80
FF3FE0
ENDCHAR
STARTCHAR 043A
ENCODING 1082
SWIDTH 552 0
DWIDTH 21 0
BBX 18 19 2 0
BITMAP
FF0F00
3E1F80
3E2780
3E2F80
3E2F80
3E2200
3E2000
3E2000
3E2000
3FE000
3E7800
3E3C00
3E3C00
3E3C00
3E3C40
3E3C40
3E3CC0
3E1F80
FF0F00
ENDCHAR
STARTCHAR 043B
ENCODING 1083
SWIDTH 526 0
DWIDTH 20 0
BBX 17 19 1 0
BITMAP
0FFF80
033E00
023E00
023E00
023E00
023E00
023E00
023E00
023E00
023E00
023E00
023E00
023E00
623E00
F23E00
F63E00
E43E00
EC3E00
78FF80
ENDCHAR
STARTCHAR 043C
ENCODING 1084
SWIDTH 657 0
DWIDTH 25 0
BBX 21 19 2 0
BITMAP
FC03F8
3C07E0
3E07E0
3E07E0
3E07E0
3F0BE0
2F0BE0
2F0BE0
2F9BE0
2793E0
27D3E0
23D3E0
23E3E0
23E3E0
21E3E0
21E3E0
21C3E0
70C3E0
F8CFF8
ENDCHAR
STARTCHAR 043D
ENCODING 1085
SWIDTH 578 0
DWIDTH 22 0
BBX 19 19 2 0
BITMAP
FFBFE0
3E0F80
3E0F80
3E0F80
3E0F80
3E0F80
3E0F80
3E0F80
3E0F80
3FFF80
3E0F80
3E0F80
3E0F80
3E0F80
3E0F80
3E0F80
3E0F80
3E0F80
FFBFE0
ENDCHAR
STARTCHAR 043E
ENCODING 1086
SWIDTH 526 0
DWIDTH 20 0
BBX 16 19 2 0
BITMAP
07C0
0C70
1C38
383C
781E
781E
F81E
F81F
F81F
F81F
F81F
F81F
F81E
781E
781E
383C
1C38
0C70
07C0
ENDCHAR
STARTCHAR 043F
ENCODING 1087
SWIDTH 578 0
DWIDTH 22 0
BBX 19 19 2 0
BITMAP
FFFFE0
3E0F80
3E0F80
3E0F80
3E0F80
3E0F80
3E0F80
3E0F80
3E0F80
3E0F80
3E0F80
3E0F80
3E0F80
3E0F80
3E0F80
3E0F80
3E0F80
3E0F80
FFBFE0
ENDCHAR
STARTCHAR 0440
ENCODING 1088
SWIDTH 552 0
DWIDTH 21 0
BBX 18 28 1 -9
BITMAP
FF3C00
1F4E00
1F8F00
1F8780
1F0780
1F0780
1F07C0
1F07C0
1F07C0
1F07C0
1F07C0
1F07C0
1F07C0
1F0780
1F0780
1F8780
1F8F00
1F4E00
1F3C00
1F0000
1F0000
1F0000
1F0000
1F0000
1F0000
1F0000
1F0000
FFC000
ENDCHAR
STARTCHAR 0441
ENCODING 1089
SWIDTH 473 0
DWIDTH 18 0
BBX 14 19 2 0
BITMAP
07E0
0E30
3C18
3C1C
783C
787C
F87C
F878
F830
F800
F800
F800
F800
7804
7804
3804
1C08
0E10
07E0
ENDCHAR
STARTCHAR 0442
ENCODING 1090
SWIDTH 473 0
DWIDTH 18 0
BBX 15 19 2 0
BITMAP
FFFE
E7CE
C7CE
C7C6
87C6
87C2
87C2
07C2
07C0
07C0
07C0
07C0
07C0
07C0
07C0
07C0
07C0
07C0
3FF0
ENDCHAR
STARTCHAR 0443
ENCODING 1091
SWIDTH 526 0
DWIDTH 20 0
BBX 19 28 0 -9
BITMAP
FFCFE0
3F0380
1F0300
1F0200
0F0200
0F8200
0F8200
07C400
07C400
03C400
03E800
03E800
01F800
01F800
00F000
00F000
007000
006000
006000
002000
004000
0C4000
1E4000
3E4000
3E8000
3C8000
1D0000
0E0000
ENDCHAR
STARTCHAR 0444
ENCODING 1092
SWIDTH 736 0
DWIDTH 28 0
BBX 24 36 2 -9
BITMAP
010100
008200
004600
006C00
006C00
007C00
007C00
007C00
0E7CF0
1D7D38
38FE1C
787E1E
787C1E
F87C1E
F87C1F
F87C1F
F87C1F
F87C1F
F87C1F
F87C1F
F87C1F
F87C1E
787C1E
787C1E
38FE1C
1CFF38
0F7CF0
007C00
007C00
007C00
007C00
006C00
006C00
004600
008200
010100
ENDCHAR
STARTCHAR 0445
ENCODING 1093
SWIDTH 526 0
DWIDTH 20 0
BBX 18 19 1 0
BITMAP
FF3F80
7E0E00
3E0C00
1F0800
1F1000
0FB000
0FA000
07C000
03C000
03E000
01F000
03F000
02F800
04F800
0C7C00
087E00
183E00
383F00
FE7FC0
ENDCHAR
STARTCHAR 0446
ENCODING 1094
SWIDTH 578 0
DWIDTH 22 0
BBX 20 25 2 -6
BITMAP
FFBFC0
3E0F80
3E0F80
3E0F80
3E0F80
3E0F80
3E0F80
3E0F80
3E0F80
3E0F80
3E0F80
3E0F80
3E0F80
3E0F80
3E0F80
3E0F80
3E0F80
3E0F80
FFFFF0
0000F0
000070
000030
000030
000030
000010
ENDCHAR
STARTCHAR 0447
ENCODING 1095
SWIDTH 526 0
DWIDTH 20 0
BBX 18 19 1 0
BITMAP
FF7FC0
3E1F00
3E1F00
3E1F00
3E1F00
3E1F00
3E1F00
3E1F00
3E1F00
3E1F00
1E1F00
0FFF00
001F00
001F00
001F00
001F00
001F00
001F00
007FC0
ENDCHAR
STARTCHAR 0448
ENCODING 1096
SWIDTH 815 0
DWIDTH 31 0
BBX 27 19 2 0
BITMAP
FF3FDFE0
3E1F0F80
3E1F0F80
3E1F0F80
3E1F0F80
3E1F0F80
3E1F0F80
3E1F0F80
3E1F0F80
3E1F0F80
3E1F0F80
3E1F0F80
3E1F0F80
3E1F0F80
3E1F0F80
3E1F0F80
3E1F0F80
3E1F0F80
FFFFFFE0
ENDCHAR
STARTCHAR 0449
ENCODING 1097
SWIDTH 815 0
DWIDTH 31 0
BBX 29 25 2 -6
BITMAP
FF3FDFE0
3E1F07C0
3E1F07C0
3E1F07C0
3E1F07C0
3E1F07C0
3E1F07C0
3E1F07C0
3E1F07C0
3E1F07C0
3E1F07C0
3E1F07C0
3E1F07C0
3E1F07C0
3E1F07C0
3E1F07C0
3E1F07C0
3E1F07C0
FFFFFFF8
00000078
00000038
00000018
00000018
00000018
00000008
ENDCHAR
STARTCHAR 044A
ENCODING 1098
SWIDTH 578 0
DWIDTH 22 0
BBX 20 19 1 0
BITMAP
FFF800
E3E000
E3E000
C3E000
C3E000
83E000
83E000
83E000
03E000
03FF80
03E3C0
03E1E0
03E1F0
03E1F0
03E1F0
03E1F0
03E1E0
03E3C0
0FFF80
ENDCHAR
STARTCHAR 044B
ENCODING 1099
SWIDTH 710 0
DWIDTH 27 0
BBX 23 19 2 0
BITMAP
FF03FE
3E00F8
3E00F8
3E00F8
3E00F8
3E00F8
3E00F8
3E00F8
3E00F8
3FF0F8
3E7CF8
3E3CF8
3E3EF8
3E3EF8
3E3EF8
3E3EF8
3E3CF8
3E78F8
FFF3FE
ENDCHAR
STARTCHAR 044C
ENCODING 1100
SWIDTH 500 0
DWIDTH 19 0
BBX 16 19 2 0
BITMAP
FF80
3E00
3E00
3E00
3E00
3E00
3E00
3E00
3E00
3FF8
3E3C
3E1E
3E1F
3E1F
3E1F
3E1F
3E1E
3E3C
FFF8
ENDCHAR
STARTCHAR 044D
ENCODING 1101
SWIDTH 473 0
DWIDTH 18 0
BBX 14 19 2 0
BITMAP
CF80
F8E0
F0F0
E078
C078
C078
C07C
007C
1FFC
007C
007C
307C
F87C
F878
F078
E070
60F0
61C0
1F80
ENDCHAR
STARTCHAR 044E
ENCODING 1102
SWIDTH 736 0
DWIDTH 28 0
BBX 24 19 2 0
BITMAP
FF07C0
3E0C70
3E1C38
3E383C
3E781E
3E781E
3EF81E
3EF81F
3EF81F
3FF81F
3EF81F
3EF81F
3EF81E
3E781E
3E781E
3E383C
3E1C38
3E0C70
FF07C0
ENDCHAR
STARTCHAR 044F
ENCODING 1103
SWIDTH 552 0
DWIDTH 21 0
BBX 18 19 1 0
BITMAP
03FFC0
0F1F00
1E1F00
3E1F00
3E1F00
3E1F00
3E1F00
1E1F00
0F1F00
01FF00
079F00
0F1F00
1F1F00
1F1F00
9F1F00
9F1F00
9F1F00
9E1F00
7E7FC0
ENDCHAR
STARTCHAR 0450
ENCODING 1104
SWIDTH 473 0
DWIDTH 18 0
BBX 14 28 2 0
BITMAP
3800
3800
3C00
1E00
0E00
0700
0100
0000
0000
07C0
1CE0
3870
3878
7878
787C
F87C
F87C
F87C
FFFC
F800
F800
F804
7804
7804
3808
3C18
1E30
07C0
ENDCHAR
STARTCHAR 0451
ENCODING 1105
SWIDTH 473 0
DWIDTH 18 0
BBX 14 27 2 0
BITMAP
3870
7CF8
7CF8
7CF8
3870
0000
0000
0000
07C0
1CE0
3870
3878
7878
787C
F87C
F87C
F87C
FFFC
F800
F800
F800
7804
780C
3808
3C18
1E30
07C0
ENDCHAR
STARTCHAR 0452
ENCODING 1106
SWIDTH 526 0
DWIDTH 20 0
BBX 17 36 1 -9
BITMAP
418000
630000
320000
360000
360000
3E0000
3E0000
3E0000
FFF800
3E0000
3E0000
3E0000
3E0000
3E0000
3EF800
3F1E00
3E0F00
3E0F00
3E0F80
3E0F80
3E0F80
3E0F80
3E0F80
3E0F80
3E0F00
3E0F00
FF8F00
001E00
001E00
001C00
003800
003800
007000
00E000
01C000
010000
ENDCHAR
STARTCHAR 0453
ENCODING 1107
SWIDTH 447 0
DWIDTH 17 0
BBX 14 28 2 0
BITMAP
0030
0070
00F0
00E0
01C0
0380
0200
0000
0000
FFFC
3E3C
3E1C
3E1C
3E0C
3E0C
3E04
3E04
3E00
3E00
3E00
3E00
3E00
3E00
3E00
3E00
3E00
3E00
FF80
ENDCHAR
STARTCHAR 0454
ENCODING 1108
SWIDTH 473 0
DWIDTH 18 0
BBX 14 19 2 0
BITMAP
0FC8
1C68
3838
7818
7808
F808
F808
F800
FFE0
F800
F800
F830
F878
787C
787C
381C
3C18
1C30
07E0
ENDCHAR
STARTCHAR 0455
ENCODING 1109
SWIDTH 421 0
DWIDTH 16 0
BBX 13 19 2 0
BITMAP
1F10
61D0
6070
E030
E030
F010
F800
7E00
7F80
3FE0
0FF0
87F0
C1F8
C078
E038
E018
F010
9C30
87C0
ENDCHAR
STARTCHAR 0456
ENCODING 1110
SWIDTH 315 0
DWIDTH 12 0
BBX 8 28 2 1
BITMAP
3C
7E
7E
7E
3C
00
00
00
00
FC
7C
7C
7C
7C
7C
7C
7C
7C
7C
7C
7C
7C
7C
7C
7C
7C
7C
FF
ENDCHAR
STARTCHAR 0457
ENCODING 1111
SWIDTH 315 0
DWIDTH 12 0
BBX 11 27 1 0
BITMAP
71C0
FBE0
FBE0
FBE0
71C0
0000
0000
0000
7F00
1F00
1F00
1F00
1F00
1F00
1F00
1F00
1F00
1F00
1F00
1F00
1F00
1F00
1F00
1F00
1F00
1F00
7FC0
ENDCHAR
STARTCHAR 0458
ENCODING 1112
SWIDTH 342 0
DWIDTH 13 0
BBX 12 37 -2 -8
BITMAP
01E0
03F0
03F0
03F0
01E0
0000
0000
0000
0000
0FE0
03E0
03E0
03E0
03E0
03E0
03E0
03E0
03E0
03E0
03E0
03E0
03E0
03E0
03E0
03E0
03E0
03E0
03E0
03E0
03E0
7BE0
FBE0
FBE0
F3C0
E3C0
6780
1E00
ENDCHAR
STARTCHAR 0459
ENCODING 1113
SWIDTH 684 0
DWIDTH 26 0
BBX 24 19 1 0
BITMAP
0FFF80
033E00
023E00
023E00
023E00
023E00
023E00
023E00
023FF8
023E3C
023E1E
023E1F
023E1F
623E1F
F23E1F
F63E1F
E43E1E
EC3E3C
78FFF8
ENDCHAR
STARTCHAR 045A
ENCODING 1114
SWIDTH 763 0
DWIDTH 29 0
BBX 26 19 2 0
BITMAP
FFBFE000
3E0F8000
3E0F8000
3E0F8000
3E0F8000
3E0F8000
3E0F8000
3E0F8000
3E0F8000
3FFFFE00
3E0F8F00
3E0F8780
3E0F87C0
3E0F87C0
3E0F87C0
3E0F87C0
3E0F8780
3E0F8F00
FFBFFE00
ENDCHAR
STARTCHAR 045B
ENCODING 1115
SWIDTH 552 0
DWIDTH 21 0
BBX 19 27 1 0
BITMAP
418000
630000
320000
360000
360000
3E0000
3E0000
3E0000
FFF800
3E0000
3E0000
3E0000
3E0000
3E0000
3EFC00
3F0F00
3E0F80
3E0F80
3E0F80
3E0F80
3E0F80
3E0F80
3E0F80
3E0F80
3E0F80
3E0F80
FFBFE0
ENDCHAR
STARTCHAR 045C
ENCODING 1116
SWIDTH 552 0
DWIDTH 21 0
BBX 18 28 2 0
BITMAP
001800
003800
003800
007000
006000
00C000
008000
000000
000000
FF0F00
3E1F80
3E2780
3E2F80
3E2F80
3E2200
3E2000
3E2000
3E2000
3FE000
3E7800
3E3C00
3E3C00
3E3C00
3E3C40
3E3C40
3E3CC0
3E1F80
FF0F00
ENDCHAR
STARTCHAR 045D
ENCODING 1117
SWIDTH 578 0
DWIDTH 22 0
BBX 19 28 2 0
BITMAP
060000
0F0000
070000
038000
01C000
00C000
006000
000000
000000
FF3FE0
3E0F80
3E0F80
3E1F80
3E1F80
3E1F80
3E2F80
3E2F80
3E4F80
3E4F80
3ECF80
3E8F80
3E8F80
3F0F80
3F0F80
3E0F80
3E0F80
3E0F80
FF3FE0
ENDCHAR
STARTCHAR 045E
ENCODING 1118
SWIDTH 526 0
DWIDTH 20 0
BBX 19 36 0 -8
BITMAP
078E00
078E00
070E00
060600
030C00
00F800
000000
000000
FFCFE0
3F0380
1F0300
1F0200
0F0200
0F8200
0F8400
07C400
07C400
03C400
03E800
01E800
01F800
01F000
00F000
00F000
007000
006000
006000
002000
004000
0C4000
1E4000
3E4000
3E8000
3C8000
1D0000
0E0000
ENDCHAR
STARTCHAR 045F
ENCODING 1119
SWIDTH 578 0
DWIDTH 22 0
BBX 19 25 2 -6
BITMAP
FF3FE0
3E0F80
3E0F80
3E0F80
3E0F80
3E0F80
3E0F80
3E0F80
3E0F80
3E0F80
3E0F80
3E0F80
3E0F80
3E0F80
3E0F80
3E0F80
3E0F80
3E0F80
FFFFE0
00C000
00C000
01E000
01E000
01E000
01E000
ENDCHAR
STARTCHAR 0460
ENCODING 1120
SWIDTH 973 0
DWIDTH 37 0
BBX 32 28 3 0
BITMAP
FC07E07F
FC07E07F
FC07E03F
FC07E03F
FC07E03F
FC07E03F
FC03E03F
FE03E01F
7E03E01F
7E03F01F
7E03F01E
7E03F01E
7F01F01E
3F01F81E
3F01F81C
3F01F81C
1F82F81C
1F82FC18
1FC27C18
0FC47E30
0FE43E30
07E83F20
07F81FE0
03F81FC0
01F00FC0
01F00F80
00E00700
00400300
ENDCHAR
STARTCHAR 0461
ENCODING 1121
SWIDTH 736 0
DWIDTH 28 0
BBX 24 19 2 0
BITMAP
F83C3F
F83C1F
F83C1F
F83C1F
F83E0F
F83E0F
783E0F
7C1E0E
7C1E0E
7C1F0E
3E1F0C
3E2F0C
3E2F8C
1F2798
1F47D0
0FC3F0
0781E0
0781C0
0300C0
ENDCHAR
STARTCHAR 0462
ENCODING 1122
SWIDTH 842 0
DWIDTH 32 0
BBX 27 28 3 0
BITMAP
0FFF8000
01F80000
01F80000
FFFFFE00
F9F87E00
E1F83E00
E1F81E00
C1F80E00
C1F80E00
81F80600
81F80600
81F80600
01F80000
01FFF800
01F81E00
01F80F80
01F80FC0
01F807C0
01F807E0
01F807E0
01F807E0
01F807E0
01F807E0
01F807C0
01F80FC0
01F80F80
01F81F00
0FFFF800
ENDCHAR
STARTCHAR 0463
ENCODING 1123
SWIDTH 578 0
DWIDTH 22 0
BBX 20 27 1 0
BITMAP
0C1800
063000
026000
036000
036000
03E000
03E000
03E000
FFFF80
E3E380
E3E380
C3E180
C3E180
83E080
83E080
83E080
03E000
03FF80
03E3C0
03E1E0
03E1F0
03E1F0
03E1F0
03E1F0
03E1E0
03E3C0
0FFF80
ENDCHAR
STARTCHAR 0464
ENCODING 1124
SWIDTH 973 0
DWIDTH 37 0
BBX 33 28 2 1
BITMAP
FFF81FE100
1F80783B00
1F80F01F00
1F81F00F00
1F81E00700
1F83E00700
1F83E00300
1F83E00300
1F87E00300
1F87E00100
1F87E00100
1F87E00000
1F87E00000
1FFFFFF000
1F87E00000
1F87E00000
1F87E00000
1F87E01E00
1F87E03F00
1F83E03F80
1F83E03F80
1F83E03F80
1F81E01F80
1F81E00F80
1F80F00700
1F80700700
1F80380E00
FFF80F7800
ENDCHAR
STARTCHAR 0465
ENCODING 1125
SWIDTH 684 0
DWIDTH 26 0
BBX 22 19 2 0
BITMAP
FF87CC
3E1E3C
3E1C1C
3E3C1C
3E3C0C
3E7C0C
3E7C0C
3E7C00
3FFFE0
3E7C00
3E7C00
3E7C10
3E7C78
3E3C7C
3E3C3C
3E1C1C
3E1E18
3E0E18
FF83E0
ENDCHAR
STARTCHAR 0466
ENCODING 1126
SWIDTH 894 0
DWIDTH 34 0
BBX 32 28 1 0
BITMAP
0001C000
0001C000
0001E000
0003E000
0003E000
0007F000
0007F000
000DF800
0009F800
0018FC00
0010FC00
00307E00
00207E00
00603F00
00603F00
00C01F80
00C01F80
01800FC0
01FFFFC0
011F87E0
031F87E0
021F83E0
061F83F0
061F81F0
0E1F81F8
1E1F81F8
3E1F81FC
FFFFE7FF
ENDCHAR
STARTCHAR 0467
ENCODING 1127
SWIDTH 605 0
DWIDTH 23 0
BBX 22 19 1 0
BITMAP
003000
003000
007800
007800
00FC00
00FC00
01BE00
013E00
031F00
021F00
061F80
040F80
0C0FC0
0E1FC0
1B37E0
11E3E0
30C3F0
70C3F0
FCC7FC
ENDCHAR
STARTCHAR 0468
ENCODING 1128
SWIDTH 1289 0
DWIDTH 49 0
BBX 46 28 2 0
BITMAP
FFF800030000
1F8000070000
1F8000078000
1F80000F8000
1F80000F8000
1F80001FC000
1F80001FC000
1F800037E000
1F800027E000
1F800063F000
1F800043F000
1F8000C1F800
1F800081F800
1F800180FC00
1F800100FC00
1F8003007E00
1F8003007E00
1F8002003F00
1FFFFFFFFF00
1F80047E1F80
1F800C7E1F80
1F80087E0F80
1F80187E0FC0
1F80187E07C0
1F80387E07E0
1F80787E07E0
1F80F87E07F0
FFFBFFFF9FFC
ENDCHAR
STARTCHAR 0469
ENCODING 1129
SWIDTH 894 0
DWIDTH 34 0
BBX 32 19 2 0
BITMAP
FF800C00
3E000C00
3E001E00
3E001E00
3E003F00
3E003F00
3E006F80
3E004F80
3E00CFC0
3E0087C0
3E0187E0
3E0103E0
3E0103F0
3FFF87F0
3E06CDF8
3E0478F8
3E0C30FC
3E1C30FC
FFBF31FF
ENDCHAR
STARTCHAR 046A
ENCODING 1130
SWIDTH 1000 0
DWIDTH 38 0
BBX 35 28 2 0
BITMAP
0FFFFFFC00
01FC003000
00FE006000
00FE004000
007F00C000
003F818000
003FC18000
001FC30000
000FE20000
000FF60000
0007F40000
0003FC0000
00FFFFE000
01E1F8F800
03C1F87800
07C1F87C00
0FC1F87E00
0FC1F87E00
0FC1F87E00
0FC1F87E00
0FC1F87E00
8FC1F87E20
8FC1F87E20
8FC1F87E20
8FC1F87E20
4F81F87E40
4F81F83E40
3F1FFF1F80
ENDCHAR
STARTCHAR 046B
ENCODING 1131
SWIDTH 736 0
DWIDTH 28 0
BBX 26 19 1 0
BITMAP
1FFFFE00
07C01800
07E01000
03E02000
01F06000
01F8C000
00F88000
007D0000
007F0000
07FFF000
0F3E7C00
1F3E3C00
1F3E3E00
1F3E3E00
9F3E3E40
9F3E3E40
9F3E3E40
7E3E1F80
3C7F8F00
ENDCHAR
STARTCHAR 046C
ENCODING 1132
SWIDTH 1342 0
DWIDTH 51 0
BBX 48 28 2 0
BITMAP
FFF87FFFFFE0
1F800FE00180
1F8007F00300
1F8007F00200
1F8003F80600
1F8001FC0C00
1F8001FE0C00
1F8000FE1800
1F80007F1000
1F80007FB000
1F80003FA000
1F80001FE000
1FFFFFFFFF00
1F801F0FC7C0
1F803F0FC3C0
1F803E0FC3E0
1F807E0FC3F0
1F807E0FC3F0
1F807E0FC3F0
1F807E0FC3F0
1F807E0FC3F0
1F847E0FC3F1
1F847E0FC3F1
1F847E0FC3F1
1F847E0FC3F1
1F827C0FC3F2
1F827C0FC1F2
FFF9F8FFF8FC
ENDCHAR
STARTCHAR 046D
ENCODING 1133
SWIDTH 973 0
DWIDTH 37 0
BBX 34 19 2 0
BITMAP
FF0FFFFF00
3E03E00C00
3E03F00800
3E01F01000
3E00F83000
3E00FC6000
3E007C4000
3E003E8000
3E003F8000
3FFFFFF800
3E079F3E00
3E0F9F1E00
3E0F9F1F00
3E0F9F1F00
3E4F9F1F40
3E4F9F1F40
3E4F9F1F40
3E3F1F0F80
FF1E3FC780
ENDCHAR
STARTCHAR 046E
ENCODING 1134
SWIDTH 631 0
DWIDTH 24 0
BBX 19 45 3 -10
BITMAP
000600
0F0B00
0F1700
079700
07A000
03E000
03C000
0FFC00
383F00
700F80
700FC0
F007E0
F807E0
FC07E0
FC07E0
7807E0
000FC0
000F80
001F00
1FF800
1FFC00
1C1F00
180F80
1807C0
1007C0
1007E0
1007E0
0007E0
000FE0
000FE0
001FC0
007FC0
03FF80
0FFF00
3FFC00
7FF000
7F0000
F80000
E00600
C00E00
C01F00
C01E00
603C00
307800
0FE000
ENDCHAR
STARTCHAR 046F
ENCODING 1135
SWIDTH 447 0
DWIDTH 17 0
BBX 14 31 2 -7
BITMAP
1860
1CB0
0D70
0D00
0600
1FC0
60F0
C078
E07C
F07C
F07C
0078
00E0
3F00
38E0
3078
207C
207C
007C
007C
00F8
03F8
1FE0
7F80
FC00
E000
80E0
81E0
81E0
43C0
3F00
ENDCHAR
STARTCHAR 0470
ENCODING 1136
SWIDTH 1000 0
DWIDTH 38 0
BBX 36 28 1 0
BITMAP
000FFF8000
0000FC0000
0000FC0000
FFE0FC03C0
3F80FC05E0
1F80FC0DF0
1FC0FC09F0
0FC0FC1BF0
0FC0FC13F0
07E0FC13E0
07E0FC21C0
03F0FC2000
03F0FC4000
01F0FC4000
01F8FCC000
01F8FC8000
00FCFC8000
00FCFD0000
007EFD0000
007EFF0000
003FFE0000
0000FC0000
0000FC0000
0000FC0000
0000FC0000
0000FC0000
0000FC0000
000FFF8000
ENDCHAR
STARTCHAR 0471
ENCODING 1137
SWIDTH 789 0
DWIDTH 30 0
BBX 29 33 1 -9
BITMAP
003FE000
000F8000
000F8000
000F8000
000F8000
FF0F80F0
3E0F8170
3E0F8278
1E0F82F8
1E0F84F0
1F0F8470
0F0F8400
0F0F8800
0F0F8800
0F8F8800
078F9000
078F9000
07CF9000
03CFB000
03CFA000
03EFA000
01EFA000
01EFC000
01FFC000
000F8000
000F8000
000F8000
000F8000
000F8000
000F8000
000F8000
000F8000
003FE000
ENDCHAR
STARTCHAR 0472
ENCODING 1138
SWIDTH 710 0
DWIDTH 27 0
BBX 22 28 3 1
BITMAP
01FE00
030300
060180
0E01C0
1C00E0
3C00F0
3C00F0
7C00F8
7C00F8
7C00F8
FC00FC
FC00FC
FC00FC
FFFFFC
FC00FC
FC00FC
FC00FC
FC00FC
7C00F8
7C00F8
7C00F8
3C00F0
3C00F0
1C00E0
0E01C0
060180
030300
01FE00
ENDCHAR
STARTCHAR 0473
ENCODING 1139
SWIDTH 526 0
DWIDTH 20 0
BBX 16 19 2 0
BITMAP
07C0
0C70
1C38
383C
781E
781E
F81E
F81F
F81F
FFFF
F81F
F81F
F81E
781E
781E
383C
1C38
0C70
07C0
ENDCHAR
STARTCHAR 0474
ENCODING 1140
SWIDTH 842 0
DWIDTH 32 0
BBX 30 28 2 1
BITMAP
FFF801F8
1FC0037C
0FC0067C
0FC004FC
07E005FC
07E00DFC
07E009F8
03F00860
03F01800
03F01800
01F81000
01F81000
00FC3000
00FC2000
00FC2000
007E6000
007E6000
007E4000
003FC000
003FC000
001F8000
001F8000
001F8000
000F8000
000F0000
000F0000
00070000
00060000
ENDCHAR
STARTCHAR 0475
ENCODING 1141
SWIDTH 578 0
DWIDTH 22 0
BBX 21 19 1 0
BITMAP
FFC0F0
3F0170
1F0278
1F02F8
0F02F0
0F8400
0F8400
078400
07C800
07C800
03E800
03F800
01F000
01F000
01F000
00E000
00E000
006000
006000
ENDCHAR
STARTCHAR 0476
ENCODING 1142
SWIDTH 842 0
DWIDTH 32 0
BBX 30 38 2 0
BITMAP
00630000
00738000
00738000
0079C000
003CE000
000C6000
00063000
00021000
00000000
00000000
FFF801F8
1FC0037C
0FC0067C
0FC004FC
07E005FC
07E00DFC
07E009F8
03F00800
03F01800
01F01800
01F81000
01F83000
00FC3000
00FC2000
00FC2000
007E6000
007E6000
003E4000
003FC000
003FC000
001F8000
001F8000
001F8000
000F0000
000F0000
00070000
00070000
00060000
ENDCHAR
STARTCHAR 0477
ENCODING 1143
SWIDTH 578 0
DWIDTH 22 0
BBX 21 28 1 0
BITMAP
18C000
3CE000
1EF000
0E7000
073800
031800
018C00
000000
000000
FFC0F0
3F0170
1F0278
1F02F8
0F02F0
0F8400
0F8400
078400
07C800
07C800
03E800
03F000
01F000
01F000
01F000
00E000
00E000
006000
006000
ENDCHAR
STARTCHAR 0478
ENCODING 1144
SWIDTH 1263 0
DWIDTH 48 0
BBX 44 37 3 -8
BITMAP
01FE00000000
030300000000
060180000000
0E01C0000000
1C00E0000000
3C00F0000000
3C00F0000000
7C00F8000000
7C00F8000000
7C00F8FF81E0
FC00FC7E02F0
FC00FC3E04F0
FC00FC3E05F0
FC00FC1E05F0
FC00FC1F0840
FC00FC0F0800
FC00FC0F8800
FC00FC0F8800
7C00F8079000
7C00F807D000
7C00F807D000
3C00F003D000
3C00F003E000
1C00E001E000
0E01C001E000
0E018001C000
03030000C000
01FE0000C000
00200000C000
000000008000
000000008000
000000018000
00000001C000
00000001F000
00000001F000
00000000E000
000000006000
ENDCHAR
STARTCHAR 0479
ENCODING 1145
SWIDTH 1000 0
DWIDTH 38 0
BBX 35 28 2 -9
BITMAP
07C1FF83C0
1C707E05E0
3C783C09E0
38383E0BE0
783C3E0BC0
783C1F0800
F83E1F1000
F83E0F1000
F83E0F9000
F83E0F9000
F83E07A000
F83E07E000
F83E03E000
783C03E000
783C03C000
383801C000
3C7801C000
1C7001C000
07C000C000
0000008000
0000008000
0000008000
0000018000
000001C000
000001F000
000001E000
000000E000
0000004000
ENDCHAR
STARTCHAR 047A
ENCODING 1146
SWIDTH 868 0
DWIDTH 33 0
BBX 28 34 3 -3
BITMAP
000F0000
001F0000
001F8000
007FE000
01DFB800
038F1C00
07000E00
0E000700
1E000780
3C0003C0
3C0003C0
7C0003E0
7C0003E0
FC0003F0
FC0003F0
FC0003F0
FC0003F0
FC0003F0
FC0003F0
FC0003F0
FC0003F0
7C0003E0
7C0003E0
3C0003C0
3C0003C0
1E000780
0E000700
07000E00
038F1C00
01DFB800
007FE000
001F8000
001F8000
000F0000
ENDCHAR
STARTCHAR 047B
ENCODING 1147
SWIDTH 605 0
DWIDTH 23 0
BBX 19 23 2 -2
BITMAP
00E000
01F000
03F800
0EEE00
1CE700
3C0780
7803C0
7803C0
F803E0
F803E0
F803E0
F803E0
F803E0
F803E0
F803E0
7803C0
7803C0
3C0780
1CE700
0EEE00
03F800
01F000
00E000
ENDCHAR
STARTCHAR 047C
ENCODING 1148
SWIDTH 1184 0
DWIDTH 45 0
BBX 40 38 3 0
BITMAP
00007C0000
0003FF8000
000703F000
000C78FC00
0018FC7F80
0000CE1F00
0000860600
0000820000
0000820000
0000020000
01FF00FF80
038381C1C0
0F0381C0F0
1E07C3E078
1E0FC3F078
3C0FC3F03C
3C0FC3F03C
7C0781E03E
7C0000003E
7C0000003E
FC0000003F
FC0000003F
FC0000003F
FC0000003F
FC03FFC03F
FC007E003F
FC007E003F
FC007E003F
7C007E003E
7C007E003E
7C007E003E
3C007E003C
3C007E003C
1E007E0078
0E007E0070
0700E700E0
0380C301C0
00F781FF00
ENDCHAR
STARTCHAR 047D
ENCODING 1149
SWIDTH 842 0
DWIDTH 32 0
BBX 28 25 2 0
BITMAP
001F0000
0061E000
00CE7C00
001F1C00
00110000
00110000
03E17C00
0E30E700
1C79E380
3CF9F1C0
78F9F1E0
7870E1E0
F80001F0
F80001F0
F80001F0
F83FE1F0
F81F01F0
F81F01F0
F81F01F0
781F01E0
781F01E0
3C1F03C0
1C1F0380
0E398700
03E07C00
ENDCHAR
STARTCHAR 047E
ENCODING 1150
SWIDTH 973 0
DWIDTH 37 0
BBX 32 36 3 0
BITMAP
0FFFFFF0
0E07E070
0C07E030
0807E010
0807E010
003FF800
00000000
00000000
FC07E07F
FC07E07F
FC07E07F
FC07E03F
FC07E03F
FC07E03F
FC03E03F
FE03E01F
7E03F01F
7E03F01E
7E03F01E
7E03F01E
7E01F01E
3F01F81C
3F01F81C
3F01F81C
3F82FC18
1F82FC18
1F867C18
0FC47E30
0FC43E30
07E83F20
07F81F60
03F01FC0
03F00F80
01E00F80
00E00700
00400200
ENDCHAR
STARTCHAR 047F
ENCODING 1151
SWIDTH 736 0
DWIDTH 28 0
BBX 24 26 2 0
BITMAP
7FFFFC
707C0C
607C04
407C04
41FF00
000000
000000
F87C3F
F87C1F
F87C1F
F87C1F
F83C0F
F83C0F
783E0F
7C3E0E
7C3E0E
7C1E0E
3C1F0C
3E2F0C
3E2F8C
1F4798
1F47D0
0F83F0
0781E0
0701C0
0300C0
ENDCHAR
STARTCHAR 0480
ENCODING 1152
SWIDTH 710 0
DWIDTH 27 0
BBX 24 28 2 0
BITMAP
FFF000
1F8000
1F8000
1F8000
1F8000
1F8000
1F8000
1F8000
1F8000
1F8000
1F8000
1F8000
0F8000
0F8000
07C000
01FFF0
0003F0
0003F0
0003F0
0003F0
0003F0
0003F0
0003F0
0003F0
0003F0
0003F0
0003F0
001FFF
ENDCHAR
STARTCHAR 0481
ENCODING 1153
SWIDTH 473 0
DWIDTH 18 0
BBX 16 19 1 0
BITMAP
FF00
3E00
3E00
3E00
3E00
3E00
3E00
3E00
3E00
1E00
0FFC
007C
007C
007C
007C
007C
007C
007C
00FF
ENDCHAR
STARTCHAR 0482
ENCODING 1154
SWIDTH 394 0
DWIDTH 15 0
BBX 12 14 2 -6
BITMAP
0060
0470
0EE0
0FC0
0380
07C0
4EE0
EE60
7C00
3C00
7E00
EE00
E200
C000
ENDCHAR
STARTCHAR 0483
ENCODING 1155
SWIDTH 0 0
DWIDTH 0 0
BBX 15 4 -17 20
BITMAP
F81E
F61E
F1DE
F03E
ENDCHAR
STARTCHAR 0484
ENCODING 1156
SWIDTH 0 0
DWIDTH 0 0
BBX 16 6 -18 21
BITMAP
03C0
0FF0
3FFC
780E
6006
8001
ENDCHAR
STARTCHAR 0485
ENCODING 1157
SWIDTH 0 0
DWIDTH 0 0
BBX 7 7 -13 22
BITMAP
7C
FE
C0
C0
C0
40
60
ENDCHAR
STARTCHAR 0486
ENCODING 1158
SWIDTH 0 0
DWIDTH 0 0
BBX 6 7 -13 22
BITMAP
F8
FC
0C
0C
0C
08
18
ENDCHAR
STARTCHAR 0487
ENCODING 1159
SWIDTH 0 0
DWIDTH 0 0
BBX 20 5 -20 31
BITMAP
01F800
0FFF00
3C03C0
7000E0
C00030
ENDCHAR
STARTCHAR 0488
ENCODING 1160
SWIDTH 0 0
DWIDTH 0 0
BBX 46 42 -33 -10
BITMAP
000007800000
00001FE00000
000018600000
000030300000
000030300000
000000000000
01E000001E00
07F800007F80
061800006180
0C0C0000C0C0
0C0C0000C0C0
000000000000
000000000000
000000000000
000000000000
000000000000
000000000000
000000000000
1E00000001E0
7F80000007F8
618000000618
C0C000000C0C
C0C000000C0C
000000000000
000000000000
000000000000
000000000000
000000000000
000000000000
000000000000
000000000000
03F000003F00
07F800007F80
0E1C0000E1C0
0C0C0000C0C0
0C0C0000C0C0
000000000000
000007800000
00001FE00000
000018600000
000030300000
000030300000
ENDCHAR
STARTCHAR 0489
ENCODING 1161
SWIDTH 0 0
DWIDTH 0 0
BBX 42 43 -31 -11
BITMAP
000006000000
000008000000
000010000000
000030000000
00003E000000
01003E000000
02003E01F000
02001C038800
020000078000
02700007C000
03F80007C000
01F00003C000
00F000018000
000000000000
000000000000
000000000000
000000000000
000000000000
000000000000
860000001E00
8F0000003F00
4F0000003C80
3F0000003C40
1E0000001840
000000000000
000000000000
000000000000
000000000000
000000000000
000000000000
00600001C000
00F00003E000
00F80003F000
00F800039000
007800001000
04700E001000
03E01E001000
00001F002000
00001F000000
000003000000
000002000000
000004000000
000018000000
ENDCHAR
STARTCHAR 0490
ENCODING 1168
SWIDTH 605 0
DWIDTH 23 0
BBX 19 37 2 0
BITMAP
000020
000020
000060
000060
000060
0000E0
0001E0
0003E0
0007E0
FFFFE0
1F8000
1F8000
1F8000
1F8000
1F8000
1F8000
1F8000
1F8000
1F8000
1F8000
1F8000
1F8000
1F8000
1F8000
1F8000
1F8000
1F8000
1F8000
1F8000
1F8000
1F8000
1F8000
1F8000
1F8000
1F8000
1F8000
FFFC00
ENDCHAR
STARTCHAR 0491
ENCODING 1169
SWIDTH 447 0
DWIDTH 17 0
BBX 14 26 2 0
BITMAP
0004
000C
000C
000C
001C
001C
007C
FFFC
3E00
3E00
3E00
3E00
3E00
3E00
3E00
3E00
3E00
3E00
3E00
3E00
3E00
3E00
3E00
3E00
3E00
FF80
ENDCHAR
STARTCHAR 04A4
ENCODING 1188
SWIDTH 1000 0
DWIDTH 38 0
BBX 35 28 2 0
BITMAP
FFFBFFFFE0
1F803F0FE0
1F803F07E0
1F803F03E0
1F803F01E0
1F803F01E0
1F803F00E0
1F803F00E0
1F803F0060
1F803F0060
1F803F0060
1F803F0060
1F803F0000
1FFFFF0000
1F803F0000
1F803F0000
1F803F0000
1F803F0000
1F803F0000
1F803F0000
1F803F0000
1F803F0000
1F803F0000
1F803F0000
1F803F0000
1F803F0000
1F803F0000
FFFBFFE000
ENDCHAR
STARTCHAR 04A5
ENCODING 1189
SWIDTH 710 0
DWIDTH 27 0
BBX 24 19 2 0
BITMAP
FFBFFF
3E0F8F
3E0F87
3E0F87
3E0F83
3E0F83
3E0F83
3E0F82
3E0F80
3FFF80
3E0F80
3E0F80
3E0F80
3E0F80
3E0F80
3E0F80
3E0F80
3E0F80
FFBFE0
ENDCHAR
STARTCHAR 04D8
ENCODING 1240
SWIDTH 710 0
DWIDTH 27 0
BBX 22 28 3 1
BITMAP
03FE00
040780
0807C0
1003E0
3003F0
2001F0
6001F8
4001F8
4001F8
C001FC
0001FC
0001FC
0001FC
0001FC
FFFFFC
FC01FC
FC01FC
FC01FC
FC01F8
7C01F8
7C01F8
7C01F8
3C01F0
3E03F0
1E03E0
0E03C0
070780
01FE00
ENDCHAR
STARTCHAR 04D9
ENCODING 1241
SWIDTH 473 0
DWIDTH 18 0
BBX 14 19 2 0
BITMAP
0F80
31C0
40F0
4070
8078
8078
007C
007C
007C
FFFC
F87C
F87C
F87C
F878
7878
7870
3870
1CE0
0F80
ENDCHAR
STARTCHAR 0510
ENCODING 1296
SWIDTH 631 0
DWIDTH 24 0
BBX 20 28 2 1
BITMAP
07FE60
0F03E0
1F01E0
3E01E0
7E00E0
7E00E0
7E0060
7E0060
7E0060
3E0060
3F0000
1F0000
078000
007C00
078000
1F0000
3F0000
7E0000
FE01E0
FE03F0
FE03F0
FE03F0
FE01F0
FE00F0
7F00E0
3F00C0
1F8180
07FE00
ENDCHAR
STARTCHAR 0511
ENCODING 1297
SWIDTH 447 0
DWIDTH 17 0
BBX 14 19 2 0
BITMAP
0FE0
3C38
7838
F83C
F87C
F87C
7810
3C00
0780
1C00
7800
F838
F83C
F83C
F81C
F81C
7C18
3E30
0FC0
ENDCHAR
STARTCHAR 05D0
ENCODING 1488
SWIDTH 552 0
DWIDTH 21 0
BBX 17 22 2 0
BITMAP
400C00
C01C00
E01E00
E03E00
F03F00
F01F80
FC1F80
7E0F80
3F0F00
5F8A00
4FF000
C7F000
C3F000
C1F800
E0FC00
F03E00
F81E00
FC0F00
FC0E00
FC0600
FC0600
F80400
ENDCHAR
STARTCHAR 1D79
ENCODING 7545
SWIDTH 473 0
DWIDTH 18 0
BBX 15 25 2 -7
BITMAP
7FFE
7FFC
7FF8
7FF0
7FC0
0080
0100
0600
0C00
1800
3E00
3F80
3FE0
1FF0
0FF8
13FC
20FC
603C
C01C
C00C
C00C
C008
6018
3830
0FC0
ENDCHAR
STARTCHAR 1E80
ENCODING 7808
SWIDTH 1078 0
DWIDTH 41 0
BBX 38 37 2 1
BITMAP
0003800000
0003C00000
0001E00000
0000E00000
0000700000
0000300000
0000180000
0000000000
0000000000
FFF3FFCFFC
1FC07E01E0
0FC07E00C0
0FC03E00C0
07C03F0080
07E03F0080
07E03F0180
07E03F8100
03F03F8100
03F07F8300
03F06FC300
01F84FC200
01F8CFC200
01F8C7E600
00FC87E600
00FC87E400
00FD83F400
007F83FC00
007F03F800
007F03F800
007F01F800
003F01F800
003E01F000
003E00F000
001E00F000
001C00F000
001C006000
000C006000
ENDCHAR
STARTCHAR 1E81
ENCODING 7809
SWIDTH 789 0
DWIDTH 30 0
BBX 28 28 1 0
BITMAP
00300000
00780000
003C0000
001C0000
000E0000
00070000
00010000
00000000
00000000
FFBFE7F0
3E0F81C0
1E078180
1E078180
1F07C100
0F07C100
0F07C300
0F87E200
0789E200
07C9E600
07C9F400
03D0F400
03F0F800
01F0F800
01E07800
01E07000
00E07000
00C07000
00C02000
ENDCHAR
STARTCHAR 1E82
ENCODING 7810
SWIDTH 1078 0
DWIDTH 41 0
BBX 38 38 2 0
BITMAP
0000010000
0000038000
0000078000
0000078000
00000F0000
00000C0000
0000180000
0000100000
0000000000
0000000000
FFF3FFCFFC
1FC07E01E0
0FC07E00C0
0FC03E00C0
07C03F0080
07E03F0080
07E03F0180
07E03F8100
03F03F8100
03F07F8300
03F06FC300
01F84FC200
01F8CFC200
01F8C7E600
00FC87E600
00FC87E400
00FD83F400
007F83FC00
007F03F800
007F03F800
007F01F800
003F01F800
003E01F000
003E00F000
001E00F000
001C00F000
001C006000
000C006000
ENDCHAR
STARTCHAR 1E83
ENCODING 7811
SWIDTH 789 0
DWIDTH 30 0
BBX 28 28 1 0
BITMAP
00006000
0000E000
0001E000
0001C000
00038000
00070000
00040000
00000000
00000000
FF3FE7F0
3E0F81C0
1E078180
1E078180
1F07C100
0F07C100
0F07C200
0F8FE200
0789E200
0789E400
07D9F400
03D0FC00
03F0F800
03F0F800
01E0F800
01E07000
01C07000
00C07000
00C02000
ENDCHAR
STARTCHAR 1E84
ENCODING 7812
SWIDTH 1078 0
DWIDTH 41 0
BBX 38 36 2 0
BITMAP
0001C38000
0003E7C000
0003E7C000
0003E7C000
0001C38000
0000000000
0000000000
0000000000
FFF3FFCFFC
1FC07E01E0
0FC03E00C0
0FC03E00C0
07C03F0080
07E01F0080
07E01F0180
07E03F8100
03F03F8100
03F02F8300
03F06FC300
01F86FC200
01F847C200
01F8C7E600
00FCC7E600
00FCC7E400
00FC83F400
007F83FC00
007F83F800
007F01F800
007F01F800
003F01F800
003F01F000
003E00F000
001E00F000
001E00F000
001E006000
000C006000
ENDCHAR
STARTCHAR 1E85
ENCODING 7813
SWIDTH 763 0
DWIDTH 29 0
BBX 28 27 0 0
BITMAP
00387000
007CF800
007CF800
007CF800
00387000
00000000
00000000
00000000
FF9FF3F0
3F0FC0C0
1F07C0C0
1F07C080
0F03C080
0F83E100
0F87E100
0785E100
07C5F200
03C9F200
03C8F600
03E8F400
01F0FC00
01F07C00
01F07800
00E07800
00E03800
00E03000
00403000
ENDCHAR
STARTCHAR 1E9E
ENCODING 7838
SWIDTH 789 0
DWIDTH 30 0
BBX 27 28 1 1
BITMAP
001FFF80
007FFF00
00FFFE00
01F3FC00
03E00C00
03C01800
07C03000
07C06000
0FC04000
0FC0C000
0FC18000
0FC3F800
0FC73E00
0FC41F80
0FC00F80
0FC00FC0
0FC00FC0
0FC00FE0
0FC00FE0
0FC60FE0
0FDF0FE0
0FFF8FE0
0FFF8FE0
0FFF0FC0
0FFE0FC0
0FFC1F80
0FDC1F00
FFCFFC00
ENDCHAR
STARTCHAR 1F00
ENCODING 7936
SWIDTH 578 0
DWIDTH 22 0
BBX 19 29 2 0
BITMAP
00F000
00F000
01F800
00F800
001800
001800
001000
002000
004000
000000
0383C0
0FC3C0
1FE7C0
3FE7C0
3C7F80
783F00
601F00
603E00
C03E00
803C00
807C00
807800
80F820
81F860
C3ECC0
FFEFC0
7FCFC0
3F8780
1E0700
ENDCHAR
STARTCHAR 1F01
ENCODING 7937
SWIDTH 578 0
DWIDTH 22 0
BBX 19 29 2 0
BITMAP
007000
00F800
01F800
01F800
018000
008000
008000
004000
003000
000000
0383C0
0FC3C0
1FE7C0
3FE7C0
3E7F80
781F00
701F00
601E00
C01E00
C03C00
803C00
807800
80F820
81F860
C3ECC0
FFEFC0
7FCFC0
3F8780
1E0700
ENDCHAR
STARTCHAR 1F02
ENCODING 7938
SWIDTH 578 0
DWIDTH 22 0
BBX 19 29 2 0
BITMAP
0F3800
0F3C00
0FBC00
0F9C00
018E00
018E00
010600
020300
040100
000000
03C3C0
0FE3C0
1FE7C0
1FE7C0
3E7F80
781F00
701F00
601E00
C01E00
C03C00
803C00
807800
80F820
81F860
C3ECC0
FFEFC0
7FCFC0
3F8780
1E0700
ENDCHAR
STARTCHAR 1F03
ENCODING 7939
SWIDTH 578 0
DWIDTH 22 0
BBX 19 29 2 0
BITMAP
073800
0FBC00
1FBC00
1F9C00
180E00
080E00
0C0600
060300
030100
000000
03C3C0
0FE3C0
1FE7C0
1FE7C0
3E7F80
781F00
701F00
601E00
C01E00
C03C00
803C00
807800
80F820
81F860
C3ECC0
FFEFC0
7FCFC0
3F8780
1E0700
ENDCHAR
STARTCHAR 1F04
ENCODING 7940
SWIDTH 578 0
DWIDTH 22 0
BBX 19 29 2 0
BITMAP
03C380
03C380
03E780
03E780
006700
006E00
004C00
008C00
011800
000000
03C3C0
0FE3C0
1FE7C0
1FE7C0
3C7F80
783F80
601F00
601E00
C03E00
803C00
807C00
807800
80F820
81F860
C3ECC0
FFEFC0
7FCFC0
3F8780
1E0700
ENDCHAR
STARTCHAR 1F05
ENCODING 7941
SWIDTH 578 0
DWIDTH 22 0
BBX 19 29 2 0
BITMAP
01C180
03E380
07E780
07E780
060700
020E00
030C00
018C00
00D800
000000
03C3C0
0FE3C0
1FE7C0
1FE7C0
3E7F80
781F80
701F00
601E00
C01E00
C03C00
803C00
807800
80F820
81F860
C3ECC0
FFEFC0
7FCFC0
3F8780
1E0700
ENDCHAR
STARTCHAR 1F06
ENCODING 7942
SWIDTH 578 0
DWIDTH 22 0
BBX 19 34 2 0
BITMAP
03C080
07F180
0C7F00
083E00
000000
000000
01F000
01F000
01F800
00F800
001800
001800
003000
002000
000000
03C3C0
0FE3C0
1FE7C0
1FF7C0
3C7F80
783F00
601F00
601E00
C03E00
803C00
807C00
807800
80F820
81F860
C3ECC0
FFEFC0
7FCFC0
3F8780
1E0700
ENDCHAR
STARTCHAR 1F07
ENCODING 7943
SWIDTH 578 0
DWIDTH 22 0
BBX 19 34 2 0
BITMAP
03C080
07F180
0C7F00
083E00
000000
000000
00F800
01F800
01F800
01F000
018000
018000
00C000
004000
000000
03C3C0
0FE3C0
1FE7C0
1FF7C0
3E7F80
781F00
701F00
601E00
C01E00
C03C00
803C00
807800
80F820
81F860
C3ECC0
FFEFC0
7FCFC0
3F8780
1E0700
ENDCHAR
ENDFONT
